<?xml version="1.0" encoding="utf-8"?>
<!-- Generator: Adobe Illustrator 21.0.0, SVG Export Plug-In . SVG Version: 6.00 Build 0)  -->
<svg version="1.1" id="Capa_1" xmlns="http://www.w3.org/2000/svg" xmlns:xlink="http://www.w3.org/1999/xlink" x="0px" y="0px"
	 viewBox="0 0 207.3 167.3" style="enable-background:new 0 0 207.3 167.3;" xml:space="preserve">
<g>
	<g>
		<path d="M5,162.3v-16.7h2.1v7.3H13v-7.3h2.1v16.7H13v-7.5H7.1v7.5H5z"/>
		<path d="M50.8,154c0-2.7,0.5-4.8,1.6-6.4c1.1-1.6,2.6-2.4,4.4-2.4c1.8,0,3.3,0.8,4.4,2.4c1.1,1.6,1.6,3.7,1.6,6.4
			c0,2.7-0.5,4.8-1.6,6.4c-1.1,1.6-2.6,2.4-4.4,2.4c-1.8,0-3.3-0.8-4.4-2.4C51.3,158.8,50.8,156.6,50.8,154z M53.1,154
			c0,2.2,0.3,3.9,1,5.1c0.6,1.2,1.6,1.8,2.8,1.8s2.1-0.6,2.8-1.8c0.7-1.2,1-2.9,1-5.1c0-2.2-0.3-3.9-1-5c-0.7-1.2-1.6-1.8-2.8-1.8
			s-2.1,0.6-2.8,1.8C53.4,150.1,53.1,151.8,53.1,154z"/>
		<path d="M102.5,162.3v-14.8h-5.3v-1.9H110v1.9h-5.4v14.8H102.5z"/>
		<path d="M145.9,162.3v-16.7h9.4v1.9H148v5.1h6.2v1.9H148v5.9h7.8v1.9H145.9z"/>
		<path d="M192.7,162.3v-16.7h2.1v14.8h7.5v1.9H192.7z"/>
	</g>
	<g>
		<polygon points="16.7,121.6 16.7,4.6 5,4.6 5,130.7 46.3,130.7 46.3,129.9 46.3,121.6 42.1,121.6 		"/>
		<path d="M98.6,14.2l-0.7-2.1l-2.3-6.9V4.6v0l-0.2,0l0,0H87v113.2c0,0.8-0.3,1.6-0.7,2.2c-0.7,0.9-1.7,1.5-2.9,1.6H65
			c-2-0.1-3.6-1.7-3.6-3.8V66.3v-9.2V4.6h-4.7h-7v120.1c0,1.3,0.5,2.6,1.6,3.9c1,1.3,2.1,2,3.3,2c0.1,0,0.1,0,0.2,0h37.4
			c0.3,0,0.6,0,0.9-0.1c1.4-0.2,2.4-0.7,3.2-1.5c0.6-0.6,1-1.2,1.2-1.8c0.1-0.3,0.2-0.6,0.3-0.9l18.7-59.2L98.6,14.2z"/>
		<polygon points="136.1,4.6 106.9,4.6 122,49.7 		"/>
		<polygon points="108.6,130.6 138.2,130.6 122.7,85.1 		"/>
		<path d="M200.8,6.2c-1.1-1.1-2.6-1.6-4.7-1.6h-1.3h-39v0l-0.1,0h-1.2c-2,0-3.6,0.5-4.6,1.5c0,0-0.1,0-0.1,0.1
			c-0.7,0.7-1.1,1.3-1.3,2l0,0l-20.1,59.2l19.9,58.6l1.5,4.6h10.1h1.3V82.1v-3.9h28.2h1.3v3.9v48.6h10.1h1.5v-4.6v-44V9.5
			C202.3,8.4,201.8,7.3,200.8,6.2z M190.7,69h-1.3h-28.2V13.8h28.2h1.3V69z"/>
	</g>
</g>
</svg>
