<?xml version="1.0" encoding="utf-8"?>
<!-- Generator: Adobe Illustrator 21.0.0, SVG Export Plug-In . SVG Version: 6.00 Build 0)  -->
<svg version="1.1" id="Capa_1" xmlns="http://www.w3.org/2000/svg" xmlns:xlink="http://www.w3.org/1999/xlink" x="0px" y="0px"
	 viewBox="0 0 440 424" style="enable-background:new 0 0 440 424;" xml:space="preserve">
<style type="text/css">
	.st0{fill:#FFFFFF;}
	.st1{fill:#212D3D;}
	.st2{fill:none;stroke:#FFFFFF;stroke-width:3;stroke-miterlimit:10;}
	.st3{font-family:'BebasNeueRegular';}
	.st4{font-size:14.9225px;}
	.st5{fill:none;stroke:#FFFFFF;stroke-miterlimit:10;}
</style>
<g>
	<path class="st0" d="M311.4,199.9c0,0-30.2-47-6.1-83.9l-30.1-31.2c0,0-32.2,13.9-54.2,13.2c-22,0.7-54.2-13.2-54.2-13.2L136.6,116
		c24.1,36.9-6.1,83.9-6.1,83.9c-31.8,51.6,34.8,75.5,34.8,75.5c48.3,16.3,55.6,31,55.6,31s7.4-14.7,55.6-31
		C276.6,275.4,343.1,251.5,311.4,199.9z"/>
	<g>
		<path class="st1" d="M301.9,199.5c0,0-27.4-48.2-5.5-81.6l-23.6-24.3c0,0-32.8,14.2-52.8,13.6c-19.9,0.6-51.6-14.5-51.6-14.5
			l-24.7,25.2c21.9,33.4-5.5,81.6-5.5,81.6c-28.8,46.7,31.5,68.3,31.5,68.3c43.7,14.7,50.4,28.1,50.4,28.1s6.7-13.3,50.4-28.1
			C270.4,267.8,330.6,246.2,301.9,199.5z"/>
	</g>
	<g>
		<g>
			<path class="st0" d="M170.9,98.6c4.5,2.1,30.2,13.7,47.9,13.7c0.4,0,0.8,0,1.1,0c0.4,0,0.8,0,1.2,0c17.8,0,44.4-10.9,48.9-12.8
				l20.1,20c-8.3,13.2-9.7,31.2-4.2,52.1c4.3,15.9,11.2,28.1,11.3,28.3c7.2,11.7,9.1,22.8,5.5,32.9c-7.2,20.7-34.8,30.8-35.1,30.9
				c-34.3,11.6-44.9,22.2-47.8,25.9c-2.8-3.7-13.4-14.4-47.7-25.9c-0.3-0.1-27.8-10.2-35.1-30.9c-3.5-10.1-1.7-21.2,5.5-32.9
				c0.1-0.1,7-12.3,11.3-28.2c5.6-20.8,4.1-38.8-4.2-52L170.9,98.6 M170.7,97.4l-22.2,22.1c20.9,31.9-6.7,79.8-6.7,79.8
				c-27.4,44.6,30.1,65.2,30.1,65.2c41.7,14,48.1,26.8,48.1,26.8s6.4-12.7,48.1-26.8c0,0,57.5-20.6,30.1-65.2c0,0-27.5-48-6.7-79.9
				l-21.1-21.1c0,0-30,13-49.1,13c-0.4,0-0.8,0-1.2,0c-0.4,0-0.8,0-1.1,0C199.8,111.3,170.7,97.4,170.7,97.4L170.7,97.4z"/>
		</g>
	</g>
	<g>
		<path class="st0" d="M276,29.2c-1,1.3,1.3,5.1,1.3,5.1l-3.7,5.3c2.4-5.3-1.2-8.9-1.2-8.9c-7.6-6.9-8.8,10.4-8.8,10.4
			c2.2-4.8,5.1-3.6,5.1-3.6c4.4,1.6,0,8.6,0,8.6c-5.9,10.2-10.4,9.8-10.4,9.8c-11.7,2.1-13.3-14.7-13.3-14.7
			c-20.7,18.4-22.9-3.7-22.9-3.7c-0.2-7.6,1.8-10,1.8-10c4-5.4,7.4,4.3,7.4,4.3c8.5-15-7.7-11.2-7.7-11.2c3.7-8.9-3.7-13.7-3.7-13.7
			s-7.4,4.8-3.7,13.7c0,0-16.2-3.9-7.7,11.2c0,0,3.1-8.5,7.4-4.3c0,0,1.9,1.6,1.8,10c0,0-1.3,21.7-22.9,3.7c0,0-1.5,16.7-13.3,14.7
			c0,0-4.5,0.4-10.4-9.8c0,0-4.4-7,0-8.6c0,0,2.9-1.3,5.1,3.6c0,0-0.7-17.7-8.9-10.2c0,0-3.4,3.4-1,8.7l-3.7-5.3
			c0,0,2.3-3.9,1.3-5.1c-1-1.3-7.5-3.4-10-3.1c-0.7,0.1,26.4,46.2,26.4,46.2s13.9-11.5,39.6-10.6c25.8-0.9,39.6,10.6,39.6,10.6
			s27.1-46.1,26.4-46.2C283.5,25.9,277,27.9,276,29.2z"/>
		<path class="st2" d="M181,75.8c0.3,0.1,34.5-23.3,77.8,0"/>
	</g>
	<path class="st0" d="M220.1,340.3c0,0-25.1,0.8-42-9c0,0,6.8,12.2,7.5,19.9c0.8,7.7,0,7.7,3.9,8.6c3.9,0.9,19.3,2.3,30.6,2.3
		c11.3,0,26.7-1.4,30.6-2.3c3.9-0.9,3.1-0.9,3.9-8.6c0.8-7.7,7.5-19.9,7.5-19.9C245.1,341.1,220.1,340.3,220.1,340.3z"/>
	<path class="st0" d="M7.4,285.5c1.7,0.3,107.9-68.7,115.9-22.9c0,0,1.3,14.9,4.3,17.4c0,0-12.4-11.8-38.1-2.1
		c-25.7,9.7-65.2,31.2-65.2,31.2l6.3-20.8L7.4,285.5z"/>
	<path class="st0" d="M61.9,307c-1.2,0,8.7,9.4,8.7,12.8c0,3.5-2.7,9.4,3.7,9c6.3-0.3,63.2-16,92.4-13.2c22.1,2.1,34.9,7,41.6,13.2
		c0,0-8-15.6-10.4-21.9c-2.3-6.2-0.3-10.8-4.7-11.1c-4.3-0.3-48.7-4.7-87.9,5.6C66.1,311.8,68.2,307,61.9,307z"/>
	<g>
		<g>
			<path class="st0" d="M63.1,302c0.5,0.6,0.8,1.3,1.1,2c0.2,0.7,0.4,1.4,0.4,2.2c-0.5-0.6-0.8-1.3-1.1-2
				C63.2,303.5,63,302.8,63.1,302z"/>
		</g>
		<g>
			<path class="st0" d="M64.6,299.3c0.7,1.1,1.2,2.3,1.6,3.6c0.4,1.2,0.8,2.5,0.9,3.8c-0.7-1.1-1.2-2.3-1.6-3.6
				C65.1,301.9,64.7,300.6,64.6,299.3z"/>
		</g>
		<g>
			<path class="st0" d="M65.9,297.7c0.9,1.3,1.6,2.8,2.2,4.2c0.6,1.5,1.2,3,1.5,4.5c-0.9-1.3-1.6-2.8-2.2-4.2
				C66.9,300.7,66.3,299.3,65.9,297.7z"/>
		</g>
		<g>
			<path class="st0" d="M67.4,295c1.1,1.9,2,3.9,2.8,5.9c0.8,2,1.6,4,2.1,6.1c-1.1-1.9-2-3.9-2.8-5.9C68.7,299.1,68,297.1,67.4,295z
				"/>
		</g>
		<g>
			<path class="st0" d="M68.8,293.5c1.3,2.1,2.4,4.3,3.4,6.5c1,2.2,2,4.5,2.7,6.8c-1.3-2.1-2.4-4.3-3.4-6.5
				C70.5,298.2,69.6,295.9,68.8,293.5z"/>
		</g>
		<g>
			<path class="st0" d="M70.7,292c0.7,1.1,1.3,2.3,1.9,3.5c0.6,1.2,1.1,2.4,1.7,3.6c0.5,1.2,1.1,2.4,1.5,3.7c0.5,1.2,1,2.5,1.3,3.7
				c-0.7-1.1-1.3-2.3-1.9-3.5c-0.6-1.2-1.1-2.4-1.7-3.6c-0.5-1.2-1.1-2.4-1.5-3.7C71.6,294.6,71.1,293.3,70.7,292z"/>
		</g>
		<g>
			<path class="st0" d="M71.9,290.4c0.8,1.2,1.5,2.5,2.2,3.8c0.7,1.3,1.4,2.6,2,3.9c0.6,1.3,1.3,2.6,1.9,4c0.6,1.3,1.2,2.7,1.7,4.1
				c-0.8-1.2-1.5-2.5-2.2-3.8c-0.7-1.3-1.4-2.6-2-3.9c-0.6-1.3-1.3-2.6-1.9-4C73,293.1,72.4,291.8,71.9,290.4z"/>
		</g>
		<g>
			<path class="st0" d="M73.8,288.7c0.8,1.4,1.6,2.8,2.3,4.2c0.7,1.4,1.4,2.8,2.1,4.2c0.7,1.4,1.3,2.9,1.9,4.3
				c0.6,1.5,1.2,2.9,1.8,4.4c-0.8-1.4-1.6-2.8-2.3-4.2c-0.7-1.4-1.4-2.8-2.1-4.2c-0.7-1.4-1.3-2.9-1.9-4.3
				C74.9,291.7,74.3,290.2,73.8,288.7z"/>
		</g>
		<g>
			<path class="st0" d="M75.8,287.5c0.8,1.4,1.6,2.8,2.3,4.3c0.8,1.4,1.4,2.9,2.1,4.4c0.7,1.5,1.4,3,2,4.5c0.6,1.5,1.3,3,1.8,4.5
				c-0.8-1.4-1.6-2.8-2.3-4.3c-0.8-1.4-1.4-2.9-2.1-4.4c-0.7-1.5-1.4-3-2-4.5C77,290.6,76.4,289.1,75.8,287.5z"/>
		</g>
		<g>
			<path class="st0" d="M77.9,286.1c0.9,1.5,1.7,3,2.5,4.6c0.8,1.5,1.6,3.1,2.3,4.7c0.7,1.6,1.5,3.2,2.2,4.8c0.7,1.6,1.4,3.2,2,4.8
				c-0.9-1.5-1.7-3-2.5-4.6c-0.8-1.5-1.6-3.1-2.3-4.7c-0.7-1.6-1.5-3.2-2.2-4.8C79.2,289.4,78.5,287.8,77.9,286.1z"/>
		</g>
		<g>
			<path class="st0" d="M79.7,285.1c0.9,1.5,1.7,3.1,2.5,4.6c0.8,1.6,1.6,3.1,2.3,4.7c0.7,1.6,1.5,3.2,2.2,4.8
				c0.7,1.6,1.4,3.2,2,4.9c-0.9-1.5-1.7-3.1-2.5-4.6c-0.8-1.6-1.6-3.1-2.3-4.7c-0.7-1.6-1.5-3.2-2.2-4.8
				C81,288.4,80.3,286.8,79.7,285.1z"/>
		</g>
		<g>
			<path class="st0" d="M81.6,283.8c0.9,1.6,1.8,3.2,2.6,4.9c0.9,1.6,1.7,3.3,2.5,4.9c0.8,1.7,1.6,3.3,2.3,5
				c0.7,1.7,1.5,3.4,2.1,5.1c-0.9-1.6-1.8-3.2-2.6-4.9c-0.9-1.6-1.7-3.3-2.5-4.9c-0.8-1.7-1.6-3.3-2.3-5
				C83,287.2,82.3,285.5,81.6,283.8z"/>
		</g>
		<g>
			<path class="st0" d="M83.2,282.4c1,1.6,1.9,3.3,2.8,5c0.9,1.7,1.7,3.4,2.6,5.1c0.8,1.7,1.7,3.4,2.4,5.2c0.8,1.7,1.6,3.5,2.2,5.3
				c-1-1.6-1.9-3.3-2.8-5c-0.9-1.7-1.7-3.4-2.6-5.1c-0.8-1.7-1.7-3.4-2.4-5.2C84.7,286,83.9,284.2,83.2,282.4z"/>
		</g>
		<g>
			<path class="st0" d="M85,281.5c1,1.7,1.9,3.4,2.8,5.2c0.9,1.7,1.8,3.5,2.6,5.2c0.8,1.8,1.7,3.5,2.5,5.3c0.8,1.8,1.6,3.6,2.3,5.4
				c-1-1.7-1.9-3.4-2.8-5.2c-0.9-1.7-1.8-3.5-2.6-5.2c-0.8-1.8-1.7-3.5-2.5-5.3C86.5,285.1,85.7,283.4,85,281.5z"/>
		</g>
		<g>
			<path class="st0" d="M182.8,321.1c-0.2,1.8-0.7,3.6-1.2,5.3c-0.5,1.7-1.1,3.4-1.9,5.1c0.2-1.8,0.7-3.6,1.2-5.3
				C181.5,324.4,182,322.7,182.8,321.1z"/>
		</g>
		<g>
			<path class="st0" d="M180.6,322.9c-0.1,1.4-0.4,2.7-0.8,4c-0.4,1.3-0.8,2.6-1.5,3.8c0.1-1.4,0.4-2.7,0.8-4
				C179.5,325.4,179.9,324.1,180.6,322.9z"/>
		</g>
		<g>
			<path class="st0" d="M184.5,320.2c-0.3,2.1-0.8,4.1-1.4,6.2c-0.6,2-1.2,4-2.1,5.9c0.3-2.1,0.8-4.1,1.4-6.2
				C183,324.1,183.6,322.1,184.5,320.2z"/>
		</g>
		<g>
			<path class="st0" d="M185.9,319.9c-0.3,2.2-0.8,4.4-1.4,6.6c-0.6,2.2-1.2,4.3-2.1,6.4c0.3-2.2,0.8-4.4,1.4-6.6
				C184.4,324.1,185.1,322,185.9,319.9z"/>
		</g>
		<g>
			<path class="st0" d="M187,320c-0.3,2.3-0.7,4.6-1.3,6.8c-0.6,2.2-1.2,4.5-2,6.6c0.3-2.3,0.7-4.6,1.3-6.8
				C185.6,324.4,186.2,322.2,187,320z"/>
		</g>
		<g>
			<path class="st0" d="M188.6,320.3c-0.3,2.3-0.8,4.6-1.4,6.9c-0.6,2.3-1.3,4.5-2.1,6.7c0.3-2.4,0.8-4.6,1.4-6.9
				C187.1,324.8,187.7,322.5,188.6,320.3z"/>
		</g>
		<g>
			<path class="st0" d="M190,320.7c-0.3,2.4-0.8,4.7-1.3,7c-0.6,2.3-1.2,4.6-2.1,6.8c0.3-2.4,0.8-4.7,1.3-7
				C188.5,325.2,189.2,322.9,190,320.7z"/>
		</g>
		<g>
			<path class="st0" d="M191.6,321.1c-0.3,2.4-0.8,4.7-1.3,7c-0.6,2.3-1.2,4.6-2,6.9c0.3-2.4,0.7-4.7,1.3-7
				C190.1,325.6,190.7,323.3,191.6,321.1z"/>
		</g>
		<g>
			<path class="st0" d="M192.8,321.5c-0.3,2.3-0.7,4.6-1.3,6.9c-0.6,2.3-1.2,4.5-2,6.7c0.3-2.3,0.7-4.6,1.3-6.9
				C191.4,326,192,323.7,192.8,321.5z"/>
		</g>
		<g>
			<path class="st0" d="M194.2,322c-0.3,2.4-0.7,4.7-1.3,7.1c-0.6,2.3-1.2,4.6-2,6.9c0.3-2.4,0.7-4.7,1.3-7.1
				C192.8,326.6,193.4,324.3,194.2,322z"/>
		</g>
		<g>
			<path class="st0" d="M195.2,322.5c-0.2,2.3-0.6,4.6-1.1,6.9c-0.5,2.3-1,4.5-1.8,6.7c0.2-2.3,0.6-4.6,1.1-6.9
				C193.9,326.9,194.5,324.7,195.2,322.5z"/>
		</g>
		<g>
			<path class="st0" d="M196.5,322.9c-0.2,2.3-0.6,4.5-1.1,6.8c-0.5,2.2-1.1,4.5-1.9,6.6c0.2-2.3,0.6-4.5,1.1-6.8
				C195.1,327.3,195.7,325.1,196.5,322.9z"/>
		</g>
		<g>
			<path class="st0" d="M197.9,323.8c-0.2,2.2-0.6,4.3-1,6.5c-0.5,2.1-1,4.3-1.8,6.3c0.2-2.2,0.6-4.3,1-6.5
				C196.6,328,197.2,325.8,197.9,323.8z"/>
		</g>
		<g>
			<path class="st0" d="M199.2,324.2c-0.2,2.2-0.6,4.3-1.1,6.4c-0.5,2.1-1,4.2-1.8,6.3c0.2-2.2,0.6-4.3,1.1-6.4
				C197.9,328.4,198.5,326.3,199.2,324.2z"/>
		</g>
		<g>
			<path class="st0" d="M200.3,325.1c-0.1,2.1-0.4,4.1-0.8,6.1c-0.4,2-0.9,4-1.6,6c0.1-2.1,0.4-4.1,0.8-6.1
				C199.1,329.1,199.6,327.1,200.3,325.1z"/>
		</g>
		<g>
			<path class="st0" d="M201.5,325.9c-0.1,2-0.4,3.9-0.7,5.8c-0.4,1.9-0.8,3.8-1.5,5.7c0.1-2,0.4-3.9,0.7-5.8
				C200.4,329.6,200.8,327.7,201.5,325.9z"/>
		</g>
		<g>
			<path class="st0" d="M202.7,326.5c-0.1,1.9-0.4,3.7-0.7,5.5c-0.4,1.8-0.8,3.6-1.5,5.4c0.1-1.9,0.4-3.7,0.7-5.5
				C201.6,330.1,202,328.3,202.7,326.5z"/>
		</g>
		<g>
			<path class="st0" d="M203.8,327.4c0,1.7-0.3,3.4-0.6,5.1c-0.3,1.7-0.7,3.3-1.4,4.9c0-1.7,0.3-3.4,0.6-5.1
				C202.8,330.7,203.2,329,203.8,327.4z"/>
		</g>
		<g>
			<path class="st0" d="M205,328.3c0,1.6-0.2,3.1-0.5,4.6c-0.3,1.5-0.7,3-1.2,4.5c0-1.6,0.2-3.1,0.5-4.6
				C204,331.3,204.4,329.8,205,328.3z"/>
		</g>
		<g>
			<path class="st0" d="M206.1,329.3c0,1.4-0.2,2.8-0.5,4.1c-0.3,1.3-0.6,2.7-1.2,3.9c0-1.4,0.2-2.8,0.5-4.1
				C205.2,331.9,205.5,330.6,206.1,329.3z"/>
		</g>
		<g>
			<path class="st0" d="M207.1,330.3c0.1,1.2-0.1,2.3-0.3,3.5c-0.2,1.1-0.5,2.2-1,3.3c-0.1-1.2,0.1-2.3,0.3-3.5
				C206.3,332.5,206.6,331.3,207.1,330.3z"/>
		</g>
		<g>
			<path class="st0" d="M208.1,331.8c0.2,0.8,0.1,1.6,0,2.4c-0.1,0.8-0.3,1.5-0.8,2.3c-0.2-0.8-0.1-1.6,0-2.4
				C207.5,333.3,207.7,332.5,208.1,331.8z"/>
		</g>
		<g>
			<path class="st0" d="M87.6,280.3c0.9,1.7,1.8,3.5,2.6,5.3c0.9,1.8,1.6,3.6,2.4,5.4c0.8,1.8,1.6,3.6,2.3,5.5
				c0.7,1.8,1.5,3.7,2.1,5.5c-0.9-1.7-1.8-3.5-2.6-5.3c-0.9-1.8-1.6-3.6-2.4-5.4c-0.8-1.8-1.6-3.6-2.3-5.5
				C89,284,88.2,282.2,87.6,280.3z"/>
		</g>
		<g>
			<path class="st0" d="M121.9,277.2c0.9,1.4,1.6,2.9,2.2,4.4c0.6,1.5,1.2,3,1.5,4.7c-0.9-1.4-1.6-2.9-2.2-4.4
				C122.8,280.3,122.2,278.8,121.9,277.2z"/>
		</g>
		<g>
			<path class="st0" d="M124.9,278.4c0.7,1,1.2,2,1.7,3.1c0.4,1.1,0.8,2.2,1,3.4c-0.7-1-1.2-2-1.7-3.1
				C125.4,280.6,125.1,279.5,124.9,278.4z"/>
		</g>
		<g>
			<path class="st0" d="M119.4,276.3c1.1,1.8,2,3.8,2.8,5.7c0.8,2,1.6,3.9,2.1,6c-1.1-1.8-2-3.8-2.8-5.7
				C120.7,280.4,120,278.4,119.4,276.3z"/>
		</g>
		<g>
			<path class="st0" d="M117.2,275.6c1.1,2.2,2.1,4.6,3,6.9c0.9,2.3,1.7,4.7,2.3,7.2c-1.1-2.2-2.1-4.6-3-6.9
				C118.6,280.4,117.8,278,117.2,275.6z"/>
		</g>
		<g>
			<path class="st0" d="M114.4,275.3c0.7,1.3,1.3,2.6,1.9,3.9c0.6,1.3,1.2,2.6,1.7,3.9c0.5,1.3,1.1,2.7,1.5,4c0.5,1.4,1,2.7,1.4,4.1
				c-0.7-1.3-1.3-2.6-1.9-3.9c-0.6-1.3-1.2-2.6-1.7-3.9c-0.5-1.3-1.1-2.7-1.5-4C115.3,278,114.8,276.6,114.4,275.3z"/>
		</g>
		<g>
			<path class="st0" d="M112.7,275.1c0.7,1.4,1.3,2.9,1.9,4.3c0.6,1.4,1.2,2.9,1.7,4.4c0.5,1.5,1.1,2.9,1.5,4.4c0.5,1.5,1,3,1.3,4.5
				c-0.7-1.4-1.3-2.9-1.9-4.3c-0.6-1.4-1.2-2.9-1.7-4.4c-0.5-1.5-1.1-2.9-1.5-4.4C113.5,278.1,113,276.6,112.7,275.1z"/>
		</g>
		<g>
			<path class="st0" d="M110.1,275c0.7,1.6,1.4,3.1,2.1,4.7c0.7,1.6,1.3,3.2,1.9,4.8c0.6,1.6,1.2,3.2,1.7,4.9
				c0.5,1.6,1.1,3.3,1.5,4.9c-0.7-1.6-1.4-3.1-2.1-4.7c-0.7-1.6-1.3-3.2-1.9-4.8c-0.6-1.6-1.2-3.2-1.7-4.9
				C111.1,278.3,110.5,276.7,110.1,275z"/>
		</g>
		<g>
			<path class="st0" d="M108.2,275c0.7,1.6,1.4,3.3,2.1,5c0.7,1.7,1.3,3.4,1.9,5.1c0.6,1.7,1.2,3.4,1.7,5.1c0.5,1.7,1.1,3.4,1.5,5.2
				c-0.7-1.6-1.4-3.3-2.1-5c-0.7-1.7-1.3-3.4-1.9-5.1c-0.6-1.7-1.2-3.4-1.7-5.1C109.1,278.5,108.6,276.8,108.2,275z"/>
		</g>
		<g>
			<path class="st0" d="M105.7,275.3c0.8,1.7,1.5,3.4,2.2,5.2c0.7,1.7,1.4,3.5,2,5.2c0.6,1.8,1.3,3.5,1.8,5.3
				c0.6,1.8,1.2,3.6,1.7,5.4c-0.8-1.7-1.5-3.4-2.2-5.2c-0.7-1.7-1.4-3.5-2-5.2c-0.6-1.8-1.3-3.5-1.8-5.3
				C106.7,278.9,106.2,277.1,105.7,275.3z"/>
		</g>
		<g>
			<path class="st0" d="M103.2,275.3c0.8,1.8,1.6,3.6,2.4,5.4c0.8,1.8,1.5,3.6,2.2,5.4c0.7,1.8,1.4,3.7,2,5.5
				c0.6,1.8,1.3,3.7,1.8,5.6c-0.8-1.8-1.6-3.6-2.4-5.4c-0.8-1.8-1.5-3.6-2.2-5.4c-0.7-1.8-1.4-3.7-2-5.5
				C104.4,279,103.7,277.1,103.2,275.3z"/>
		</g>
		<g>
			<path class="st0" d="M100.8,275.9c0.9,1.8,1.6,3.6,2.4,5.4c0.8,1.8,1.5,3.6,2.2,5.5c0.7,1.8,1.4,3.7,2.1,5.5
				c0.7,1.9,1.3,3.7,1.9,5.6c-0.9-1.8-1.6-3.6-2.4-5.4c-0.8-1.8-1.5-3.6-2.2-5.5c-0.7-1.8-1.4-3.7-2.1-5.5
				C102,279.7,101.4,277.8,100.8,275.9z"/>
		</g>
		<g>
			<path class="st0" d="M98.8,276.7c0.8,1.8,1.6,3.6,2.4,5.4c0.8,1.8,1.5,3.6,2.2,5.5c0.7,1.8,1.4,3.7,2,5.5
				c0.6,1.8,1.3,3.7,1.8,5.6c-0.8-1.8-1.6-3.6-2.4-5.4c-0.8-1.8-1.5-3.6-2.2-5.5c-0.7-1.8-1.4-3.7-2-5.5
				C100,280.4,99.4,278.6,98.8,276.7z"/>
		</g>
		<g>
			<path class="st0" d="M96.6,277.3c0.9,1.8,1.6,3.6,2.4,5.4c0.8,1.8,1.5,3.6,2.2,5.5c0.7,1.8,1.4,3.7,2.1,5.5
				c0.7,1.9,1.3,3.7,1.9,5.6c-0.9-1.8-1.6-3.6-2.4-5.4c-0.8-1.8-1.5-3.6-2.2-5.5c-0.7-1.8-1.4-3.7-2.1-5.5
				C97.8,281.1,97.2,279.2,96.6,277.3z"/>
		</g>
		<g>
			<path class="st0" d="M94.6,277.6c0.9,1.8,1.6,3.7,2.4,5.5c0.8,1.8,1.5,3.7,2.2,5.6c0.7,1.9,1.4,3.7,2.1,5.6
				c0.7,1.9,1.3,3.8,1.9,5.7c-0.9-1.8-1.6-3.7-2.4-5.5c-0.8-1.8-1.5-3.7-2.2-5.6c-0.7-1.9-1.4-3.7-2.1-5.6
				C95.8,281.4,95.2,279.5,94.6,277.6z"/>
		</g>
		<g>
			<path class="st0" d="M92.8,278.4c0.9,1.8,1.6,3.6,2.4,5.4c0.8,1.8,1.5,3.6,2.2,5.4c0.7,1.8,1.4,3.7,2,5.5
				c0.7,1.8,1.3,3.7,1.9,5.6c-0.9-1.8-1.6-3.6-2.4-5.4c-0.8-1.8-1.5-3.6-2.2-5.4c-0.7-1.8-1.4-3.7-2-5.5
				C94,282.1,93.3,280.3,92.8,278.4z"/>
		</g>
		<g>
			<path class="st0" d="M90.2,279.6c0.9,1.8,1.8,3.5,2.6,5.3c0.8,1.8,1.6,3.6,2.4,5.4c0.8,1.8,1.5,3.6,2.3,5.5
				c0.7,1.8,1.4,3.7,2.1,5.6c-0.9-1.8-1.8-3.5-2.6-5.3c-0.8-1.8-1.6-3.6-2.4-5.4c-0.8-1.8-1.5-3.6-2.3-5.5
				C91.5,283.3,90.8,281.5,90.2,279.6z"/>
		</g>
		<g>
			<path class="st0" d="M225.8,352.1c-0.1,0.3-0.2,0.4-0.3,0.4c-0.1,0-0.2-0.1-0.3-0.4c0.1-0.3,0.2-0.4,0.3-0.4
				C225.6,351.7,225.7,351.8,225.8,352.1z"/>
		</g>
	</g>
	<g>
		<path class="st1" d="M14.1,282.5c0.9-0.3,1.7-0.8,2.6-1.3l2.6-1.3l5.1-2.7l10.3-5.3c6.9-3.5,13.9-6.7,20.9-9.9
			c7.1-3.1,14.2-6.1,21.5-8.6c3.7-1.2,7.3-2.4,11.1-3.4c3.7-0.9,7.6-1.7,11.4-1.6c-3.9,0.1-7.6,1-11.3,2c-3.7,1-7.3,2.3-10.9,3.6
			c-7.2,2.7-14.3,5.6-21.3,8.8c-7,3.1-14,6.4-21,9.7l-10.4,5l-5.2,2.5C17.6,281,15.9,281.9,14.1,282.5z"/>
	</g>
	<g>
		<path class="st1" d="M66,308.8c0.2,0.3,0.5,0.4,0.8,0.5c0.3,0.1,0.6,0.2,1,0.2c0.7,0.1,1.3,0.1,2,0.1c0.7,0,1.3,0,2-0.1l2-0.2
			c2.6-0.3,5.2-0.8,7.8-1.3c5.2-1.1,10.3-2.5,15.4-3.8c5.1-1.4,10.3-2.5,15.5-3.6c5.2-1,10.4-1.9,15.7-2.6
			c10.5-1.3,21.1-2.3,31.7-2.4c2.6,0,5.3,0,8,0.2l7.9,0.4c2.6,0.2,5.3,0.4,7.9,0.6c1.3,0.1,2.6,0.3,3.9,0.5c1.3,0.2,2.6,0.5,3.9,0.9
			c-1.3-0.4-2.6-0.6-3.9-0.8c-1.3-0.2-2.6-0.3-3.9-0.4c-2.6-0.2-5.3-0.3-7.9-0.4l-7.9-0.3c-2.6-0.1-5.3-0.1-7.9,0
			c-10.6,0.3-21.1,1.3-31.6,2.7c-5.2,0.7-10.4,1.5-15.6,2.5c-5.2,1-10.3,2.1-15.5,3.4c-5.1,1.3-10.3,2.6-15.5,3.6
			c-2.6,0.5-5.2,0.9-7.9,1.1l-2,0.1c-0.7,0-1.3,0-2,0c-0.7,0-1.3-0.1-2-0.2c-0.3-0.1-0.7-0.1-1-0.3C66.5,309.3,66.1,309.1,66,308.8z
			"/>
	</g>
	<path class="st0" d="M432.6,285.5c-1.7,0.3-107.9-68.7-115.9-22.9c0,0-1.3,14.9-4.3,17.4c0,0,12.4-11.8,38.1-2.1
		c25.7,9.7,65.2,31.2,65.2,31.2l-6.3-20.8L432.6,285.5z"/>
	<path class="st0" d="M378.1,307c1.2,0-8.7,9.4-8.7,12.8c0,3.5,2.7,9.4-3.7,9c-6.3-0.3-63.2-16-92.4-13.2
		c-22.1,2.1-34.9,7-41.6,13.2c0,0,8-15.6,10.4-21.9c2.3-6.2,0.3-10.8,4.7-11.1c4.3-0.3,48.7-4.7,87.9,5.6
		C373.9,311.8,371.8,307,378.1,307z"/>
	<g>
		<g>
			<g>
				<path class="st0" d="M257.2,321.1c0.8,1.6,1.4,3.4,1.9,5.1c0.5,1.7,1,3.5,1.2,5.3c-0.8-1.6-1.4-3.4-1.9-5.1
					C257.8,324.6,257.4,322.9,257.2,321.1z"/>
			</g>
			<g>
				<path class="st0" d="M259.4,322.9c0.7,1.2,1.1,2.5,1.5,3.8c0.4,1.3,0.7,2.6,0.8,4c-0.7-1.2-1.1-2.5-1.5-3.8
					C259.8,325.6,259.5,324.3,259.4,322.9z"/>
			</g>
			<g>
				<path class="st0" d="M255.5,320.2c0.9,1.9,1.5,3.9,2.1,5.9c0.6,2,1.1,4.1,1.4,6.2c-0.9-1.9-1.5-3.9-2.1-5.9
					C256.3,324.3,255.8,322.3,255.5,320.2z"/>
			</g>
			<g>
				<path class="st0" d="M254.1,319.9c0.9,2.1,1.5,4.2,2.1,6.4c0.6,2.2,1.1,4.3,1.4,6.6c-0.9-2.1-1.5-4.2-2.1-6.4
					C254.9,324.3,254.4,322.1,254.1,319.9z"/>
			</g>
			<g>
				<path class="st0" d="M253,320c0.8,2.2,1.4,4.4,2,6.6c0.5,2.2,1,4.5,1.3,6.8c-0.8-2.2-1.4-4.4-2-6.6
					C253.7,324.6,253.2,322.3,253,320z"/>
			</g>
			<g>
				<path class="st0" d="M251.4,320.3c0.9,2.2,1.5,4.5,2.1,6.7c0.6,2.3,1.1,4.6,1.4,6.9c-0.9-2.2-1.5-4.5-2.1-6.7
					C252.2,324.9,251.7,322.7,251.4,320.3z"/>
			</g>
			<g>
				<path class="st0" d="M250,320.7c0.8,2.2,1.5,4.5,2.1,6.8c0.6,2.3,1.1,4.6,1.3,7c-0.9-2.2-1.5-4.5-2.1-6.8
					C250.8,325.4,250.3,323,250,320.7z"/>
			</g>
			<g>
				<path class="st0" d="M248.5,321.1c0.8,2.2,1.5,4.5,2,6.9c0.5,2.3,1,4.6,1.3,7c-0.8-2.2-1.5-4.5-2-6.9
					C249.2,325.8,248.7,323.5,248.5,321.1z"/>
			</g>
			<g>
				<path class="st0" d="M247.2,321.5c0.8,2.2,1.4,4.4,2,6.7c0.5,2.3,1,4.5,1.3,6.9c-0.8-2.2-1.4-4.4-2-6.7
					C247.9,326.1,247.4,323.9,247.2,321.5z"/>
			</g>
			<g>
				<path class="st0" d="M245.8,322c0.8,2.3,1.4,4.6,2,6.9c0.5,2.3,1,4.7,1.3,7.1c-0.8-2.3-1.4-4.6-2-6.9
					C246.5,326.8,246,324.4,245.8,322z"/>
			</g>
			<g>
				<path class="st0" d="M244.8,322.5c0.8,2.2,1.3,4.4,1.8,6.7c0.5,2.3,0.9,4.5,1.1,6.9c-0.8-2.2-1.3-4.4-1.8-6.7
					C245.4,327.1,245,324.8,244.8,322.5z"/>
			</g>
			<g>
				<path class="st0" d="M243.5,322.9c0.8,2.2,1.3,4.4,1.9,6.6c0.5,2.2,0.9,4.5,1.1,6.8c-0.8-2.2-1.3-4.4-1.9-6.6
					C244.2,327.5,243.7,325.2,243.5,322.9z"/>
			</g>
			<g>
				<path class="st0" d="M242.1,323.8c0.8,2.1,1.3,4.2,1.8,6.3c0.5,2.1,0.9,4.3,1,6.5c-0.8-2.1-1.3-4.2-1.8-6.3
					C242.6,328.1,242.2,326,242.1,323.8z"/>
			</g>
			<g>
				<path class="st0" d="M240.8,324.2c0.8,2.1,1.3,4.2,1.8,6.3c0.5,2.1,0.9,4.3,1.1,6.4c-0.8-2.1-1.3-4.2-1.8-6.3
					C241.4,328.5,241,326.4,240.8,324.2z"/>
			</g>
			<g>
				<path class="st0" d="M239.7,325.1c0.7,2,1.2,4,1.6,6c0.4,2,0.7,4,0.8,6.1c-0.7-2-1.2-4-1.6-6
					C240.2,329.2,239.8,327.2,239.7,325.1z"/>
			</g>
			<g>
				<path class="st0" d="M238.5,325.9c0.7,1.9,1.1,3.7,1.5,5.7c0.4,1.9,0.7,3.8,0.7,5.8c-0.7-1.9-1.1-3.7-1.5-5.7
					C238.9,329.8,238.6,327.8,238.5,325.9z"/>
			</g>
			<g>
				<path class="st0" d="M237.3,326.5c0.7,1.8,1.1,3.6,1.5,5.4c0.4,1.8,0.7,3.6,0.7,5.5c-0.7-1.8-1.1-3.6-1.5-5.4
					C237.7,330.2,237.4,328.4,237.3,326.5z"/>
			</g>
			<g>
				<path class="st0" d="M236.2,327.4c0.6,1.6,1,3.3,1.4,4.9c0.3,1.7,0.6,3.3,0.6,5.1c-0.6-1.6-1-3.3-1.4-4.9
					C236.5,330.8,236.2,329.1,236.2,327.4z"/>
			</g>
			<g>
				<path class="st0" d="M235,328.3c0.6,1.5,0.9,3,1.2,4.5c0.3,1.5,0.5,3,0.5,4.6c-0.6-1.5-0.9-3-1.2-4.5
					C235.3,331.4,235,329.9,235,328.3z"/>
			</g>
			<g>
				<path class="st0" d="M233.9,329.3c0.6,1.3,0.9,2.6,1.2,3.9c0.3,1.3,0.5,2.7,0.5,4.1c-0.6-1.3-0.9-2.6-1.2-3.9
					C234.1,332,233.9,330.7,233.9,329.3z"/>
			</g>
			<g>
				<path class="st0" d="M232.9,330.3c0.5,1.1,0.8,2.2,1,3.3c0.2,1.1,0.4,2.3,0.3,3.5c-0.5-1.1-0.8-2.2-1-3.3
					C233,332.6,232.9,331.5,232.9,330.3z"/>
			</g>
			<g>
				<path class="st0" d="M231.9,331.8c0.4,0.7,0.6,1.5,0.8,2.3c0.1,0.8,0.2,1.6,0,2.4c-0.4-0.7-0.6-1.5-0.8-2.3
					C231.8,333.4,231.7,332.6,231.9,331.8z"/>
			</g>
		</g>
		<g>
			<g>
				<path class="st0" d="M376.9,302c0,0.8-0.1,1.5-0.4,2.2c-0.2,0.7-0.5,1.4-1.1,2c0-0.8,0.1-1.5,0.4-2.2
					C376.1,303.3,376.4,302.6,376.9,302z"/>
			</g>
			<g>
				<path class="st0" d="M375.4,299.3c-0.1,1.3-0.5,2.6-0.9,3.8c-0.4,1.2-0.9,2.4-1.6,3.6c0.1-1.3,0.5-2.6,0.9-3.8
					C374.2,301.7,374.7,300.4,375.4,299.3z"/>
			</g>
			<g>
				<path class="st0" d="M374.1,297.7c-0.4,1.6-0.9,3.1-1.5,4.5c-0.6,1.5-1.3,2.9-2.2,4.2c0.4-1.6,0.9-3.1,1.5-4.5
					C372.5,300.5,373.2,299,374.1,297.7z"/>
			</g>
			<g>
				<path class="st0" d="M372.6,295c-0.5,2.1-1.3,4.1-2.1,6.1c-0.8,2-1.7,4-2.8,5.9c0.5-2.1,1.3-4.1,2.1-6.1
					C370.6,298.8,371.5,296.8,372.6,295z"/>
			</g>
			<g>
				<path class="st0" d="M371.2,293.5c-0.7,2.4-1.7,4.6-2.7,6.8c-1,2.2-2.1,4.4-3.4,6.5c0.7-2.4,1.7-4.6,2.7-6.8
					C368.8,297.9,369.9,295.7,371.2,293.5z"/>
			</g>
			<g>
				<path class="st0" d="M369.3,292c-0.4,1.3-0.9,2.5-1.3,3.7c-0.5,1.2-1,2.4-1.5,3.7c-0.5,1.2-1.1,2.4-1.7,3.6
					c-0.6,1.2-1.2,2.4-1.9,3.5c0.4-1.3,0.9-2.5,1.3-3.7c0.5-1.2,1-2.4,1.5-3.7c0.5-1.2,1.1-2.4,1.7-3.6
					C368,294.4,368.6,293.2,369.3,292z"/>
			</g>
			<g>
				<path class="st0" d="M368.1,290.4c-0.5,1.4-1.1,2.7-1.7,4.1c-0.6,1.3-1.2,2.7-1.9,4c-0.7,1.3-1.3,2.6-2,3.9
					c-0.7,1.3-1.4,2.6-2.2,3.8c0.5-1.4,1.1-2.7,1.7-4.1c0.6-1.3,1.2-2.7,1.9-4c0.7-1.3,1.3-2.6,2-3.9
					C366.6,292.9,367.3,291.7,368.1,290.4z"/>
			</g>
			<g>
				<path class="st0" d="M366.2,288.7c-0.5,1.5-1.1,3-1.8,4.4c-0.6,1.5-1.3,2.9-1.9,4.3c-0.7,1.4-1.4,2.8-2.1,4.2
					c-0.7,1.4-1.5,2.8-2.3,4.2c0.5-1.5,1.1-3,1.8-4.4c0.6-1.5,1.3-2.9,1.9-4.3c0.7-1.4,1.4-2.8,2.1-4.2
					C364.6,291.5,365.4,290.1,366.2,288.7z"/>
			</g>
			<g>
				<path class="st0" d="M364.2,287.5c-0.5,1.5-1.2,3-1.8,4.5c-0.6,1.5-1.3,3-2,4.5c-0.7,1.5-1.4,2.9-2.1,4.4
					c-0.7,1.4-1.5,2.9-2.3,4.3c0.5-1.5,1.2-3,1.8-4.5c0.6-1.5,1.3-3,2-4.5c0.7-1.5,1.4-2.9,2.1-4.4
					C362.6,290.4,363.4,288.9,364.2,287.5z"/>
			</g>
			<g>
				<path class="st0" d="M362.1,286.1c-0.6,1.6-1.3,3.2-2,4.8c-0.7,1.6-1.4,3.2-2.2,4.8c-0.8,1.6-1.5,3.1-2.3,4.7
					c-0.8,1.5-1.6,3.1-2.5,4.6c0.6-1.6,1.3-3.2,2-4.8c0.7-1.6,1.4-3.2,2.2-4.8c0.8-1.6,1.5-3.1,2.3-4.7
					C360.4,289.2,361.2,287.6,362.1,286.1z"/>
			</g>
			<g>
				<path class="st0" d="M360.3,285.1c-0.6,1.7-1.3,3.3-2,4.9c-0.7,1.6-1.4,3.2-2.2,4.8c-0.8,1.6-1.5,3.2-2.3,4.7
					c-0.8,1.6-1.6,3.1-2.5,4.6c0.6-1.7,1.3-3.3,2-4.9c0.7-1.6,1.4-3.2,2.2-4.8c0.8-1.6,1.5-3.2,2.3-4.7
					C358.6,288.2,359.4,286.6,360.3,285.1z"/>
			</g>
			<g>
				<path class="st0" d="M358.4,283.8c-0.7,1.7-1.4,3.4-2.1,5.1c-0.7,1.7-1.5,3.4-2.3,5c-0.8,1.7-1.6,3.3-2.5,4.9
					c-0.9,1.6-1.7,3.3-2.6,4.9c0.7-1.7,1.4-3.4,2.1-5.1c0.7-1.7,1.5-3.4,2.3-5c0.8-1.7,1.6-3.3,2.5-4.9
					C356.6,287,357.4,285.4,358.4,283.8z"/>
			</g>
			<g>
				<path class="st0" d="M356.8,282.4c-0.7,1.8-1.5,3.5-2.2,5.3c-0.8,1.7-1.6,3.5-2.4,5.2c-0.8,1.7-1.7,3.4-2.6,5.1
					c-0.9,1.7-1.8,3.4-2.8,5c0.7-1.8,1.5-3.5,2.2-5.3c0.8-1.7,1.6-3.5,2.4-5.2c0.8-1.7,1.7-3.4,2.6-5.1
					C354.9,285.8,355.8,284.1,356.8,282.4z"/>
			</g>
			<g>
				<path class="st0" d="M355,281.5c-0.7,1.8-1.5,3.6-2.3,5.4c-0.8,1.8-1.6,3.6-2.5,5.3c-0.9,1.8-1.7,3.5-2.6,5.2
					c-0.9,1.7-1.8,3.5-2.8,5.2c0.7-1.8,1.5-3.6,2.3-5.4c0.8-1.8,1.6-3.6,2.5-5.3c0.9-1.8,1.7-3.5,2.6-5.2
					C353.1,284.9,354,283.2,355,281.5z"/>
			</g>
			<g>
				<path class="st0" d="M352.4,280.3c-0.6,1.9-1.4,3.7-2.1,5.5c-0.7,1.8-1.5,3.7-2.3,5.5c-0.8,1.8-1.6,3.6-2.4,5.4
					c-0.8,1.8-1.7,3.6-2.6,5.3c0.6-1.9,1.4-3.7,2.1-5.5c0.7-1.8,1.5-3.7,2.3-5.5c0.8-1.8,1.6-3.6,2.4-5.4
					C350.6,283.9,351.5,282.1,352.4,280.3z"/>
			</g>
			<g>
				<path class="st0" d="M318.1,277.2c-0.3,1.6-0.9,3.1-1.5,4.7c-0.6,1.5-1.3,3-2.2,4.4c0.3-1.6,0.9-3.1,1.5-4.7
					C316.5,280,317.2,278.6,318.1,277.2z"/>
			</g>
			<g>
				<path class="st0" d="M315.1,278.4c-0.2,1.2-0.5,2.3-1,3.4c-0.4,1.1-1,2.1-1.7,3.1c0.2-1.2,0.5-2.3,1-3.4
					C313.9,280.4,314.4,279.3,315.1,278.4z"/>
			</g>
			<g>
				<path class="st0" d="M320.6,276.3c-0.5,2.1-1.3,4-2.1,6c-0.8,1.9-1.7,3.9-2.8,5.7c0.5-2.1,1.3-4,2.1-6
					C318.6,280.1,319.5,278.2,320.6,276.3z"/>
			</g>
			<g>
				<path class="st0" d="M322.8,275.6c-0.6,2.4-1.4,4.8-2.3,7.2c-0.9,2.3-1.8,4.7-3,6.9c0.6-2.4,1.4-4.8,2.3-7.2
					C320.7,280.2,321.6,277.8,322.8,275.6z"/>
			</g>
			<g>
				<path class="st0" d="M325.6,275.3c-0.4,1.4-0.9,2.7-1.4,4.1c-0.5,1.4-1,2.7-1.5,4c-0.6,1.3-1.1,2.6-1.7,3.9
					c-0.6,1.3-1.2,2.6-1.9,3.9c0.4-1.4,0.9-2.7,1.4-4.1c0.5-1.4,1-2.7,1.5-4c0.6-1.3,1.1-2.6,1.7-3.9
					C324.3,277.8,324.9,276.5,325.6,275.3z"/>
			</g>
			<g>
				<path class="st0" d="M327.3,275.1c-0.4,1.5-0.9,3-1.3,4.5c-0.5,1.5-1,3-1.5,4.4c-0.5,1.5-1.1,2.9-1.7,4.4
					c-0.6,1.4-1.2,2.9-1.9,4.3c0.4-1.5,0.9-3,1.3-4.5c0.5-1.5,1-3,1.5-4.4c0.5-1.5,1.1-2.9,1.7-4.4
					C326.1,277.9,326.7,276.5,327.3,275.1z"/>
			</g>
			<g>
				<path class="st0" d="M329.9,275c-0.5,1.7-1,3.3-1.5,4.9c-0.5,1.6-1.1,3.2-1.7,4.9c-0.6,1.6-1.2,3.2-1.9,4.8
					c-0.7,1.6-1.3,3.2-2.1,4.7c0.4-1.7,1-3.3,1.5-4.9c0.5-1.6,1.1-3.2,1.7-4.9c0.6-1.6,1.2-3.2,1.9-4.8
					C328.5,278.1,329.2,276.6,329.9,275z"/>
			</g>
			<g>
				<path class="st0" d="M331.8,275c-0.5,1.8-1,3.5-1.5,5.2c-0.5,1.7-1.1,3.4-1.7,5.1c-0.6,1.7-1.2,3.4-1.9,5.1
					c-0.7,1.7-1.3,3.4-2.1,5c0.4-1.8,1-3.5,1.5-5.2c0.5-1.7,1.1-3.4,1.7-5.1c0.6-1.7,1.2-3.4,1.9-5.1
					C330.4,278.3,331.1,276.7,331.8,275z"/>
			</g>
			<g>
				<path class="st0" d="M334.3,275.3c-0.5,1.8-1.1,3.6-1.7,5.4c-0.6,1.8-1.2,3.5-1.8,5.3c-0.7,1.8-1.3,3.5-2,5.2
					c-0.7,1.7-1.4,3.5-2.2,5.2c0.5-1.8,1.1-3.6,1.7-5.4c0.6-1.8,1.2-3.5,1.8-5.3c0.7-1.8,1.3-3.5,2-5.2
					C332.8,278.7,333.6,277,334.3,275.3z"/>
			</g>
			<g>
				<path class="st0" d="M336.8,275.3c-0.6,1.9-1.2,3.7-1.8,5.6c-0.6,1.8-1.3,3.7-2,5.5c-0.7,1.8-1.4,3.6-2.2,5.4
					c-0.8,1.8-1.5,3.6-2.4,5.4c0.6-1.9,1.2-3.7,1.8-5.6c0.6-1.8,1.3-3.7,2-5.5c0.7-1.8,1.4-3.6,2.2-5.4
					C335.2,278.8,336,277,336.8,275.3z"/>
			</g>
			<g>
				<path class="st0" d="M339.2,275.9c-0.6,1.9-1.2,3.7-1.9,5.6c-0.7,1.9-1.4,3.7-2.1,5.5c-0.7,1.8-1.5,3.7-2.2,5.5
					c-0.8,1.8-1.6,3.6-2.4,5.4c0.6-1.9,1.2-3.7,1.9-5.6c0.7-1.9,1.4-3.7,2.1-5.5c0.7-1.8,1.5-3.7,2.2-5.5
					C337.6,279.5,338.3,277.7,339.2,275.9z"/>
			</g>
			<g>
				<path class="st0" d="M341.2,276.7c-0.6,1.9-1.2,3.7-1.8,5.6c-0.6,1.9-1.3,3.7-2,5.5c-0.7,1.8-1.4,3.6-2.2,5.5
					c-0.8,1.8-1.5,3.6-2.4,5.4c0.6-1.9,1.2-3.7,1.8-5.6c0.6-1.9,1.3-3.7,2-5.5c0.7-1.8,1.4-3.6,2.2-5.5
					C339.6,280.3,340.3,278.5,341.2,276.7z"/>
			</g>
			<g>
				<path class="st0" d="M343.4,277.3c-0.6,1.9-1.2,3.7-1.9,5.6c-0.6,1.9-1.3,3.7-2.1,5.5c-0.7,1.8-1.4,3.7-2.2,5.5
					c-0.8,1.8-1.5,3.6-2.4,5.4c0.6-1.9,1.2-3.7,1.9-5.6c0.6-1.9,1.3-3.7,2.1-5.5c0.7-1.8,1.4-3.7,2.2-5.5
					C341.7,280.9,342.5,279.1,343.4,277.3z"/>
			</g>
			<g>
				<path class="st0" d="M345.4,277.6c-0.6,1.9-1.2,3.8-1.9,5.7c-0.6,1.9-1.3,3.8-2.1,5.6c-0.7,1.9-1.4,3.7-2.2,5.6
					c-0.8,1.8-1.5,3.7-2.4,5.5c0.6-1.9,1.2-3.8,1.9-5.7c0.6-1.9,1.3-3.8,2.1-5.6c0.7-1.9,1.4-3.7,2.2-5.6
					C343.8,281.3,344.5,279.4,345.4,277.6z"/>
			</g>
			<g>
				<path class="st0" d="M347.2,278.4c-0.6,1.9-1.2,3.7-1.9,5.6c-0.6,1.8-1.3,3.7-2,5.5c-0.7,1.8-1.4,3.6-2.2,5.4
					c-0.8,1.8-1.5,3.6-2.4,5.4c0.6-1.9,1.2-3.7,1.9-5.6c0.6-1.8,1.3-3.7,2-5.5c0.7-1.8,1.4-3.6,2.2-5.4
					C345.6,282,346.4,280.2,347.2,278.4z"/>
			</g>
			<g>
				<path class="st0" d="M349.8,279.6c-0.6,1.9-1.4,3.7-2.1,5.6c-0.7,1.8-1.5,3.7-2.3,5.5c-0.8,1.8-1.6,3.6-2.4,5.4
					c-0.8,1.8-1.7,3.6-2.6,5.3c0.6-1.9,1.4-3.7,2.1-5.6c0.7-1.8,1.5-3.7,2.3-5.5c0.8-1.8,1.6-3.6,2.4-5.4
					C348.1,283.2,348.9,281.4,349.8,279.6z"/>
			</g>
		</g>
	</g>
	<line class="st0" x1="214.2" y1="352.1" x2="214.8" y2="352.1"/>
	<g>
		<path class="st1" d="M425.9,282.5c-1.8-0.6-3.5-1.5-5.3-2.4l-5.2-2.5l-10.4-5c-7-3.3-13.9-6.6-21-9.7c-7-3.2-14.1-6.1-21.3-8.8
			c-3.6-1.3-7.2-2.6-10.9-3.6c-3.7-1-7.5-1.9-11.3-2c3.9-0.1,7.7,0.7,11.4,1.6c3.7,0.9,7.4,2.1,11.1,3.4c7.3,2.5,14.4,5.5,21.5,8.6
			c7,3.2,14,6.5,20.9,9.9l10.3,5.3l5.1,2.7l2.6,1.3C424.2,281.7,425,282.2,425.9,282.5z"/>
	</g>
	<g>
		<path class="st1" d="M374,308.8c-0.2,0.3-0.5,0.5-0.8,0.6c-0.3,0.1-0.6,0.2-1,0.3c-0.7,0.1-1.3,0.2-2,0.2c-0.7,0-1.3,0-2,0l-2-0.1
			c-2.6-0.3-5.3-0.6-7.9-1.1c-5.2-1-10.3-2.3-15.5-3.6c-5.1-1.3-10.3-2.4-15.5-3.4c-5.2-1-10.4-1.8-15.6-2.5
			c-10.5-1.4-21-2.3-31.6-2.7c-2.6-0.1-5.3-0.1-7.9,0l-7.9,0.3c-2.6,0.1-5.3,0.2-7.9,0.4c-1.3,0.1-2.6,0.2-3.9,0.4
			c-1.3,0.2-2.6,0.4-3.9,0.8c1.2-0.5,2.6-0.7,3.9-0.9c1.3-0.2,2.6-0.4,3.9-0.5c2.6-0.3,5.3-0.5,7.9-0.6l7.9-0.4
			c2.6-0.2,5.3-0.2,8-0.2c10.6,0.2,21.2,1.1,31.7,2.4c5.2,0.7,10.5,1.6,15.7,2.6c5.2,1.1,10.4,2.2,15.5,3.6
			c5.1,1.4,10.2,2.8,15.4,3.8c2.6,0.6,5.2,1,7.8,1.3l2,0.2c0.7,0,1.3,0.1,2,0.1c0.7,0,1.3,0,2-0.1c0.3-0.1,0.6-0.1,1-0.2
			C373.5,309.3,373.9,309.1,374,308.8z"/>
	</g>
	<g>
		<path class="st1" d="M182.8,334.5c2.9,1.5,6,2.6,9.1,3.5c1.6,0.5,3.1,0.9,4.7,1.3l2.4,0.6l2.4,0.4c6.4,1.2,12.9,1.7,19.4,1.6
			c1.6-0.1,3.2-0.2,4.9-0.2c0.8-0.1,1.6-0.1,2.4-0.1l2.4-0.3c1.6-0.2,3.2-0.4,4.8-0.6l4.8-0.9l2.4-0.4l2.4-0.6l4.7-1.2
			c3.1-0.9,6.2-2,9.3-2.9l-4.6,1.7l-2.3,0.9c-0.8,0.3-1.5,0.6-2.3,0.8l-4.7,1.4l-2.4,0.7l-2.4,0.5l-4.8,1c-1.6,0.3-3.2,0.4-4.9,0.7
			l-2.4,0.3c-0.8,0.1-1.6,0.1-2.5,0.2c-1.6,0.1-3.3,0.2-4.9,0.3c-6.6,0-13.1-0.5-19.6-1.8C194.9,339.7,188.5,337.7,182.8,334.5z"/>
	</g>
	<g>
		<path class="st0" d="M174.7,178.5c0-12.8,0-15.2-0.2-17.9c-0.2-2.9-0.8-4.2-3.6-4.8c-0.7-0.2-2.1-0.3-3.3-0.3
			c-0.9,0-1.4-0.2-1.4-0.8c0-0.6,0.6-0.8,1.9-0.8c4.5,0,9.8,0.3,12.2,0.3c3.5,0,8.4-0.3,12.2-0.3c10.5,0,14.3,3.5,15.7,4.8
			c1.9,1.8,4.2,5.6,4.2,10c0,12-8.8,20.4-20.8,20.4c-0.4,0-1.4,0-1.8-0.1s-1-0.2-1-0.8c0-0.7,0.6-0.9,2.4-0.9
			c4.7,0,11.3-5.3,11.3-13.9c0-2.8-0.3-8.4-5-12.7c-3-2.8-6.5-3.3-8.4-3.3c-1.3,0-2.5,0.1-3.3,0.3c-0.4,0.2-0.7,0.7-0.7,1.6v33.8
			c0,7.8,0,14.4,0.4,18.1c0.3,2.4,0.8,4.2,3.3,4.6c1.2,0.2,3,0.3,4.3,0.3c0.9,0,1.4,0.3,1.4,0.7c0,0.6-0.7,0.8-1.6,0.8
			c-5.6,0-10.9-0.3-13.1-0.3c-1.9,0-7.3,0.3-10.6,0.3c-1.1,0-1.7-0.3-1.7-0.8c0-0.4,0.3-0.7,1.4-0.7c1.3,0,2.3-0.2,3-0.3
			c1.7-0.3,2.1-2.2,2.4-4.6c0.4-3.5,0.4-10.2,0.4-18V178.5z"/>
		<path class="st0" d="M230,178.5c0-12.8,0-15.2-0.2-17.9c-0.2-2.9-0.8-4.2-3.6-4.8c-0.7-0.2-2.1-0.3-3.3-0.3
			c-0.9,0-1.4-0.2-1.4-0.8c0-0.6,0.6-0.8,1.9-0.8c4.5,0,9.8,0.3,11.6,0.3c2.9,0,9.3-0.3,11.9-0.3c5.3,0,11,0.5,15.5,3.6
			c2.4,1.6,5.7,5.9,5.7,11.6c0,6.2-2.6,12-11.1,18.9c7.5,9.5,13.3,17,18.3,22.2c4.7,4.9,8.2,5.5,9.5,5.7c0.9,0.2,1.7,0.3,2.4,0.3
			c0.7,0,1,0.3,1,0.7c0,0.7-0.6,0.8-1.6,0.8h-8c-4.7,0-6.8-0.4-9-1.6c-3.6-1.9-6.8-5.9-11.6-12.4c-3.4-4.6-7.3-10.4-8.4-11.6
			c-0.4-0.5-0.9-0.6-1.5-0.6l-7.3-0.2c-0.4,0-0.7,0.2-0.7,0.7v1.2c0,7.8,0,14.5,0.4,18.1c0.3,2.4,0.8,4.3,3.3,4.6
			c1.3,0.2,3.1,0.3,4.1,0.3c0.7,0,1,0.3,1,0.7c0,0.6-0.6,0.8-1.7,0.8c-4.9,0-11.1-0.3-12.4-0.3c-1.6,0-6.9,0.3-10.3,0.3
			c-1.1,0-1.7-0.3-1.7-0.8c0-0.4,0.3-0.7,1.3-0.7c1.3,0,2.3-0.2,3-0.3c1.7-0.3,2.1-2.2,2.4-4.6c0.4-3.5,0.4-10.2,0.4-18V178.5z
			 M239.9,185.1c0,0.9,0.2,1.3,0.8,1.5c1.8,0.6,4.3,0.8,6.4,0.8c3.4,0,4.5-0.3,6-1.4c2.5-1.9,5-5.7,5-12.7c0-12-7.9-15.4-12.9-15.4
			c-2.1,0-3.6,0.1-4.5,0.3c-0.6,0.2-0.8,0.5-0.8,1.2V185.1z"/>
	</g>
	<g>
		<path class="st0" d="M92.7,390.1c0-5.8,0-6.9-0.1-8.1c-0.1-1.3-0.4-1.9-1.6-2.1c-0.3-0.1-0.9-0.1-1.3-0.1c-0.1,0-0.3-0.1-0.3-0.2
			c0-0.2,0.2-0.3,0.6-0.3c1.7,0,3.9,0.1,4.2,0.1c0.8,0,3-0.1,4.7-0.1c4.7,0,6.4,1.6,7,2.1c0.8,0.8,1.9,2.5,1.9,4.5
			c0,5.3-3.9,8.9-9.2,8.9c-0.2,0-0.6,0-0.8,0c-0.2,0-0.4-0.1-0.4-0.3c0-0.3,0.2-0.3,1-0.3c3.6,0,6.5-2.7,6.5-6.1
			c0-1.2-0.1-3.7-2.1-5.8s-4.3-1.9-5.1-1.9c-0.6,0-1.3,0.1-1.6,0.2c-0.2,0.1-0.3,0.3-0.3,0.7v15.4c0,3.6,0,6.5,0.2,8.1
			c0.1,1.1,0.3,1.9,1.5,2.1c0.5,0.1,1.3,0.2,1.7,0.2c0.2,0,0.3,0.1,0.3,0.2c0,0.2-0.2,0.3-0.6,0.3c-2.1,0-4.4-0.1-4.6-0.1
			c-0.1,0-2.5,0.1-3.6,0.1c-0.4,0-0.6-0.1-0.6-0.3c0-0.1,0.1-0.2,0.3-0.2c0.3,0,0.8-0.1,1.1-0.2c0.7-0.1,0.9-1,1.1-2.1
			c0.2-1.6,0.2-4.5,0.2-8.1V390.1z"/>
		<path class="st0" d="M119,384.2c0.4-1,0.6-1.2,0.8-1.2c0.3,0,0.4,0.4,0.8,1.2c0.6,1.3,5.9,14.5,7.9,19.3c1.2,2.8,2.1,3.3,2.8,3.5
			c0.5,0.2,1,0.2,1.3,0.2c0.2,0,0.4,0.1,0.4,0.3s-0.4,0.3-0.7,0.3c-0.5,0-2.9,0-5.2-0.1c-0.6,0-1.2,0-1.2-0.2c0-0.2,0.1-0.2,0.2-0.2
			c0.2-0.1,0.5-0.3,0.3-0.9l-3-7.3c-0.1-0.1-0.1-0.2-0.3-0.2h-7.6c-0.1,0-0.3,0.1-0.3,0.3l-1.9,5.1c-0.3,0.8-0.5,1.6-0.5,2.1
			c0,0.6,0.6,0.9,1.1,0.9h0.3c0.3,0,0.3,0.1,0.3,0.3c0,0.2-0.2,0.3-0.5,0.3c-0.8,0-2.6-0.1-3-0.1c-0.3,0-2,0.1-3.3,0.1
			c-0.4,0-0.6-0.1-0.6-0.3c0-0.2,0.1-0.3,0.3-0.3c0.2,0,0.7,0,1-0.1c1.5-0.2,2.1-1.3,2.8-2.9L119,384.2z M122.7,397.4
			c0.1,0,0.1-0.1,0.1-0.2l-3.3-8.7c-0.2-0.5-0.4-0.5-0.6,0l-3.1,8.7c0,0.1,0,0.2,0.1,0.2H122.7z"/>
		<path class="st0" d="M140.4,398.4c0,4.7,0.1,6.6,0.7,7.1c0.5,0.5,1.8,0.8,4.4,0.8c1.7,0,3.2,0,4-1c0.4-0.5,0.7-1.2,0.8-1.8
			c0-0.2,0.1-0.4,0.3-0.4c0.1,0,0.2,0.1,0.2,0.5c0,0.3-0.2,2.2-0.5,3.2c-0.2,0.7-0.3,0.9-2.1,0.9c-2.4,0-4.2,0-5.7-0.1
			c-1.5,0-2.6-0.1-3.6-0.1c-0.1,0-0.7,0-1.3,0c-0.7,0-1.4,0.1-1.9,0.1c-0.3,0-0.5-0.1-0.5-0.3c0-0.1,0.1-0.3,0.3-0.3
			c0.3,0,0.7-0.1,1-0.2c0.6-0.1,0.7-0.7,0.9-1.7c0.2-1.3,0.2-3.8,0.2-6.9v-5.6c0-4.9,0-5.8-0.1-6.8c-0.1-1.1-0.3-1.6-1.3-1.8
			c-0.3,0-0.8-0.1-1.1-0.1c-0.1,0-0.3-0.2-0.3-0.3c0-0.2,0.1-0.3,0.5-0.3c1.5,0,3.6,0.1,3.7,0.1c0.1,0,2.6-0.1,3.6-0.1
			c0.3,0,0.5,0.1,0.5,0.3c0,0.1-0.1,0.2-0.3,0.2c-0.2,0-0.7,0-1.1,0.1c-1,0.2-1.2,0.7-1.2,1.8c0,1,0,1.9,0,6.8V398.4z"/>
		<path class="st0" d="M162.8,384.2c0.4-1,0.6-1.2,0.8-1.2c0.3,0,0.4,0.4,0.8,1.2c0.6,1.3,5.9,14.5,7.9,19.3
			c1.2,2.8,2.1,3.3,2.8,3.5c0.5,0.2,1,0.2,1.3,0.2c0.2,0,0.4,0.1,0.4,0.3s-0.4,0.3-0.7,0.3c-0.5,0-2.9,0-5.2-0.1
			c-0.6,0-1.2,0-1.2-0.2c0-0.2,0.1-0.2,0.2-0.2c0.2-0.1,0.5-0.3,0.3-0.9l-3-7.3c-0.1-0.1-0.1-0.2-0.3-0.2h-7.6
			c-0.1,0-0.3,0.1-0.3,0.3l-1.9,5.1c-0.3,0.8-0.5,1.6-0.5,2.1c0,0.6,0.6,0.9,1.1,0.9h0.3c0.3,0,0.3,0.1,0.3,0.3
			c0,0.2-0.2,0.3-0.5,0.3c-0.8,0-2.6-0.1-3-0.1c-0.3,0-2,0.1-3.3,0.1c-0.4,0-0.6-0.1-0.6-0.3c0-0.2,0.1-0.3,0.3-0.3
			c0.2,0,0.7,0,1-0.1c1.5-0.2,2.1-1.3,2.8-2.9L162.8,384.2z M166.4,397.4c0.1,0,0.1-0.1,0.1-0.2l-3.3-8.7c-0.2-0.5-0.4-0.5-0.6,0
			l-3.1,8.7c0,0.1,0,0.2,0.1,0.2H166.4z"/>
		<path class="st0" d="M181.4,404.6c-3.2-2.8-4-6.4-4-9.4c0-2.1,0.8-5.8,3.7-8.7c2-1.9,5-3.4,10-3.4c1.3,0,3.2,0.1,4.8,0.4
			c1.2,0.2,2.3,0.4,3.4,0.5c0.3,0,0.4,0.1,0.4,0.3c0,0.3-0.1,0.6-0.1,1.8c0,1,0,2.8-0.1,3.3c0,0.5-0.2,0.7-0.4,0.7
			c-0.2,0-0.3-0.2-0.3-0.7c0-1.2-0.5-2.5-1.4-3.2c-1.2-1-3.6-1.8-6.5-1.8c-4.2,0-6.3,1.1-7.4,2.2c-2.4,2.2-3,5.1-3,8.3
			c0,6.1,4.8,11.5,11.9,11.5c2.5,0,4.1-0.2,5.4-1.5c0.7-0.7,1.2-2.1,1.3-2.7c0.1-0.3,0.1-0.4,0.3-0.4c0.1,0,0.3,0.2,0.3,0.4
			s-0.4,3-0.8,4.1c-0.2,0.6-0.3,0.7-0.8,0.9c-1.3,0.5-3.8,0.7-6,0.7C187.3,408,183.9,406.8,181.4,404.6z"/>
		<path class="st0" d="M210.6,398.3c0,3.1,0,5.6,0.1,6.9c0.1,0.9,0.2,1.5,1.2,1.7c0.5,0.1,1.2,0.2,1.5,0.2c0.2,0,0.3,0.2,0.3,0.3
			c0,0.2-0.1,0.3-0.5,0.3c-1.8,0-4-0.1-4.1-0.1c-0.2,0-2.2,0.1-3.3,0.1c-0.3,0-0.5-0.1-0.5-0.3c0-0.1,0.1-0.3,0.3-0.3
			c0.3,0,0.7-0.1,1-0.2c0.6-0.1,0.7-0.7,0.9-1.7c0.1-1.3,0.2-3.8,0.2-6.9v-5.6c0-4.9,0-5.8-0.1-6.8c-0.1-1.1-0.3-1.6-1-1.7
			c-0.4-0.1-0.8-0.1-1-0.1c-0.1,0-0.3-0.2-0.3-0.3c0-0.2,0.1-0.3,0.5-0.3c1.1,0,3.1,0.1,3.3,0.1c0.1,0,2.3-0.1,3.3-0.1
			c0.4,0,0.5,0.1,0.5,0.3c0,0.1-0.1,0.3-0.3,0.3c-0.2,0-0.4,0-0.8,0.1c-0.9,0.2-1.1,0.6-1.2,1.8c0,1,0,1.9,0,6.8V398.3z"/>
		<path class="st0" d="M231,383.1c7.4,0,13,4.5,13,11.9c0,7.1-5.3,13-13.2,13c-9,0-12.9-6.8-12.9-12.5
			C217.9,390.4,221.9,383.1,231,383.1z M231.7,406.7c3,0,8.9-1.6,8.9-10.8c0-7.6-4.6-11.6-9.8-11.6c-5.5,0-9.5,3.4-9.5,10.4
			C221.3,402,225.8,406.7,231.7,406.7z"/>
		<path class="st0" d="M264.9,390.1c0-5.8,0-6.9-0.1-8.1c-0.1-1.3-0.4-1.9-1.6-2.1c-0.3-0.1-0.9-0.1-1.3-0.1c-0.1,0-0.3-0.1-0.3-0.2
			c0-0.2,0.2-0.3,0.6-0.3c1.7,0,4,0.1,4.2,0.1c0.4,0,3.3-0.1,4.4-0.1c2.4,0,4.9,0.2,6.8,1.6c0.9,0.7,2.6,2.5,2.6,5.1
			c0,2.8-1.2,5.5-4.5,8.6c3.1,3.9,5.6,7.3,7.8,9.6c2,2.1,3.6,2.5,4.6,2.7c0.7,0.1,1.2,0.1,1.5,0.1c0.2,0,0.3,0.1,0.3,0.2
			c0,0.2-0.2,0.3-0.9,0.3h-2.7c-2.1,0-3-0.2-4-0.7c-1.6-0.9-2.9-2.7-5.1-5.5c-1.6-2.1-3.3-4.6-4.1-5.5c-0.2-0.2-0.3-0.2-0.5-0.2
			l-4.6-0.1c-0.2,0-0.3,0.1-0.3,0.3v0.9c0,3.6,0,6.5,0.2,8.1c0.1,1.1,0.3,1.9,1.5,2.1c0.5,0.1,1.3,0.2,1.7,0.2
			c0.2,0,0.3,0.1,0.3,0.2c0,0.2-0.2,0.3-0.6,0.3c-2.1,0-4.4-0.1-4.6-0.1c0,0-2.4,0.1-3.5,0.1c-0.4,0-0.6-0.1-0.6-0.3
			c0-0.1,0.1-0.2,0.3-0.2c0.3,0,0.8-0.1,1.1-0.2c0.7-0.1,0.9-1,1.1-2.1c0.2-1.6,0.2-4.5,0.2-8.1V390.1z M267.9,393.4
			c0,0.2,0.1,0.3,0.3,0.4c0.6,0.3,2.3,0.6,3.9,0.6c0.9,0,1.9-0.1,2.8-0.7c1.3-0.9,2.3-2.9,2.3-5.8c0-4.7-2.5-7.5-6.5-7.5
			c-1.1,0-2.1,0.1-2.5,0.2c-0.2,0.1-0.3,0.2-0.3,0.4V393.4z"/>
		<path class="st0" d="M292.3,392.7c0-4.9,0-5.8-0.1-6.8c-0.1-1.1-0.3-1.6-1.3-1.8c-0.3,0-0.8-0.1-1.1-0.1c-0.1,0-0.3-0.2-0.3-0.3
			c0-0.2,0.2-0.3,0.5-0.3c1.5,0,3.6,0.1,3.8,0.1c0.2,0,7.1,0,7.9,0c0.6,0,1.2-0.2,1.5-0.2c0.2,0,0.3-0.1,0.4-0.1
			c0.1,0,0.2,0.1,0.2,0.3c0,0.2-0.2,0.6-0.3,1.5c0,0.3-0.1,1.7-0.2,2.1c0,0.1-0.2,0.3-0.3,0.3c-0.2,0-0.3-0.2-0.3-0.4
			c0-0.2,0-0.7-0.2-1.1c-0.2-0.5-0.6-0.7-2.4-1c-0.6-0.1-4.4-0.1-4.8-0.1c-0.2,0-0.2,0.1-0.2,0.3v8.6c0,0.2,0,0.3,0.2,0.3
			c0.4,0,4.8,0,5.5-0.1c0.8-0.1,1.3-0.1,1.6-0.4c0.2-0.2,0.4-0.4,0.5-0.4s0.2,0.1,0.2,0.3c0,0.2-0.2,0.7-0.3,1.8
			c-0.1,0.6-0.2,1.8-0.2,2.1c0,0.3-0.1,0.6-0.3,0.6c-0.2,0-0.2-0.1-0.2-0.3c0-0.3,0-0.6-0.2-1c-0.1-0.4-0.4-0.8-1.7-1
			c-0.9-0.1-4.4-0.2-5-0.2c-0.2,0-0.2,0.1-0.2,0.2v2.7c0,1.1,0,4.8,0,5.4c0.1,2.1,0.7,2.5,3.9,2.5c0.9,0,2.4,0,3.3-0.3
			c0.9-0.4,1.3-0.9,1.5-2.2c0.1-0.4,0.1-0.5,0.3-0.5c0.2,0,0.2,0.3,0.2,0.5c0,0.2-0.3,2.4-0.4,3.1c-0.2,0.8-0.6,0.8-1.8,0.8
			c-2.5,0-4.4-0.1-5.7-0.1c-1.4-0.1-2.2-0.1-2.7-0.1c-0.1,0-0.7,0-1.4,0c-0.6,0-1.4,0.1-1.9,0.1c-0.3,0-0.5-0.1-0.5-0.3
			c0-0.1,0.1-0.3,0.3-0.3c0.3,0,0.7-0.1,1-0.2c0.6-0.1,0.7-0.7,0.9-1.7c0.2-1.3,0.2-3.8,0.2-6.9V392.7z"/>
		<path class="st0" d="M317.9,384.2c0.4-1,0.6-1.2,0.8-1.2c0.3,0,0.4,0.4,0.8,1.2c0.6,1.3,5.9,14.5,7.9,19.3
			c1.2,2.8,2.1,3.3,2.8,3.5c0.5,0.2,1,0.2,1.3,0.2c0.2,0,0.4,0.1,0.4,0.3s-0.4,0.3-0.7,0.3c-0.5,0-2.9,0-5.2-0.1
			c-0.6,0-1.2,0-1.2-0.2c0-0.2,0.1-0.2,0.2-0.2c0.2-0.1,0.5-0.3,0.3-0.9l-3-7.3c-0.1-0.1-0.1-0.2-0.3-0.2h-7.6
			c-0.2,0-0.3,0.1-0.3,0.3l-1.9,5.1c-0.3,0.8-0.5,1.6-0.5,2.1c0,0.6,0.6,0.9,1.1,0.9h0.3c0.3,0,0.3,0.1,0.3,0.3
			c0,0.2-0.2,0.3-0.5,0.3c-0.8,0-2.6-0.1-3-0.1c-0.3,0-2,0.1-3.3,0.1c-0.4,0-0.6-0.1-0.6-0.3c0-0.2,0.2-0.3,0.3-0.3
			c0.2,0,0.7,0,1-0.1c1.5-0.2,2.1-1.3,2.8-2.9L317.9,384.2z M321.6,397.4c0.1,0,0.1-0.1,0.1-0.2l-3.3-8.7c-0.2-0.5-0.4-0.5-0.6,0
			l-3.1,8.7c0,0.1,0,0.2,0.1,0.2H321.6z"/>
		<path class="st0" d="M339.3,398.4c0,4.7,0.1,6.6,0.7,7.1c0.5,0.5,1.8,0.8,4.4,0.8c1.7,0,3.2,0,4-1c0.4-0.5,0.7-1.2,0.8-1.8
			c0-0.2,0.1-0.4,0.3-0.4c0.1,0,0.2,0.1,0.2,0.5c0,0.3-0.2,2.2-0.5,3.2c-0.2,0.7-0.3,0.9-2.1,0.9c-2.4,0-4.2,0-5.7-0.1
			c-1.5,0-2.6-0.1-3.6-0.1c-0.2,0-0.7,0-1.3,0c-0.7,0-1.4,0.1-1.9,0.1c-0.3,0-0.5-0.1-0.5-0.3c0-0.1,0.1-0.3,0.3-0.3
			c0.3,0,0.7-0.1,1-0.2c0.6-0.1,0.7-0.7,0.9-1.7c0.2-1.3,0.2-3.8,0.2-6.9v-5.6c0-4.9,0-5.8-0.1-6.8c-0.1-1.1-0.3-1.6-1.3-1.8
			c-0.3,0-0.8-0.1-1.1-0.1c-0.1,0-0.3-0.2-0.3-0.3c0-0.2,0.2-0.3,0.5-0.3c1.5,0,3.6,0.1,3.7,0.1c0.1,0,2.6-0.1,3.6-0.1
			c0.3,0,0.5,0.1,0.5,0.3c0,0.1-0.1,0.2-0.3,0.2c-0.2,0-0.7,0-1.1,0.1c-1,0.2-1.2,0.7-1.2,1.8c0,1,0,1.9,0,6.8V398.4z"/>
	</g>
	<g>
		<path class="st0" d="M345.5,77.5c-7.1-3.3-8.8,4.8-8.8,4.8c2.3-2.5,4.8-0.6,4.8-0.6c4.4,4.8-2.3,12.4-2.3,12.4
			c-7.2,6.3-9.7,11.7-9.7,11.7c-3.8,8.6-2.2,13.2-2.2,13.2s0.2,0.1,0.6,0.3c0.2,0.1,0.4,0.3,0.6,0.5c0.2,0.2,0.5,0.4,0.7,0.7
			c0.2,0.3,0.4,0.6,0.6,1c0.2,0.4,0.3,0.8,0.4,1.2c0.1,0.4,0.2,0.9,0.2,1.4c0.1,0.5,0,0.9,0,1.4c0,0.5-0.1,0.9-0.2,1.4
			c-0.1,0.5-0.2,0.9-0.3,1.3c-0.2,0.9-0.6,1.6-0.9,2.2c-0.3,0.6-0.6,1.1-0.8,1.5c-0.2,0.3-0.3,0.5-0.3,0.5s0.1-0.2,0.2-0.6
			c0.1-0.4,0.3-0.9,0.5-1.6c0.1-0.3,0.2-0.7,0.3-1.1c0.1-0.4,0.2-0.8,0.3-1.2c0.1-0.4,0.2-0.8,0.2-1.3c0.1-0.4,0.2-0.9,0.1-1.3
			c0.1-0.9,0.1-1.8-0.1-2.6c-0.1-0.4-0.2-0.8-0.3-1.1c-0.1-0.4-0.2-0.7-0.4-1c-0.3-0.6-0.6-1.1-0.9-1.3c-0.3-0.3-0.4-0.4-0.4-0.4
			c-2-2.9-3.9-1.8-3.9-1.8c0.1,2.1-0.7,2.4-0.7,2.4c-1.2-3.5-3.2-4.3-3.3-4.6c-3.8-2.8-8.8-0.2-8.8-0.2c4.3,1.8,2.8,6.9,2.8,6.9
			c-2.9,7.9,2,12.2,2,12.2c4,3.4,4,8,4,8c0,3.3-1,4.1-1,4.1c-0.4-1.9,1.1-5.1-3.1-7c-4.2-1.9-6.4-4.3-6.4-4.3
			c-8.6,11.5,1.1,24.7,1.1,24.7c-4.1-4.9-8.4-4.2-8.4-4.2c2.5,1.8,1.7,7.9,1.7,7.9c-1.6,13.1,5.3,20.4,5.9,21.2
			c14.9,17.7,21.6,18,21.6,18c-8.5-13.7-7.6-20.3-7.6-20.3c2.1-10.7,10.9-5.9,10.9-5.9c1.6,2.1,3,1.8,3.7,1.8c8.6-2.2,0-9.2-0.2-9.4
			c9.9,1.7,13.2-6.7,13.2-6.7c1-3.3,7.1-1.8,7.1-1.8c-2.7-8.1-8.7-9.6-10.5-9.9c-0.1,0-0.4,0-1-0.1c-0.7,0-1.6-0.2-2.7-0.2
			c-0.6,0-1.2,0-1.8,0c-0.6,0-1.3,0.1-2,0.1c-0.7,0-1.4,0.2-2.1,0.3c-0.7,0.1-1.4,0.3-2.1,0.5c-0.7,0.2-1.4,0.5-2.1,0.8
			c-0.6,0.4-1.3,0.6-1.8,1c-0.3,0.2-0.6,0.4-0.8,0.6c-0.3,0.2-0.5,0.4-0.8,0.6c-0.5,0.4-0.9,0.8-1.3,1.3c-0.4,0.4-0.7,0.8-1,1.2
			c-0.3,0.4-0.5,0.7-0.6,1c-0.3,0.6-0.5,0.9-0.5,0.9s0.1-0.4,0.3-1c0.1-0.3,0.3-0.7,0.5-1.1c0.2-0.4,0.5-0.9,0.8-1.3
			c0.4-0.5,0.7-1,1.2-1.4c0.2-0.2,0.5-0.5,0.7-0.7c0.3-0.2,0.6-0.4,0.9-0.7c0.6-0.5,1.3-0.8,1.9-1.2c0.7-0.3,1.4-0.7,2.2-0.8
			c0.8-0.2,1.5-0.4,2.3-0.5c0.8-0.1,1.5-0.2,2.2-0.2c0.7,0,1.4,0,2.1,0c0.7,0.1,1.3,0.1,1.8,0.2c0.6,0,1.1,0.2,1.5,0.3
			c0.5,0.1,0.8,0.2,1.2,0.3c0.5,0.1,0.8,0.2,0.9,0.2c6.5,0.6,10.5-5.2,10.5-5.2c-3.1,0.2-4-2.5-4-2.5c12.6,0.4,12-10.9,12-10.9
			c-4.5,3.6-11.3-1.2-11.3-1.2c9.9-5.6,7.8-12.1,7.8-12.1c-1.1,1.6-3.2,0.5-3.2,0.5c8-7.6,4.6-15.6,4.6-15.6
			c-1.3,4.6-6.2,4.6-6.2,4.6s-0.3,0.1-0.8,0.3c-0.3,0.1-0.6,0.2-0.9,0.4c-0.3,0.2-0.7,0.4-1.1,0.5c-0.4,0.2-0.8,0.5-1.3,0.7
			c-0.4,0.3-0.9,0.6-1.3,0.9c-0.4,0.4-0.9,0.7-1.3,1.1c-0.4,0.4-0.8,0.9-1.2,1.3c-0.3,0.5-0.7,1-0.9,1.5c-0.3,0.5-0.5,1-0.7,1.6
			c-0.2,0.5-0.4,1-0.5,1.5c-0.2,0.5-0.2,1-0.4,1.4c-0.2,0.9-0.3,1.7-0.4,2.2c-0.1,0.5-0.1,0.8-0.1,0.8s0-0.3-0.1-0.9
			c0-0.5-0.1-1.3,0-2.3c0.1-0.5,0.1-1,0.2-1.5c0.1-0.5,0.2-1.1,0.4-1.7c0.2-0.6,0.4-1.2,0.7-1.7c0.3-0.6,0.6-1.1,1-1.6
			c0.4-0.5,0.8-1,1.3-1.4c0.4-0.5,1-0.8,1.4-1.2c0.5-0.3,1-0.6,1.5-0.8c0.5-0.2,1-0.4,1.4-0.6c0.9-0.3,1.7-0.5,2.2-0.6
			c0.5-0.1,0.8-0.1,0.8-0.1c8.3-10-2-19.2-2-19.2c-1,3.6-2.8,3.4-2.8,3.4C355.2,81.5,345.5,77.5,345.5,77.5z M336.7,168.3
			c-0.3-0.1-0.6-0.2-1-0.3c-0.4-0.1-0.8-0.1-1.3-0.2c-0.2,0-0.5-0.1-0.7-0.1c-0.3,0-0.5,0-0.8,0.1c-0.3,0-0.5,0-0.8,0.1
			c-0.3,0-0.5,0.1-0.8,0.2c-0.3,0.1-0.6,0.1-0.8,0.3c-0.3,0.1-0.5,0.3-0.8,0.4c-0.3,0.1-0.5,0.3-0.8,0.5c-0.2,0.2-0.5,0.3-0.7,0.6
			c-0.4,0.4-0.9,0.8-1.3,1.3c-0.4,0.5-0.8,1-1.1,1.5c-0.7,1-1.2,2-1.6,2.8c-0.4,0.9-0.7,1.6-0.9,2.1c-0.2,0.5-0.4,0.8-0.4,0.8
			s0.1-0.3,0.2-0.9c0.1-0.6,0.3-1.4,0.6-2.3c0.1-0.5,0.4-1,0.6-1.5c0.3-0.5,0.5-1.1,0.8-1.6c0.3-0.5,0.7-1.1,1.1-1.6
			c0.4-0.5,0.9-1,1.4-1.5c0.3-0.2,0.6-0.4,0.8-0.6c0.3-0.2,0.6-0.4,0.9-0.5c0.6-0.3,1.2-0.6,1.9-0.7c0.3-0.1,0.6-0.2,0.9-0.2
			c0.3,0,0.6,0,0.9,0c0.3,0,0.6,0,0.8,0c0.3,0.1,0.5,0.1,0.8,0.2c0.5,0.1,0.9,0.2,1.3,0.4c0.4,0.2,0.7,0.3,1,0.4
			c0.5,0.3,0.8,0.4,0.8,0.4S337.3,168.4,336.7,168.3z M353,130c-0.3,0-0.7,0-1.2-0.1c-0.4,0-1,0.1-1.5,0.1c-0.3,0-0.6,0-0.9,0.1
			c-0.3,0.1-0.6,0.1-0.9,0.2c-0.3,0.1-0.6,0.1-0.9,0.2c-0.3,0.1-0.6,0.2-1,0.3c-0.3,0.1-0.7,0.2-1,0.3c-0.3,0.1-0.6,0.3-1,0.4
			c-0.7,0.2-1.3,0.6-1.9,1c-0.6,0.3-1.2,0.8-1.8,1.2c-0.6,0.5-1.2,0.8-1.7,1.3c-0.5,0.5-1,0.9-1.5,1.3c-0.5,0.4-0.9,0.9-1.2,1.3
			c-0.7,0.8-1.4,1.5-1.7,2c-0.4,0.5-0.6,0.8-0.6,0.8s0.6-1.4,1.9-3.2c0.7-0.9,1.5-1.9,2.6-2.9c0.5-0.5,1.1-0.9,1.7-1.4
			c0.6-0.4,1.2-0.9,1.9-1.2c0.7-0.4,1.3-0.7,2.1-1c0.3-0.1,0.7-0.3,1-0.4c0.4-0.1,0.7-0.2,1.1-0.3c0.3-0.1,0.7-0.2,1-0.2
			c0.3,0,0.7-0.1,1-0.1c0.3,0,0.6-0.1,0.9-0.1c0.3,0,0.6,0,0.9,0c0.6,0,1.1,0,1.5,0.1c0.5,0.1,0.8,0.2,1.2,0.2c0.6,0.1,1,0.2,1,0.2
			S353.7,130,353,130z M345.8,102.5c0,1.2-0.2,2.7-0.3,4.4c-0.3,1.7-0.5,3.6-1.1,5.6c-0.1,0.5-0.3,1-0.4,1.6c-0.2,0.5-0.3,1-0.5,1.6
			c-0.3,1.1-0.7,2.2-1.2,3.3c-0.2,0.6-0.5,1.1-0.7,1.7c-0.3,0.6-0.5,1.1-0.8,1.7c-0.5,1.2-1.2,2.3-1.8,3.4c-1.3,2.3-2.8,4.5-4.4,6.8
			c-1.6,2.2-3.2,4.5-4.9,6.7c-1.7,2.2-3.3,4.4-4.9,6.7c-1.6,2.2-3.1,4.4-4.4,6.6c-0.7,1.1-1.3,2.2-1.8,3.3c-0.6,1.1-1,2.2-1.5,3.3
			c-0.5,1.1-0.7,2.2-1.1,3.2c-0.2,1.1-0.5,2.1-0.7,3.1c-0.3,2-0.3,3.9-0.2,5.6c0.2,1.7,0.5,3.1,1,4.2c0.4,1.1,0.8,2,1.1,2.6
			c0.2,0.3,0.3,0.5,0.4,0.7c0.1,0.2,0.1,0.2,0.1,0.2s0-0.1-0.1-0.2c-0.1-0.1-0.2-0.4-0.4-0.6c-0.4-0.5-0.8-1.4-1.3-2.5
			c-0.5-1.1-0.9-2.6-1.2-4.3c-0.2-1.7-0.3-3.6-0.1-5.7c0.1-1.1,0.4-2.1,0.6-3.2c0.3-1.1,0.6-2.2,1-3.4c0.4-1.1,0.8-2.3,1.4-3.4
			c0.5-1.1,1.1-2.3,1.8-3.4c1.3-2.3,2.8-4.5,4.4-6.8c1.6-2.3,3.2-4.5,4.9-6.7c1.7-2.2,3.3-4.4,4.9-6.7c1.6-2.2,3.1-4.4,4.4-6.7
			c0.7-1.1,1.3-2.2,1.9-3.3c0.3-0.6,0.6-1.1,0.9-1.6c0.2-0.6,0.5-1.1,0.7-1.6c0.5-1.1,0.9-2.1,1.3-3.2c0.2-0.5,0.4-1,0.6-1.5
			c0.1-0.5,0.3-1,0.4-1.5c0.6-2,0.9-3.9,1.3-5.5c0.2-1.7,0.5-3.1,0.6-4.3c0.2-2.4,0.3-3.8,0.3-3.8S345.8,100.1,345.8,102.5z"/>
		<path class="st0" d="M404,156.9c-2.5-5.6-7.7-1.7-7.7-1.7c2.6-0.3,3.2,2.1,3.2,2.1c0.1,5.1-7.8,6.2-7.8,6.2c-7.6,0-11.8,2-11.8,2
			c-6.7,3.2-8.1,6.8-8.1,6.8s0.1,0.2,0.2,0.5c0,0.2,0.1,0.4,0.1,0.6c0,0.2,0,0.5,0,0.8c0,0.3-0.1,0.6-0.2,0.9
			c-0.1,0.3-0.2,0.6-0.4,1c-0.2,0.3-0.3,0.6-0.6,0.9c-0.2,0.3-0.5,0.6-0.7,0.9c-0.3,0.3-0.6,0.5-0.8,0.7c-0.3,0.3-0.6,0.4-0.9,0.6
			c-0.6,0.4-1.2,0.6-1.7,0.9c-0.5,0.2-0.9,0.3-1.2,0.5c-0.3,0.1-0.5,0.2-0.5,0.2s0.1-0.1,0.4-0.3c0.3-0.2,0.6-0.4,1.1-0.7
			c0.2-0.2,0.5-0.3,0.7-0.5c0.3-0.2,0.5-0.4,0.8-0.6c0.3-0.2,0.5-0.4,0.8-0.6c0.3-0.2,0.5-0.4,0.8-0.7c0.5-0.5,0.9-1,1.3-1.6
			c0.2-0.3,0.3-0.5,0.4-0.8c0.1-0.3,0.2-0.5,0.3-0.8c0.1-0.5,0.2-0.9,0.2-1.3c0-0.3,0-0.5,0-0.5c0.3-2.8-1.4-3.1-1.4-3.1
			c-1,1.3-1.7,1.1-1.7,1.1c1.1-2.7,0.3-4.2,0.4-4.5c-0.8-3.7-5.1-4.6-5.1-4.6c1.7,3.3-1.9,5.6-1.9,5.6c-5.8,3.3-5.1,8.3-5.1,8.3
			c0.7,4.1-1.7,6.8-1.7,6.8c-1.7,1.9-2.7,1.9-2.7,1.9c0.7-1.3,3.3-2.5,1.7-5.8c-1.5-3.3-1.6-5.9-1.6-5.9
			c-11.1,2.4-12.1,15.3-12.1,15.3c0.1-5-2.8-6.8-2.8-6.8c0.6,2.4-3.1,5.6-3.1,5.6c-7.7,7-4.3,14.9-4.6,15.7
			c-5.6,13.5,0.8,21.9,0.8,21.9c1.3-8.3,6.3-14.6,6.3-14.6c6.8-5.3,9.1,0.7,9.1,0.7c-0.1,2.1,0.9,2.6,1.3,3c6.3,3.2,4.7-5.5,4.7-5.7
			c5,6.1,11.4,2.8,11.4,2.8c2.3-1.5,5.2,2.6,5.2,2.6c2.6-6.2-0.2-10.2-1.2-11.3c0,0-0.2-0.2-0.6-0.6c-0.4-0.4-0.9-0.9-1.5-1.5
			c-0.3-0.3-0.7-0.6-1.1-1c-0.4-0.3-0.8-0.6-1.3-1c-0.4-0.4-0.9-0.6-1.4-0.9c-0.5-0.3-1-0.5-1.5-0.8c-0.5-0.3-1.1-0.4-1.6-0.6
			c-0.6-0.1-1.1-0.3-1.6-0.3c-0.3,0-0.5-0.1-0.8-0.1c-0.3,0-0.5,0-0.8,0c-0.5,0-1,0-1.4,0.1c-0.4,0.1-0.8,0.1-1.2,0.2
			c-0.4,0.1-0.7,0.2-0.9,0.3c-0.5,0.2-0.8,0.3-0.8,0.3s0.2-0.2,0.7-0.4c0.2-0.1,0.5-0.3,0.9-0.4c0.3-0.1,0.7-0.3,1.2-0.4
			c0.4-0.1,0.9-0.2,1.5-0.2c0.3,0,0.5,0,0.8-0.1c0.3,0,0.6,0,0.8,0.1c0.6,0,1.2,0.2,1.8,0.3c0.6,0.2,1.2,0.3,1.7,0.6
			c0.5,0.3,1.1,0.5,1.6,0.9c0.5,0.3,1,0.6,1.4,1c0.4,0.4,0.9,0.7,1.2,1.1c0.4,0.4,0.7,0.7,1,1.1c0.3,0.3,0.6,0.7,0.8,1
			c0.2,0.3,0.4,0.6,0.6,0.8c0.2,0.3,0.4,0.5,0.4,0.6c3.6,3.7,9,2.3,9,2.3c-2-1.5-1.1-3.5-1.1-3.5c7.3,6.8,12.8-0.3,12.8-0.3
			c-4.6-0.2-6.1-6.6-6.1-6.6c8.8,1.7,10.9-3.2,10.9-3.2c-1.5,0.4-2.2-1.3-2.2-1.3c8.7-0.4,10.8-7,10.8-7c-3.1,2-6.1-0.5-6.1-0.5
			s-0.2-0.1-0.6-0.2c-0.2-0.1-0.4-0.2-0.7-0.3c-0.3-0.1-0.6-0.2-1-0.3c-0.3-0.1-0.7-0.2-1.1-0.2c-0.4-0.1-0.8-0.1-1.3-0.1
			c-0.4,0-0.9,0-1.4,0c-0.5,0-0.9,0.1-1.4,0.2c-0.5,0.1-0.9,0.2-1.3,0.4c-0.4,0.2-0.8,0.4-1.2,0.6c-0.4,0.2-0.8,0.4-1.1,0.6
			c-0.4,0.2-0.7,0.5-1,0.7c-0.6,0.5-1,0.8-1.4,1.1c-0.3,0.3-0.5,0.4-0.5,0.4s0.1-0.2,0.4-0.5c0.3-0.3,0.7-0.8,1.2-1.3
			c0.3-0.2,0.6-0.5,0.9-0.8c0.3-0.3,0.7-0.5,1.1-0.8c0.4-0.2,0.8-0.5,1.3-0.7c0.5-0.2,1-0.3,1.4-0.5c0.5-0.1,1-0.2,1.5-0.2
			c0.5-0.1,1,0,1.5,0c0.5,0.1,0.9,0.2,1.3,0.3c0.4,0.1,0.8,0.2,1.1,0.4c0.7,0.3,1.2,0.6,1.6,0.8c0.4,0.2,0.6,0.4,0.6,0.4
			c10.1-1.6,8.7-12.5,8.7-12.5c-2.4,1.6-3.4,0.6-3.4,0.6C407.8,164.3,404,156.9,404,156.9z M352,206.5c-0.1-0.2-0.3-0.4-0.5-0.7
			c-0.2-0.3-0.4-0.5-0.7-0.8c-0.1-0.1-0.3-0.3-0.4-0.4c-0.1-0.1-0.3-0.2-0.5-0.4c-0.2-0.1-0.3-0.3-0.5-0.4c-0.2-0.1-0.4-0.2-0.6-0.3
			c-0.2-0.1-0.4-0.2-0.6-0.3c-0.2-0.1-0.5-0.1-0.7-0.2c-0.2-0.1-0.5-0.1-0.7-0.1c-0.2,0-0.5-0.1-0.7-0.1c-0.5,0-1,0-1.5,0.1
			c-0.5,0.1-1,0.2-1.4,0.3c-0.9,0.3-1.7,0.6-2.4,0.9c-0.7,0.3-1.3,0.6-1.7,0.8c-0.4,0.2-0.6,0.3-0.6,0.3s0.2-0.2,0.6-0.4
			c0.4-0.3,0.9-0.7,1.6-1.1c0.3-0.2,0.7-0.4,1.1-0.6c0.4-0.2,0.8-0.4,1.3-0.5c0.5-0.2,1-0.3,1.5-0.4c0.5-0.1,1.1-0.1,1.6-0.2
			c0.3,0,0.5,0,0.8,0.1c0.3,0,0.5,0,0.8,0.1c0.5,0.1,1,0.3,1.5,0.6c0.2,0.1,0.5,0.2,0.6,0.4c0.2,0.2,0.4,0.3,0.5,0.5
			c0.2,0.2,0.3,0.3,0.5,0.5c0.1,0.2,0.3,0.3,0.4,0.5c0.2,0.3,0.5,0.6,0.6,0.9c0.1,0.3,0.2,0.5,0.3,0.7c0.2,0.4,0.3,0.7,0.3,0.7
			S352.2,206.9,352,206.5z M381.4,192.1c-0.2-0.2-0.4-0.4-0.7-0.6c-0.3-0.2-0.6-0.4-0.9-0.7c-0.2-0.1-0.3-0.3-0.5-0.4
			c-0.2-0.1-0.4-0.2-0.6-0.4c-0.2-0.1-0.4-0.2-0.7-0.4c-0.2-0.1-0.5-0.2-0.7-0.3c-0.2-0.1-0.5-0.2-0.7-0.3c-0.3-0.1-0.5-0.2-0.8-0.3
			c-0.5-0.2-1.1-0.3-1.7-0.4c-0.6-0.1-1.1-0.2-1.7-0.3c-0.6,0-1.1-0.1-1.7-0.1c-0.5,0-1.1,0-1.6,0c-0.5,0-1,0.1-1.4,0.1
			c-0.9,0.1-1.6,0.2-2.1,0.3c-0.5,0.1-0.8,0.2-0.8,0.2s1.1-0.5,2.8-0.9c0.9-0.2,1.9-0.4,3-0.4c0.6,0,1.1,0,1.7,0
			c0.6,0.1,1.2,0.1,1.8,0.2c0.6,0.1,1.2,0.2,1.7,0.5c0.3,0.1,0.6,0.2,0.8,0.3c0.3,0.1,0.5,0.3,0.8,0.4c0.3,0.1,0.5,0.2,0.7,0.4
			c0.2,0.2,0.4,0.3,0.7,0.5c0.2,0.1,0.4,0.3,0.6,0.4c0.2,0.2,0.4,0.3,0.5,0.5c0.3,0.3,0.6,0.6,0.9,0.8c0.2,0.3,0.4,0.5,0.6,0.7
			c0.3,0.4,0.5,0.6,0.5,0.6S381.8,192.5,381.4,192.1z M391.3,172c-0.7,0.7-1.5,1.5-2.5,2.4c-1,0.9-2.1,1.9-3.5,2.8
			c-0.3,0.2-0.7,0.5-1,0.7c-0.4,0.2-0.7,0.5-1.1,0.7c-0.8,0.5-1.6,0.9-2.4,1.3c-0.4,0.2-0.9,0.4-1.3,0.7c-0.4,0.2-0.9,0.4-1.4,0.6
			c-0.9,0.4-1.9,0.7-2.8,1.1c-2,0.7-4,1.3-6.1,1.8c-2.1,0.5-4.2,1-6.4,1.5c-2.1,0.5-4.3,0.9-6.4,1.4c-2.1,0.5-4.2,1-6.1,1.7
			c-1,0.3-1.9,0.7-2.8,1c-0.9,0.3-1.8,0.8-2.6,1.2c-0.8,0.4-1.6,0.9-2.3,1.4c-0.7,0.5-1.4,1-2,1.5c-1.2,1-2.2,2.2-3,3.2
			c-0.7,1.1-1.3,2.1-1.6,3c-0.3,0.9-0.5,1.6-0.6,2.1c-0.1,0.3-0.1,0.4-0.1,0.6c0,0.1-0.1,0.2-0.1,0.2s0-0.1,0.1-0.2
			c0-0.1,0-0.3,0.1-0.6c0.1-0.5,0.2-1.3,0.5-2.2c0.3-0.9,0.8-2,1.5-3.2c0.7-1.1,1.7-2.4,2.9-3.5c0.6-0.6,1.3-1.1,2-1.6
			c0.8-0.5,1.5-1,2.4-1.5c0.8-0.4,1.7-0.9,2.6-1.3c0.9-0.4,1.9-0.8,2.9-1.1c2-0.7,4-1.2,6.1-1.8c2.1-0.5,4.2-1,6.4-1.5
			c2.1-0.5,4.3-0.9,6.4-1.4c2.1-0.5,4.1-1.1,6.1-1.7c1-0.3,1.9-0.7,2.8-1c0.5-0.2,0.9-0.4,1.4-0.5c0.4-0.2,0.9-0.4,1.3-0.6
			c0.9-0.4,1.7-0.8,2.4-1.2c0.4-0.2,0.8-0.4,1.1-0.6c0.4-0.2,0.7-0.5,1-0.7c1.4-0.9,2.5-1.8,3.6-2.6c1-0.9,1.9-1.6,2.6-2.3
			c1.4-1.4,2.1-2.1,2.1-2.1S392.6,170.5,391.3,172z"/>
		<path class="st0" d="M352.5,236c0,0,5,2.3,6.6-2.4c0,1.8,0.9,4.5,6.3,6.2c0,0,5.7,3.5-1.7,5.1c0,0,5.2,6.8,10.3-3.2
			c0,0,3.2-8.3-4.4-10.9c0,0,2.8,1.1,5.9-0.7c0,0-4.5-8.9-10-7.7c0,0,3.9-1.1,5-3c0,0-2.6-4.3-9.9-2.3c0,0,1.5-0.9,2.7-3.6
			c-0.3-0.2-10.8-5-23.9,10.3c0,0,0.3-0.3,0.8-0.7c0.3-0.2,0.6-0.5,1-0.8c0.2-0.2,0.4-0.3,0.6-0.5c0.2-0.2,0.5-0.3,0.7-0.5
			c0.2-0.2,0.5-0.4,0.8-0.5c0.3-0.2,0.6-0.4,0.9-0.5c0.3-0.2,0.6-0.3,0.9-0.5c0.3-0.2,0.7-0.3,1-0.5c0.4-0.1,0.7-0.3,1.1-0.4
			c0.4-0.1,0.8-0.2,1.1-0.4c0.4-0.1,0.8-0.2,1.2-0.3c0.4-0.1,0.8-0.2,1.2-0.2c0.8-0.1,1.6-0.1,2.4-0.1c0.8,0,1.6,0.1,2.3,0.3
			c0.8,0.1,1.5,0.3,2.1,0.6c0.7,0.2,1.3,0.5,1.8,0.8c1.1,0.5,1.9,1.1,2.5,1.5c0.6,0.4,0.9,0.7,0.9,0.7s-0.3-0.3-0.9-0.6
			c-0.6-0.4-1.5-0.9-2.6-1.4c-0.6-0.2-1.2-0.5-1.8-0.7c-0.7-0.2-1.4-0.4-2.1-0.5c-0.7-0.1-1.5-0.2-2.3-0.2c-0.8,0-1.6,0-2.4,0.1
			c-0.4,0-0.8,0.1-1.2,0.2c-0.4,0.1-0.8,0.2-1.2,0.3c-0.4,0.1-0.8,0.2-1.1,0.3c-0.4,0.1-0.7,0.3-1.1,0.4c-0.3,0.1-0.7,0.3-1,0.4
			c-0.3,0.2-0.6,0.3-0.9,0.5c-0.3,0.1-0.6,0.3-0.9,0.5c-0.3,0.2-0.6,0.3-0.8,0.5c-0.5,0.3-1,0.6-1.4,0.9c-0.4,0.3-0.8,0.5-1,0.8
			c-0.5,0.4-0.8,0.7-0.9,0.7c-0.5,0.6-1.1,1.3-1.7,2C337.5,226.2,351.1,223.1,352.5,236z M357.8,226.9c0.4,0.4,0.6,0.6,0.6,0.6
			s-0.1-0.1-0.2-0.2C358.1,227.3,358,227.1,357.8,226.9c-0.3-0.1-0.5-0.3-0.9-0.5c-0.3-0.2-0.7-0.4-1.1-0.7
			c-0.2-0.1-0.4-0.2-0.6-0.4c-0.2-0.1-0.5-0.2-0.7-0.3c-0.5-0.2-1-0.4-1.6-0.6c-0.3-0.1-0.6-0.2-0.9-0.3c-0.1,0-0.3-0.1-0.4-0.1
			c-0.1,0-0.3-0.1-0.4-0.1c-0.3-0.1-0.6-0.1-0.9-0.2c-0.3-0.1-0.6-0.1-0.9-0.1c-0.6-0.1-1.2-0.1-1.9-0.1l-0.5,0l-0.5,0
			c-0.3,0-0.6,0-0.9,0.1c-0.3,0-0.6,0.1-0.9,0.1c-0.3,0-0.6,0.1-0.8,0.1c-0.5,0.1-1,0.2-1.5,0.4c-0.2,0.1-0.4,0.1-0.6,0.2
			c-0.1,0-0.2,0.1-0.3,0.1c-0.1,0-0.2,0.1-0.3,0.1c-0.4,0.1-0.7,0.3-0.9,0.4c-0.5,0.2-0.8,0.3-0.8,0.3s0.3-0.1,0.8-0.4
			c0.3-0.1,0.6-0.3,0.9-0.4c0.3-0.2,0.8-0.3,1.2-0.5c0.5-0.1,0.9-0.4,1.5-0.5c0.3-0.1,0.5-0.1,0.8-0.2c0.3-0.1,0.6-0.1,0.9-0.1
			c0.3,0,0.6-0.1,0.9-0.1l0.5,0l0.5,0c0.6,0,1.3,0,1.9,0.1c0.3,0,0.6,0.1,0.9,0.1c0.3,0.1,0.6,0.1,0.9,0.2c0.2,0,0.3,0.1,0.5,0.1
			c0.1,0,0.3,0.1,0.4,0.1c0.3,0.1,0.6,0.2,0.9,0.3c0.6,0.2,1.1,0.4,1.6,0.7c0.2,0.1,0.5,0.2,0.7,0.4c0.2,0.1,0.4,0.3,0.6,0.4
			c0.4,0.3,0.8,0.5,1.1,0.8C357.3,226.5,357.6,226.7,357.8,226.9z M340.1,224.2c0.2-0.2,0.4-0.3,0.7-0.5c0.3-0.2,0.5-0.4,0.8-0.6
			c0.3-0.2,0.6-0.4,1-0.6c0.3-0.2,0.7-0.4,1.1-0.6c0.4-0.2,0.8-0.4,1.3-0.5c0.5-0.1,0.9-0.3,1.4-0.4c0.5-0.1,1-0.2,1.5-0.3
			c0.3,0,0.5-0.1,0.8-0.1c0.1,0,0.3,0,0.4,0l0.4,0c0.3,0,0.6,0,0.8,0c0.3,0,0.6,0.1,0.8,0.1c0.6,0,1.1,0.2,1.7,0.3
			c0.3,0,0.6,0.1,0.8,0.2c0.3,0.1,0.6,0.2,0.8,0.3c0.5,0.2,1.1,0.4,1.6,0.7c1.1,0.5,2.1,1.1,3,1.7c0.9,0.7,1.9,1.3,2.7,2.1
			c0.8,0.7,1.6,1.5,2.3,2.2c0.7,0.7,1.3,1.4,1.9,2.1c1.1,1.3,2,2.5,2.5,3.4c0.6,0.8,0.9,1.4,0.9,1.4s-0.3-0.5-0.9-1.3
			c-0.6-0.8-1.5-2-2.6-3.3c-0.6-0.7-1.2-1.3-1.9-2c-0.7-0.7-1.5-1.4-2.3-2.1c-0.8-0.7-1.7-1.4-2.7-2c-1-0.6-1.9-1.2-3-1.7
			c-0.5-0.3-1.1-0.4-1.6-0.7c-0.3-0.1-0.5-0.2-0.8-0.3c-0.3-0.1-0.5-0.2-0.8-0.2c-0.6-0.1-1.1-0.2-1.6-0.3c-0.3,0-0.5-0.1-0.8-0.1
			c-0.3,0-0.5,0-0.8,0l-0.4,0c-0.1,0-0.3,0-0.4,0c-0.3,0-0.5,0-0.8,0.1c-0.5,0-1,0.2-1.5,0.2c-0.5,0.1-0.9,0.3-1.4,0.4
			c-0.4,0.1-0.8,0.3-1.3,0.5c-0.4,0.1-0.8,0.4-1.1,0.5c-0.3,0.2-0.7,0.3-1,0.5c-0.3,0.2-0.6,0.4-0.8,0.5
			C340.6,224,340.3,224.1,340.1,224.2c-0.8,0.7-1.2,1-1.2,1S339.3,224.9,340.1,224.2z"/>
		<path class="st0" d="M338.9,225.6c-0.5-0.1-1-0.3-1.5-0.4c0,0-0.3,0-0.7,0c-0.2,0-0.5,0-0.8,0c-0.3,0-0.6,0-1,0
			c-0.2,0-0.4,0-0.6,0c-0.2,0-0.4,0-0.6,0.1c-0.2,0-0.4,0.1-0.6,0.1c-0.2,0-0.4,0.1-0.7,0.1c-0.2,0.1-0.4,0.1-0.7,0.2
			c-0.2,0.1-0.4,0.2-0.7,0.2c-0.2,0.1-0.4,0.2-0.7,0.3c-0.2,0.1-0.4,0.2-0.6,0.3c-0.4,0.2-0.8,0.5-1.2,0.8c-0.4,0.3-0.7,0.6-1,0.9
			c-0.3,0.3-0.6,0.7-0.8,1c-0.3,0.3-0.5,0.7-0.6,1c-0.4,0.6-0.6,1.2-0.8,1.6c-0.2,0.4-0.2,0.6-0.2,0.6s0-0.2,0.2-0.7
			c0.1-0.4,0.3-1,0.7-1.6c0.2-0.3,0.4-0.7,0.6-1c0.2-0.3,0.5-0.7,0.8-1c0.3-0.3,0.7-0.7,1-1c0.4-0.3,0.8-0.6,1.2-0.8
			c0.2-0.1,0.4-0.2,0.7-0.3c0.2-0.1,0.5-0.2,0.7-0.3c0.2-0.1,0.5-0.2,0.7-0.2c0.2-0.1,0.5-0.1,0.7-0.2c0.2,0,0.4-0.1,0.7-0.1
			c0.2,0,0.4-0.1,0.6-0.1c0.2,0,0.4,0,0.6-0.1c0.2,0,0.4,0,0.6,0c0.2,0,0.4,0,0.5,0c0.2,0,0.3,0,0.5,0c0.3,0,0.6,0,0.8,0.1
			c0.4,0,0.6,0.1,0.7,0.1c-11.9-2.8-15.3,3.3-15.4,3.5c1.5,0.9,2.6,0.8,2.6,0.8c-4.3,1.6-4,4.6-4,4.6c1.2,0.5,3.5-0.3,3.5-0.3
			c-3.1,1.4-2.1,7.4-2.1,7.4c2.1-0.2,3.1-1.8,3.1-1.8c-2.8,4,1.8,6.9,1.8,6.9c6.1,3,6.2-2.1,6.2-2.1c-4.2,1.9-2.7-1.9-2.7-1.9
			c2-2.7,1.5-4.4,0.9-5.3c2.4,1.7,4.1-1.2,4.1-1.2C331.3,229,339.1,225.7,338.9,225.6z M329.5,232.7c0.1-0.2,0.1-0.5,0.3-0.7
			c0.1-0.1,0.1-0.3,0.2-0.4c0.1-0.1,0.1-0.3,0.2-0.4c0.1-0.3,0.3-0.6,0.5-0.9c0.1-0.1,0.2-0.3,0.3-0.4c0.1-0.1,0.1-0.2,0.2-0.2
			c0.1-0.1,0.1-0.1,0.2-0.2c0.1-0.1,0.3-0.3,0.4-0.4c0.1-0.1,0.3-0.3,0.4-0.4c0.3-0.3,0.6-0.5,0.9-0.7l0.2-0.2l0.2-0.1
			c0.2-0.1,0.3-0.2,0.5-0.3c0.2-0.1,0.3-0.2,0.5-0.2c0.2-0.1,0.3-0.1,0.5-0.2c0.3-0.1,0.6-0.2,0.9-0.3c0.3-0.1,0.5-0.2,0.8-0.2
			c0.2,0,0.4-0.1,0.6-0.1c0.3-0.1,0.5-0.1,0.5-0.1s-0.2,0-0.5,0.1c-0.2,0-0.4,0.1-0.6,0.2c-0.1,0-0.1,0-0.2,0c-0.1,0-0.1,0-0.2,0.1
			c-0.1,0-0.3,0.1-0.4,0.1c-0.3,0.1-0.6,0.2-0.9,0.3c-0.1,0.1-0.3,0.1-0.4,0.2c-0.2,0.1-0.3,0.1-0.5,0.2c-0.2,0.1-0.3,0.2-0.5,0.3
			l-0.2,0.1l-0.2,0.2c-0.3,0.2-0.6,0.4-0.9,0.7c-0.1,0.1-0.3,0.3-0.4,0.4c-0.1,0.1-0.3,0.3-0.4,0.4c-0.1,0.1-0.1,0.1-0.2,0.2
			c-0.1,0.1-0.1,0.1-0.2,0.2c-0.1,0.1-0.2,0.3-0.3,0.4c-0.2,0.3-0.4,0.6-0.5,0.9c-0.1,0.1-0.2,0.3-0.2,0.4c-0.1,0.1-0.1,0.3-0.2,0.4
			C329.8,232.3,329.7,232.5,329.5,232.7c0,0.3-0.1,0.4-0.1,0.6c0,0.2-0.1,0.3-0.1,0.4c0,0.1,0,0.1,0,0.1s0-0.2,0.1-0.5
			C329.4,233.1,329.5,232.9,329.5,232.7z M338.1,225.7c0,0-0.4,0-1,0c-0.2,0-0.3,0-0.5,0c-0.2,0-0.4,0-0.6,0c-0.2,0-0.4,0.1-0.7,0.1
			c-0.2,0-0.5,0.1-0.7,0.1c-0.3,0.1-0.5,0.1-0.8,0.2c-0.3,0.1-0.5,0.2-0.8,0.3c-0.3,0.1-0.5,0.3-0.8,0.4c-0.1,0.1-0.3,0.2-0.4,0.2
			c-0.1,0-0.1,0.1-0.2,0.1l-0.2,0.1c-0.1,0.1-0.3,0.2-0.4,0.3c-0.1,0.1-0.2,0.2-0.4,0.3c-0.3,0.2-0.5,0.5-0.7,0.7
			c-0.1,0.1-0.2,0.3-0.3,0.4c-0.1,0.1-0.2,0.3-0.3,0.4c-0.2,0.3-0.4,0.6-0.5,0.9c-0.4,0.6-0.6,1.2-0.9,1.9c-0.2,0.6-0.4,1.3-0.6,1.9
			c-0.2,0.6-0.3,1.3-0.4,1.9c-0.1,0.6-0.2,1.2-0.2,1.7c-0.1,1-0.1,1.9-0.1,2.5c0,0.6,0,1,0,1s0-0.3-0.1-1c0-0.6,0-1.5,0-2.5
			c0-0.5,0.1-1.1,0.2-1.7c0.1-0.6,0.2-1.2,0.3-1.9c0.1-0.6,0.3-1.3,0.6-2c0.3-0.6,0.5-1.3,0.9-1.9c0.2-0.3,0.4-0.6,0.6-0.9
			c0.1-0.1,0.2-0.3,0.3-0.4c0.1-0.1,0.2-0.3,0.3-0.4c0.2-0.3,0.5-0.5,0.7-0.7c0.1-0.1,0.2-0.2,0.4-0.3c0.1-0.1,0.3-0.2,0.4-0.3
			l0.2-0.1c0.1,0,0.1-0.1,0.2-0.1c0.1-0.1,0.3-0.2,0.4-0.2c0.3-0.2,0.6-0.3,0.8-0.4c0.3-0.1,0.6-0.2,0.8-0.3
			c0.3-0.1,0.5-0.1,0.8-0.2c0.3-0.1,0.5-0.1,0.8-0.1c0.2,0,0.5-0.1,0.7-0.1c0.2,0,0.4,0,0.6,0c0.2,0,0.4,0,0.5,0
			C337.7,225.7,338.1,225.7,338.1,225.7z"/>
		<g>
			<path class="st0" d="M321.7,109.3c0,0-0.1,0-0.1,0C321.6,109.3,321.7,109.3,321.7,109.3z"/>
			<path class="st0" d="M331.5,82.4c0,0-0.2,0-0.5,0c-0.3,0-0.8,0.1-1.3,0.1c-0.5,0.1-1.1,0.2-1.8,0.4c-0.6,0.2-1.3,0.4-1.9,0.7
				c-0.3,0.2-0.6,0.3-0.9,0.5c-0.3,0.2-0.6,0.4-0.8,0.6c-0.3,0.2-0.5,0.4-0.7,0.6c-0.2,0.2-0.4,0.4-0.6,0.6
				c-0.2,0.2-0.3,0.4-0.5,0.6c-0.1,0.2-0.2,0.3-0.3,0.5c-0.2,0.3-0.3,0.4-0.3,0.4s0.1-0.2,0.2-0.5c0.1-0.3,0.3-0.7,0.6-1.2
				c0.1-0.3,0.3-0.5,0.5-0.7c0.2-0.3,0.4-0.5,0.7-0.7c0.5-0.5,1.1-0.9,1.8-1.3c0.7-0.3,1.4-0.6,2.1-0.7c0.7-0.1,1.3-0.2,1.9-0.2
				C330.8,82.1,331.5,82.4,331.5,82.4s4.8-2.4,5-7c0,0-1.6-2-3.4-1c0,0,0.5-2.2-0.2-3.6c0,0,4.3-1,4.2-6.7c0,0-0.5-0.7-2.5,0.5
				c0,0,3.1-4.7-1.2-9.7c0,0,0.3,0.8-0.3,2.1c0,0-4.3,1.4-4.1,4.3c-0.1-0.6-0.2-1.6-0.6-2.1c0,0-0.8,0.3-1.3,1c0,0-0.7,1.3-1.6,3.1
				c-0.5,0.9-1,2.1-1.5,3.2c-0.5,1.2-1.1,2.5-1.6,3.8c-0.3,0.6-0.5,1.3-0.7,1.9c-0.2,0.6-0.4,1.3-0.6,1.9c-0.2,0.6-0.3,1.2-0.5,1.8
				c-0.2,0.6-0.2,1.1-0.3,1.7c-0.1,0.5-0.1,1-0.1,1.4c0,0.2,0,0.4,0,0.6c0,0.2,0,0.4,0,0.5c0,0.6,0.1,1,0.1,1s-0.1-0.3-0.2-0.9
				c0-0.2-0.1-0.3-0.1-0.5c0-0.2,0-0.4,0-0.6c0-0.4-0.1-0.9,0-1.5c0.1-0.5,0.1-1.1,0.2-1.7c0.1-0.6,0.2-1.2,0.4-1.9
				c0.3-1.3,0.8-2.6,1.3-4c0.3-0.7,0.6-1.3,0.8-1.9c0.3-0.6,0.6-1.2,0.9-1.8c0.6-1.2,1.2-2.2,1.8-3.2c1.1-1.8,2-2.9,2-2.9
				s1.4-3.9-0.4-7.3c0,0-1.9,0.5-2.8,2.1c0,0,0.2-6.1-4.4-8c-0.2,0.4-1.9,2.3-0.9,4.5c0,0-7.2-11-18.2-6.1c0,0-7.7,3.4-4.2,10.7
				c0,0,4.1,5.7,6.2,2c0,0,2.5-2.8-0.5-5.5c-0.3,0-2-0.7-3.1,0.5c0,0,1.2-4,4.9-3.4c0,0,5.1,0.5,8.7,6.7c0,0-7.5-2.4-7.4,4
				c0,0,1.9-1.2,3.6,0.8c0,0-2.7,1-2.5,2.1c0,0,1.1,0.1,2.4,2.8c0,0-0.9,1.5-0.3,2.3c0,0-7.1-10.4-11.1-3.3c0,0,1.8-1.8,2.8,0.9
				c0,0,1,2.2,0.4,3.8c-0.5,1.3,0.6,2.7,1.8,3c-0.9,0-2.4,0.2-3.1,1.5c0,0,2.1,1.7,2.6,3.6c0.4,1.9,2.1,2.4,3.4,2.4
				c0,0-6.9,0.1-1.8,6.3c0,0,0.2-3.6,3.5-1.4c0,0,2.4,0.4,3.2,9.8c0,0-1.3,14.8,11.7,14.4c-0.4,0-2.1-0.7-2.4-8c0,0,6.3,4.5,10.2,1
				c0,0,2.4-2.8,1.3-6.6c0,0,1.2-0.5,2.1,0.2c0,0-0.1-2.9-2.9-3.8c1,0.1,2.7,0,3.4-1.6c0,0,2.2-3.2,4.7-1.5
				C337.9,89,335.8,82.5,331.5,82.4z M312,80c0,0.4-0.1,0.9-0.1,1.2c0,0.8-0.2,1.4-0.2,1.9c-0.1,0.4-0.1,0.7-0.1,0.7s0-0.3,0-0.7
				c0-0.4,0-1.1-0.1-1.9c0-0.4,0-0.8-0.1-1.2c0-0.4-0.1-0.9-0.1-1.4c0-0.5-0.1-1-0.1-1.5c-0.1-0.5-0.1-1-0.2-1.5
				c-0.1-0.5-0.2-1-0.3-1.5c-0.1-0.5-0.2-1-0.3-1.4c-0.3-0.9-0.5-1.7-0.9-2.4c-0.3-0.7-0.6-1.2-0.9-1.6c-0.3-0.4-0.4-0.6-0.4-0.6
				s0.2,0.1,0.5,0.5c0.3,0.3,0.8,0.8,1.1,1.5c0.2,0.3,0.4,0.7,0.6,1.1c0.2,0.4,0.4,0.8,0.5,1.3c0.3,0.9,0.6,1.9,0.7,3
				c0.1,0.5,0.1,1,0.2,1.5c0.1,0.5,0.1,1,0.1,1.5C312,79.1,312,79.6,312,80z M313.8,90.2c0.1,1.4,0.2,2.7,0.4,4
				c0.2,1.3,0.5,2.5,0.7,3.7c0.1,0.6,0.3,1.1,0.5,1.7c0.2,0.5,0.3,1.1,0.5,1.6c0.2,0.5,0.4,1,0.5,1.4c0.2,0.4,0.4,0.9,0.5,1.3
				c0.3,0.8,0.7,1.5,1,2c0.3,0.5,0.5,1,0.7,1.2c0.2,0.3,0.3,0.4,0.3,0.4c0,0-0.1-0.1-0.3-0.4c-0.2-0.3-0.5-0.7-0.9-1.2
				c-0.3-0.5-0.7-1.2-1.1-1.9c-0.2-0.4-0.4-0.8-0.6-1.2c-0.2-0.4-0.4-0.9-0.6-1.4c-0.2-0.5-0.4-1-0.6-1.6c-0.2-0.6-0.4-1.1-0.6-1.7
				c-0.3-1.2-0.7-2.4-0.9-3.8c-0.3-1.3-0.4-2.7-0.5-4.1c-0.1-1.4-0.1-2.9-0.1-4.3c0.1-1.4,0.2-2.9,0.4-4.3c0.2-1.4,0.5-2.8,0.7-4.1
				c0.4-1.3,0.7-2.5,1-3.7c0.4-1.2,0.8-2.2,1.2-3.3c0.4-1,0.7-1.9,1.1-2.7c0.4-0.8,0.7-1.5,1-2c0.6-1.1,0.9-1.7,0.9-1.7
				s-0.3,0.7-0.7,1.8c-0.2,0.6-0.5,1.3-0.8,2.1c-0.3,0.8-0.6,1.7-0.9,2.7c-0.3,1-0.7,2.1-1,3.3c-0.3,1.2-0.6,2.4-0.9,3.7
				c-0.3,1.3-0.4,2.7-0.6,4c-0.2,1.4-0.2,2.8-0.3,4.2C313.8,87.4,313.7,88.8,313.8,90.2z"/>
		</g>
	</g>
	<g>
		<path class="st0" d="M89.1,91.8c0,0-1.8,0.2-2.8-3.4c0,0-10.3,9.2-2,19.2c0,0,0.3,0,0.8,0.1c0.5,0.1,1.3,0.2,2.2,0.6
			c0.5,0.1,0.9,0.4,1.4,0.6c0.5,0.2,1,0.5,1.5,0.8c0.5,0.4,1,0.7,1.4,1.2c0.5,0.4,0.9,0.9,1.3,1.4c0.4,0.5,0.7,1.1,1,1.6
			c0.3,0.6,0.5,1.1,0.7,1.7c0.2,0.6,0.3,1.1,0.4,1.7c0.1,0.5,0.1,1,0.2,1.5c0.1,0.9,0,1.7,0,2.3c0,0.5-0.1,0.9-0.1,0.9
			s0-0.3-0.1-0.8c-0.1-0.5-0.2-1.3-0.4-2.2c-0.1-0.4-0.2-0.9-0.4-1.4c-0.1-0.5-0.3-1-0.5-1.5c-0.2-0.5-0.4-1.1-0.7-1.6
			c-0.3-0.5-0.6-1-0.9-1.5c-0.4-0.5-0.7-0.9-1.2-1.3c-0.4-0.4-0.9-0.8-1.3-1.1c-0.5-0.3-0.9-0.7-1.3-0.9c-0.5-0.2-0.9-0.5-1.3-0.7
			c-0.4-0.2-0.8-0.4-1.1-0.5c-0.3-0.1-0.7-0.3-0.9-0.4c-0.5-0.2-0.8-0.3-0.8-0.3s-4.9,0-6.2-4.6c0,0-3.5,8.1,4.6,15.6
			c0,0-2,1-3.2-0.5c0,0-2.1,6.4,7.8,12.1c0,0-6.8,4.8-11.3,1.2c0,0-0.6,11.3,12,10.9c0,0-0.9,2.7-4,2.5c0,0,4,5.8,10.5,5.2
			c0.1,0,0.5-0.1,0.9-0.2c0.3-0.1,0.7-0.2,1.2-0.3c0.5-0.1,1-0.2,1.5-0.3c0.6-0.1,1.2-0.1,1.8-0.2c0.7-0.1,1.4,0,2.1,0
			c0.7,0,1.5,0.1,2.2,0.2c0.8,0.1,1.5,0.3,2.3,0.5c0.8,0.2,1.5,0.6,2.2,0.8c0.7,0.4,1.4,0.7,1.9,1.2c0.3,0.2,0.6,0.4,0.9,0.7
			c0.3,0.2,0.5,0.5,0.7,0.7c0.5,0.5,0.9,1,1.2,1.4c0.3,0.5,0.6,0.9,0.8,1.3c0.2,0.4,0.4,0.8,0.5,1.1c0.2,0.6,0.3,1,0.3,1
			s-0.2-0.4-0.5-0.9c-0.2-0.3-0.4-0.6-0.6-1c-0.3-0.4-0.6-0.8-1-1.2c-0.4-0.4-0.8-0.9-1.3-1.3c-0.2-0.2-0.5-0.4-0.8-0.6
			c-0.3-0.2-0.6-0.4-0.8-0.6c-0.6-0.4-1.2-0.7-1.8-1c-0.7-0.2-1.3-0.6-2.1-0.8c-0.7-0.2-1.4-0.4-2.1-0.5c-0.7-0.1-1.4-0.3-2.1-0.3
			c-0.7,0-1.4-0.1-2-0.1c-0.6,0-1.3,0-1.8,0c-1.1,0-2.1,0.1-2.7,0.2c-0.6,0-1,0.1-1,0.1c-1.8,0.3-7.9,1.7-10.5,9.9
			c0,0,6.1-1.5,7.1,1.8c0,0,3.3,8.5,13.2,6.7c-0.1,0.2-8.8,7.2-0.2,9.4c0.6,0,2,0.4,3.7-1.8c0,0,8.8-4.8,10.9,5.9
			c0,0,0.9,6.6-7.6,20.3c0,0,6.7-0.2,21.6-18c0.6-0.8,7.5-8.1,5.9-21.2c0,0-0.9-6.1,1.7-7.9c0,0-4.3-0.7-8.4,4.2
			c0,0,9.7-13.1,1.1-24.7c0,0-2.2,2.4-6.4,4.3c-4.2,1.9-2.7,5.1-3.1,7c0,0-1-0.8-1-4.1c0,0,0-4.6,4-8c0,0,4.9-4.3,2-12.2
			c0,0-1.5-5.1,2.8-6.9c0,0-4.9-2.7-8.8,0.2c-0.1,0.3-2.2,1.2-3.3,4.6c0,0-0.8-0.4-0.7-2.4c0,0-1.9-1.1-3.9,1.8c0,0-0.2,0.1-0.4,0.4
			c-0.3,0.3-0.6,0.8-0.9,1.3c-0.2,0.3-0.3,0.6-0.4,1c-0.1,0.4-0.2,0.7-0.3,1.1c-0.1,0.8-0.2,1.7-0.1,2.6c0,0.4,0.1,0.9,0.1,1.3
			c0,0.4,0.1,0.9,0.2,1.3c0.1,0.4,0.2,0.8,0.3,1.2c0.1,0.4,0.2,0.7,0.3,1.1c0.2,0.7,0.3,1.2,0.5,1.6c0.1,0.4,0.2,0.6,0.2,0.6
			s-0.1-0.2-0.3-0.5c-0.2-0.4-0.5-0.8-0.8-1.5c-0.3-0.6-0.6-1.4-0.9-2.2c-0.1-0.4-0.3-0.9-0.3-1.3c-0.1-0.5-0.2-0.9-0.2-1.4
			c0-0.5-0.1-1,0-1.4c0-0.5,0.1-0.9,0.2-1.4c0.1-0.4,0.3-0.9,0.4-1.2c0.2-0.4,0.4-0.7,0.6-1c0.2-0.3,0.4-0.5,0.7-0.7
			c0.2-0.2,0.4-0.3,0.6-0.5c0.3-0.2,0.6-0.3,0.6-0.3s1.6-4.6-2.2-13.2c0,0-2.4-5.4-9.7-11.7c0,0-6.7-7.5-2.3-12.4
			c0,0,2.5-1.9,4.8,0.6c0,0-1.7-8.1-8.8-4.8C96.4,77.5,86.7,81.5,89.1,91.8z M104.3,168.5c0,0,0.3-0.1,0.8-0.4
			c0.3-0.1,0.6-0.3,0.9-0.4c0.4-0.2,0.8-0.2,1.3-0.4c0.2-0.1,0.5-0.1,0.8-0.2c0.3,0,0.6,0,0.8,0c0.3,0,0.6,0,0.9,0
			c0.3,0,0.6,0.1,0.9,0.2c0.6,0.1,1.3,0.4,1.9,0.7c0.3,0.1,0.6,0.3,0.9,0.5c0.3,0.2,0.6,0.4,0.8,0.6c0.5,0.5,1,0.9,1.4,1.5
			c0.4,0.5,0.8,1.1,1.1,1.6c0.3,0.5,0.6,1.1,0.8,1.6c0.2,0.5,0.4,1,0.6,1.5c0.3,0.9,0.5,1.7,0.6,2.3c0.1,0.5,0.2,0.9,0.2,0.9
			s-0.1-0.3-0.4-0.8c-0.2-0.5-0.5-1.3-0.9-2.1c-0.4-0.9-1-1.9-1.6-2.8c-0.3-0.5-0.7-1-1.1-1.5c-0.4-0.5-0.9-0.9-1.3-1.3
			c-0.2-0.2-0.5-0.4-0.7-0.6c-0.2-0.2-0.5-0.4-0.8-0.5c-0.3-0.1-0.5-0.3-0.8-0.4c-0.3-0.1-0.6-0.2-0.8-0.3c-0.3-0.1-0.5-0.2-0.8-0.2
			c-0.3,0-0.6,0-0.8-0.1c-0.3,0-0.5-0.1-0.8-0.1c-0.3,0-0.5,0.1-0.7,0.1c-0.5,0.1-0.9,0.1-1.3,0.2c-0.4,0.1-0.7,0.2-1,0.3
			C104.6,168.4,104.3,168.5,104.3,168.5z M87.8,130.1c0,0,0.4-0.1,1-0.2c0.3-0.1,0.7-0.1,1.2-0.2c0.5-0.1,1-0.1,1.5-0.1
			c0.3,0,0.6,0,0.9,0c0.3,0,0.6,0.1,0.9,0.1c0.3,0,0.7,0.1,1,0.1c0.3,0.1,0.7,0.2,1,0.2c0.3,0.1,0.7,0.2,1.1,0.3
			c0.3,0.1,0.7,0.3,1,0.4c0.7,0.3,1.4,0.6,2.1,1c0.7,0.4,1.3,0.8,1.9,1.2c0.6,0.5,1.2,0.9,1.7,1.4c1,1,1.9,2,2.6,2.9
			c1.4,1.8,1.9,3.2,1.9,3.2s-0.2-0.3-0.6-0.8c-0.4-0.5-1-1.2-1.7-2c-0.4-0.4-0.8-0.8-1.2-1.3c-0.4-0.4-1-0.9-1.5-1.3
			c-0.5-0.5-1.1-0.8-1.7-1.3c-0.6-0.4-1.2-0.8-1.8-1.2c-0.6-0.3-1.3-0.7-1.9-1c-0.3-0.1-0.7-0.3-1-0.4c-0.3-0.1-0.7-0.2-1-0.3
			c-0.3-0.1-0.6-0.2-1-0.3c-0.3-0.1-0.6-0.1-0.9-0.2c-0.3-0.1-0.6-0.1-0.9-0.2c-0.3,0-0.6,0-0.9-0.1c-0.5,0-1.1-0.1-1.5-0.1
			c-0.5,0-0.8,0-1.2,0.1C88.2,130,87.8,130.1,87.8,130.1z M96,98.7c0,0,0.1,1.4,0.3,3.8c0.1,1.2,0.4,2.7,0.6,4.3
			c0.4,1.6,0.7,3.5,1.3,5.5c0.1,0.5,0.3,1,0.4,1.5c0.2,0.5,0.4,1,0.6,1.5c0.4,1.1,0.8,2.1,1.3,3.2c0.2,0.5,0.5,1.1,0.7,1.6
			c0.3,0.5,0.6,1.1,0.9,1.6c0.6,1.1,1.2,2.2,1.8,3.3c1.3,2.2,2.8,4.4,4.4,6.7c1.6,2.2,3.3,4.4,4.9,6.7c1.6,2.2,3.3,4.5,4.9,6.7
			c1.6,2.3,3.1,4.5,4.4,6.8c0.7,1.1,1.3,2.3,1.8,3.4c0.6,1.1,1,2.3,1.4,3.4c0.5,1.1,0.7,2.3,1,3.4c0.2,1.1,0.5,2.2,0.6,3.2
			c0.3,2.1,0.2,4.1-0.1,5.7c-0.3,1.7-0.7,3.1-1.2,4.3c-0.5,1.1-1,2-1.3,2.5c-0.2,0.3-0.3,0.5-0.4,0.6c-0.1,0.2-0.1,0.2-0.1,0.2
			s0-0.1,0.1-0.2c0.1-0.1,0.2-0.4,0.4-0.7c0.3-0.6,0.7-1.4,1.1-2.6c0.4-1.1,0.7-2.6,1-4.2c0.1-1.7,0.1-3.6-0.2-5.6
			c-0.1-1-0.4-2.1-0.7-3.1c-0.4-1-0.6-2.2-1.1-3.2c-0.5-1.1-0.9-2.2-1.5-3.3c-0.6-1.1-1.1-2.2-1.8-3.3c-1.3-2.2-2.9-4.4-4.4-6.6
			c-1.6-2.2-3.2-4.4-4.9-6.7c-1.6-2.2-3.3-4.5-4.9-6.7c-1.6-2.3-3.1-4.5-4.4-6.8c-0.6-1.1-1.3-2.3-1.8-3.4c-0.3-0.6-0.5-1.1-0.8-1.7
			c-0.2-0.6-0.5-1.1-0.7-1.7c-0.5-1.1-0.9-2.2-1.2-3.3c-0.2-0.5-0.3-1.1-0.5-1.6c-0.1-0.5-0.3-1-0.4-1.6c-0.6-2-0.8-3.9-1.1-5.6
			c-0.1-1.7-0.3-3.2-0.4-4.4C96,100.1,96,98.7,96,98.7z"/>
		<path class="st0" d="M40.9,169.2c0,0-1,1-3.4-0.6c0,0-1.4,10.8,8.7,12.5c0,0,0.2-0.1,0.6-0.4c0.4-0.2,0.9-0.5,1.6-0.8
			c0.3-0.1,0.7-0.2,1.1-0.4c0.4-0.1,0.9-0.2,1.3-0.3c0.5,0,1-0.1,1.5,0c0.5,0,1,0.1,1.5,0.2c0.5,0.1,1,0.3,1.4,0.5
			c0.5,0.2,0.9,0.4,1.3,0.7c0.4,0.2,0.8,0.5,1.1,0.8c0.3,0.3,0.6,0.5,0.9,0.8c0.5,0.5,0.9,1,1.2,1.3c0.3,0.3,0.4,0.5,0.4,0.5
			s-0.2-0.2-0.5-0.4c-0.3-0.3-0.8-0.7-1.4-1.1c-0.3-0.2-0.6-0.5-1-0.7c-0.3-0.2-0.7-0.4-1.1-0.6c-0.4-0.2-0.8-0.4-1.2-0.6
			c-0.4-0.2-0.9-0.3-1.3-0.4c-0.5-0.1-0.9-0.2-1.4-0.2c-0.5-0.1-0.9,0-1.4,0c-0.4,0.1-0.9,0.1-1.3,0.1c-0.4,0.1-0.8,0.1-1.1,0.2
			c-0.3,0.1-0.7,0.2-1,0.3c-0.3,0.1-0.5,0.2-0.7,0.3c-0.4,0.1-0.6,0.2-0.6,0.2s-2.9,2.5-6.1,0.5c0,0,2.1,6.6,10.8,7
			c0,0-0.7,1.7-2.2,1.3c0,0,2.1,4.9,10.9,3.2c0,0-1.5,6.4-6.1,6.6c0,0,5.5,7.1,12.8,0.3c0,0,0.9,2-1.1,3.5c0,0,5.4,1.4,9-2.3
			c0.1-0.1,0.2-0.3,0.4-0.6c0.2-0.2,0.3-0.5,0.6-0.8c0.2-0.3,0.5-0.6,0.8-1c0.3-0.3,0.6-0.7,1-1.1c0.4-0.4,0.8-0.7,1.2-1.1
			c0.4-0.4,0.9-0.7,1.4-1c0.5-0.3,1.1-0.6,1.6-0.9c0.5-0.3,1.2-0.4,1.7-0.6c0.6-0.1,1.2-0.3,1.8-0.3c0.3,0,0.6,0,0.8-0.1
			c0.3,0,0.5,0,0.8,0.1c0.5,0,1,0.1,1.5,0.2c0.4,0.1,0.8,0.2,1.2,0.4c0.3,0.1,0.6,0.3,0.9,0.4c0.5,0.2,0.7,0.4,0.7,0.4
			s-0.3-0.1-0.8-0.3c-0.2-0.1-0.5-0.2-0.9-0.3c-0.3-0.1-0.7-0.1-1.2-0.2c-0.4,0-0.9-0.1-1.4-0.1c-0.2,0-0.5,0-0.8,0
			c-0.3,0-0.5,0.1-0.8,0.1c-0.5,0-1.1,0.2-1.6,0.3c-0.5,0.2-1.1,0.3-1.6,0.6c-0.5,0.3-1.1,0.5-1.5,0.8c-0.5,0.3-1,0.6-1.4,0.9
			c-0.4,0.3-0.9,0.6-1.3,1c-0.4,0.3-0.7,0.7-1.1,1c-0.7,0.6-1.2,1.1-1.5,1.5c-0.3,0.3-0.5,0.5-0.6,0.6c-1,1.1-3.8,5.1-1.2,11.3
			c0,0,2.9-4.1,5.2-2.6c0,0,6.4,3.3,11.4-2.8c0,0.2-1.5,8.9,4.7,5.7c0.4-0.3,1.4-0.8,1.3-3c0,0,2.3-6,9.1-0.7c0,0,5,6.4,6.3,14.6
			c0,0,6.4-8.4,0.8-21.9c-0.3-0.7,3.1-8.7-4.6-15.7c0,0-3.7-3.2-3.1-5.6c0,0-2.9,1.8-2.8,6.8c0,0-1-12.8-12.1-15.3
			c0,0-0.1,2.6-1.6,5.9c-1.5,3.3,1,4.5,1.7,5.8c0,0-1,0-2.7-1.9c0,0-2.4-2.7-1.7-6.8c0,0,0.7-5.1-5.1-8.3c0,0-3.5-2.3-1.9-5.6
			c0,0-4.3,0.9-5.1,4.6c0.1,0.2-0.7,1.8,0.4,4.5c0,0-0.7,0.2-1.7-1.1c0,0-1.7,0.3-1.4,3.1c0,0,0,0.2,0,0.5c0,0.3,0,0.8,0.2,1.3
			c0.1,0.3,0.2,0.5,0.3,0.8c0.1,0.3,0.3,0.5,0.4,0.8c0.3,0.5,0.8,1.1,1.3,1.6c0.2,0.3,0.5,0.5,0.8,0.7c0.3,0.2,0.5,0.4,0.8,0.6
			c0.3,0.2,0.5,0.4,0.8,0.6c0.3,0.2,0.5,0.3,0.7,0.5c0.4,0.3,0.8,0.5,1.1,0.7c0.3,0.2,0.4,0.3,0.4,0.3s-0.2,0-0.5-0.2
			c-0.3-0.1-0.7-0.2-1.2-0.5c-0.5-0.2-1.1-0.5-1.7-0.9c-0.3-0.2-0.6-0.4-0.9-0.6c-0.3-0.2-0.6-0.5-0.8-0.7c-0.3-0.3-0.5-0.5-0.7-0.9
			c-0.2-0.3-0.4-0.6-0.6-0.9c-0.2-0.3-0.3-0.6-0.4-1c-0.1-0.3-0.1-0.6-0.2-0.9c0-0.3,0-0.5,0-0.8c0-0.2,0.1-0.4,0.1-0.6
			c0.1-0.3,0.2-0.5,0.2-0.5s-1.4-3.6-8.1-6.8c0,0-4.2-2-11.8-2c0,0-7.9-1-7.8-6.2c0,0,0.5-2.4,3.2-2.1c0,0-5.2-3.9-7.7,1.7
			C37.8,156.9,34.1,164.3,40.9,169.2z M89.5,207.1c0,0,0.1-0.2,0.3-0.7c0.1-0.2,0.2-0.5,0.3-0.7c0.1-0.3,0.4-0.6,0.6-0.9
			c0.1-0.2,0.2-0.3,0.4-0.5c0.1-0.2,0.3-0.3,0.5-0.5c0.2-0.2,0.3-0.3,0.5-0.5c0.2-0.2,0.4-0.2,0.6-0.4c0.4-0.3,0.9-0.4,1.5-0.6
			c0.3-0.1,0.5-0.1,0.8-0.1c0.3,0,0.5-0.1,0.8-0.1c0.5,0,1.1,0,1.6,0.2c0.5,0.1,1,0.2,1.5,0.4c0.5,0.1,0.9,0.4,1.3,0.5
			c0.4,0.2,0.8,0.4,1.1,0.6c0.7,0.4,1.2,0.8,1.6,1.1c0.3,0.3,0.6,0.4,0.6,0.4s-0.2-0.1-0.6-0.3c-0.4-0.2-1-0.5-1.7-0.8
			c-0.7-0.3-1.5-0.6-2.4-0.9c-0.5-0.1-0.9-0.2-1.4-0.3c-0.5-0.1-1-0.1-1.5-0.1c-0.2,0-0.5,0-0.7,0.1c-0.2,0-0.5,0-0.7,0.1
			c-0.2,0.1-0.5,0.1-0.7,0.2c-0.2,0.1-0.4,0.2-0.6,0.3c-0.2,0.1-0.4,0.2-0.6,0.3c-0.2,0.1-0.4,0.3-0.5,0.4c-0.2,0.1-0.3,0.2-0.5,0.4
			c-0.1,0.1-0.3,0.3-0.4,0.4c-0.2,0.3-0.5,0.5-0.7,0.8c-0.2,0.3-0.3,0.5-0.5,0.7C89.6,206.9,89.5,207.1,89.5,207.1z M59.8,192.7
			c0,0,0.2-0.2,0.5-0.6c0.2-0.2,0.4-0.5,0.6-0.7c0.2-0.3,0.5-0.5,0.9-0.8c0.2-0.1,0.3-0.3,0.5-0.5c0.2-0.1,0.4-0.3,0.6-0.4
			c0.2-0.1,0.4-0.3,0.7-0.5c0.2-0.1,0.5-0.3,0.7-0.4c0.3-0.1,0.5-0.3,0.8-0.4c0.3-0.1,0.6-0.2,0.8-0.3c0.6-0.2,1.1-0.3,1.7-0.5
			c0.6-0.1,1.2-0.2,1.8-0.2c0.6,0,1.2,0,1.7,0c1.1,0,2.2,0.2,3,0.4c1.7,0.4,2.8,0.9,2.8,0.9s-0.3-0.1-0.8-0.2
			c-0.5-0.1-1.2-0.2-2.1-0.3c-0.4,0-0.9-0.1-1.4-0.1c-0.5,0-1,0-1.6,0c-0.5,0-1.1,0.1-1.7,0.1c-0.6,0.1-1.1,0.1-1.7,0.3
			c-0.6,0.1-1.1,0.2-1.7,0.4c-0.3,0.1-0.5,0.2-0.8,0.3c-0.3,0.1-0.5,0.2-0.7,0.3c-0.2,0.1-0.5,0.2-0.7,0.3c-0.2,0.1-0.4,0.3-0.7,0.4
			c-0.2,0.1-0.4,0.2-0.6,0.4c-0.2,0.1-0.4,0.3-0.5,0.4c-0.3,0.3-0.7,0.5-0.9,0.7c-0.3,0.2-0.5,0.5-0.7,0.6
			C60,192.5,59.8,192.7,59.8,192.7z M48.5,169.7c0,0,0.8,0.8,2.1,2.1c0.7,0.7,1.6,1.4,2.6,2.3c1.1,0.8,2.2,1.8,3.6,2.6
			c0.3,0.2,0.7,0.5,1,0.7c0.4,0.2,0.7,0.4,1.1,0.6c0.8,0.4,1.6,0.9,2.4,1.2c0.4,0.2,0.9,0.4,1.3,0.6c0.4,0.2,0.9,0.4,1.4,0.5
			c0.9,0.4,1.9,0.7,2.8,1c1.9,0.7,4,1.2,6.1,1.7c2.1,0.5,4.2,1,6.4,1.4c2.1,0.5,4.3,1,6.4,1.5c2.1,0.5,4.1,1.1,6.1,1.8
			c1,0.3,1.9,0.7,2.9,1.1c0.9,0.4,1.8,0.9,2.6,1.3c0.9,0.4,1.6,1,2.4,1.5c0.7,0.6,1.4,1.1,2,1.6c1.2,1.1,2.2,2.3,2.9,3.5
			c0.7,1.2,1.2,2.2,1.5,3.2c0.3,0.9,0.4,1.7,0.5,2.2c0,0.3,0.1,0.4,0.1,0.6c0,0.1,0.1,0.2,0.1,0.2s0-0.1-0.1-0.2
			c0-0.1-0.1-0.3-0.1-0.6c-0.1-0.5-0.3-1.2-0.6-2.1c-0.3-0.9-0.9-1.9-1.6-3c-0.8-1.1-1.7-2.2-3-3.2c-0.6-0.5-1.3-1-2-1.5
			c-0.8-0.4-1.5-1-2.3-1.4c-0.8-0.4-1.7-0.9-2.6-1.2c-0.9-0.4-1.8-0.8-2.8-1c-1.9-0.6-4-1.2-6.1-1.7c-2.1-0.5-4.2-1-6.4-1.4
			c-2.1-0.5-4.3-1-6.4-1.5c-2.1-0.5-4.2-1.1-6.1-1.8c-1-0.3-1.9-0.7-2.8-1.1c-0.5-0.2-0.9-0.4-1.4-0.6c-0.4-0.2-0.9-0.4-1.3-0.7
			c-0.9-0.4-1.7-0.9-2.4-1.3c-0.4-0.2-0.8-0.5-1.1-0.7c-0.4-0.2-0.7-0.5-1-0.7c-1.4-0.9-2.5-1.9-3.5-2.8c-1-0.9-1.8-1.7-2.5-2.4
			C49.3,170.5,48.5,169.7,48.5,169.7z"/>
		<path class="st0" d="M104.1,225.9c-0.6-0.7-1.1-1.4-1.6-2c0,0-0.3-0.3-0.9-0.7c-0.3-0.2-0.6-0.5-1-0.8c-0.4-0.3-0.9-0.6-1.4-0.9
			c-0.2-0.2-0.5-0.3-0.8-0.5c-0.3-0.2-0.6-0.3-0.9-0.5c-0.3-0.2-0.6-0.3-0.9-0.5c-0.3-0.1-0.7-0.3-1-0.4c-0.3-0.1-0.7-0.3-1.1-0.4
			c-0.4-0.1-0.7-0.2-1.1-0.3c-0.4-0.1-0.8-0.2-1.2-0.3c-0.4-0.1-0.8-0.1-1.2-0.2c-0.8-0.1-1.6-0.1-2.4-0.1c-0.8,0-1.6,0.1-2.3,0.2
			c-0.7,0.1-1.4,0.3-2.1,0.5c-0.7,0.2-1.3,0.4-1.8,0.7c-1.1,0.5-2,1-2.6,1.4c-0.6,0.4-0.9,0.6-0.9,0.6s0.3-0.3,0.9-0.7
			c0.6-0.4,1.4-1,2.5-1.5c0.6-0.3,1.2-0.5,1.8-0.8c0.7-0.2,1.4-0.4,2.1-0.6c0.7-0.2,1.5-0.2,2.3-0.3c0.8,0,1.6,0,2.4,0.1
			c0.4,0,0.8,0.1,1.2,0.2c0.4,0.1,0.8,0.2,1.2,0.3c0.4,0.1,0.8,0.2,1.1,0.4c0.4,0.1,0.7,0.3,1.1,0.4c0.3,0.2,0.7,0.3,1,0.5
			c0.3,0.2,0.6,0.3,0.9,0.5c0.3,0.2,0.6,0.4,0.9,0.5c0.3,0.2,0.5,0.3,0.8,0.5c0.2,0.2,0.5,0.3,0.7,0.5c0.2,0.2,0.4,0.3,0.6,0.5
			c0.4,0.3,0.7,0.6,1,0.8c0.5,0.4,0.8,0.7,0.8,0.7c-13.1-15.3-23.5-10.5-23.9-10.3c1.1,2.7,2.7,3.6,2.7,3.6
			c-7.3-2.1-9.9,2.3-9.9,2.3c1.1,1.9,5,3,5,3c-5.5-1.2-10,7.7-10,7.7c3.1,1.8,5.9,0.7,5.9,0.7c-7.6,2.6-4.4,10.9-4.4,10.9
			c5.1,10,10.3,3.2,10.3,3.2c-7.4-1.5-1.7-5.1-1.7-5.1c5.4-1.7,6.3-4.4,6.3-6.2c1.5,4.7,6.6,2.4,6.6,2.4
			C90.8,223.1,104.4,226.2,104.1,225.9z M84.8,226.2c0.3-0.2,0.7-0.5,1.1-0.8c0.2-0.1,0.4-0.3,0.6-0.4c0.2-0.1,0.5-0.2,0.7-0.4
			c0.5-0.3,1-0.5,1.6-0.7c0.3-0.1,0.6-0.2,0.9-0.3c0.1,0,0.3-0.1,0.4-0.1c0.2,0,0.3-0.1,0.5-0.1c0.3-0.1,0.6-0.1,0.9-0.2
			c0.3-0.1,0.6-0.1,1-0.1c0.6-0.1,1.3-0.1,1.9-0.1l0.5,0l0.5,0c0.3,0,0.6,0.1,0.9,0.1c0.3,0,0.6,0.1,0.9,0.1
			c0.3,0.1,0.6,0.1,0.8,0.2c0.5,0.1,1,0.3,1.5,0.5c0.4,0.2,0.9,0.3,1.2,0.5c0.3,0.2,0.6,0.3,0.9,0.4c0.5,0.3,0.8,0.4,0.8,0.4
			s-0.3-0.1-0.8-0.3c-0.3-0.1-0.6-0.2-0.9-0.4c-0.1,0-0.2-0.1-0.3-0.1c-0.1,0-0.2-0.1-0.3-0.1c-0.2-0.1-0.4-0.1-0.6-0.2
			c-0.5-0.1-0.9-0.3-1.5-0.4c-0.3,0-0.5-0.1-0.8-0.1c-0.3-0.1-0.6-0.1-0.9-0.1c-0.3,0-0.6,0-0.9-0.1l-0.5,0l-0.5,0
			c-0.6,0-1.2,0-1.9,0.1c-0.3,0-0.6,0.1-0.9,0.1c-0.3,0.1-0.6,0.1-0.9,0.2c-0.1,0-0.3,0.1-0.4,0.1c-0.1,0-0.3,0.1-0.4,0.1
			c-0.3,0.1-0.6,0.2-0.9,0.3c-0.5,0.2-1.1,0.4-1.6,0.6c-0.2,0.1-0.5,0.2-0.7,0.3c-0.2,0.1-0.4,0.2-0.6,0.4c-0.4,0.2-0.8,0.5-1.1,0.7
			c-0.3,0.2-0.6,0.4-0.8,0.6c-0.2,0.2-0.4,0.3-0.5,0.4c-0.1,0.1-0.2,0.2-0.2,0.2s0.2-0.3,0.6-0.6C84.3,226.7,84.5,226.5,84.8,226.2z
			 M103,225.3c0,0-0.5-0.4-1.3-1c-0.2-0.2-0.4-0.3-0.7-0.5c-0.3-0.2-0.5-0.3-0.8-0.5c-0.3-0.2-0.6-0.3-1-0.5
			c-0.4-0.2-0.7-0.4-1.1-0.5c-0.4-0.2-0.8-0.4-1.3-0.5c-0.4-0.1-0.9-0.3-1.4-0.4c-0.5-0.1-1-0.2-1.5-0.2c-0.3,0-0.5,0-0.8-0.1
			c-0.1,0-0.3,0-0.4,0l-0.4,0c-0.3,0-0.5,0-0.8,0c-0.3,0-0.5,0.1-0.8,0.1c-0.6,0-1.1,0.2-1.6,0.3c-0.3,0-0.5,0.1-0.8,0.2
			c-0.3,0.1-0.5,0.2-0.8,0.3c-0.5,0.2-1.1,0.4-1.6,0.7c-1.1,0.5-2,1.1-3,1.7c-0.9,0.6-1.8,1.3-2.7,2c-0.8,0.7-1.6,1.4-2.3,2.1
			c-0.7,0.7-1.3,1.4-1.9,2c-1.1,1.3-2,2.4-2.6,3.3c-0.6,0.8-0.9,1.3-0.9,1.3s0.3-0.5,0.9-1.4c0.6-0.8,1.4-2,2.5-3.4
			c0.6-0.7,1.2-1.4,1.9-2.1c0.7-0.7,1.4-1.5,2.3-2.2c0.8-0.7,1.7-1.4,2.7-2.1c1-0.6,2-1.2,3-1.7c0.5-0.3,1.1-0.4,1.6-0.7
			c0.3-0.1,0.6-0.2,0.8-0.3c0.3-0.1,0.6-0.2,0.8-0.2c0.6-0.1,1.1-0.2,1.7-0.3c0.3,0,0.6-0.1,0.8-0.1c0.3,0,0.6,0,0.8,0l0.4,0
			c0.1,0,0.3,0,0.4,0c0.3,0,0.5,0.1,0.8,0.1c0.5,0.1,1,0.2,1.5,0.3c0.5,0.1,0.9,0.3,1.4,0.4c0.4,0.2,0.9,0.4,1.3,0.5
			c0.4,0.2,0.8,0.4,1.1,0.6c0.3,0.2,0.7,0.4,1,0.6c0.3,0.2,0.6,0.4,0.8,0.6c0.3,0.2,0.5,0.3,0.7,0.5
			C102.6,224.9,103,225.3,103,225.3z"/>
		<path class="st0" d="M106.6,235.9c0,0,1.6,2.9,4.1,1.2c-0.6,0.9-1.1,2.5,0.9,5.3c0,0,1.5,3.8-2.6,1.9c0,0,0.1,5.2,6.2,2.1
			c0,0,4.5-2.9,1.8-6.9c0,0,1,1.5,3.1,1.8c0,0,1-6-2.1-7.4c0,0,2.3,0.9,3.5,0.3c0,0,0.3-3-4-4.6c0,0,1.1,0.1,2.6-0.8
			c-0.1-0.2-3.5-6.3-15.4-3.5c0,0,0.3,0,0.7-0.1c0.2,0,0.5,0,0.8-0.1c0.1,0,0.3,0,0.5,0c0.2,0,0.3,0,0.5,0c0.2,0,0.4,0,0.6,0
			c0.2,0,0.4,0,0.6,0.1c0.2,0,0.4,0.1,0.6,0.1c0.2,0,0.4,0.1,0.7,0.1c0.2,0.1,0.4,0.1,0.7,0.2c0.2,0.1,0.5,0.2,0.7,0.2
			c0.2,0.1,0.5,0.2,0.7,0.3c0.2,0.1,0.4,0.2,0.7,0.3c0.4,0.2,0.8,0.5,1.2,0.8c0.4,0.3,0.7,0.6,1,1c0.3,0.3,0.6,0.7,0.8,1
			c0.2,0.3,0.4,0.7,0.6,1c0.3,0.7,0.6,1.2,0.7,1.6c0.1,0.4,0.2,0.7,0.2,0.7s-0.1-0.2-0.2-0.6c-0.1-0.4-0.4-1-0.8-1.6
			c-0.2-0.3-0.4-0.6-0.6-1c-0.2-0.3-0.5-0.7-0.8-1c-0.3-0.3-0.7-0.6-1-0.9c-0.4-0.3-0.8-0.6-1.2-0.8c-0.2-0.1-0.4-0.2-0.6-0.3
			c-0.2-0.1-0.4-0.2-0.7-0.3c-0.2-0.1-0.4-0.2-0.7-0.2c-0.2-0.1-0.4-0.1-0.7-0.2c-0.2-0.1-0.4-0.1-0.7-0.1c-0.2,0-0.4-0.1-0.6-0.1
			c-0.2,0-0.4-0.1-0.6-0.1c-0.2,0-0.4,0-0.6,0c-0.4,0-0.7,0-1,0c-0.3,0-0.6,0-0.8,0c-0.4,0-0.6,0-0.7,0c-0.5,0.1-1,0.2-1.5,0.4
			C102.8,225.7,110.5,229,106.6,235.9z M112.5,233.3c0.1,0.3,0.1,0.5,0.1,0.5s0,0,0-0.1C112.5,233.6,112.5,233.5,112.5,233.3
			c-0.1-0.1-0.2-0.3-0.2-0.6c-0.1-0.2-0.2-0.5-0.3-0.7c-0.1-0.1-0.1-0.3-0.2-0.4c-0.1-0.1-0.1-0.3-0.2-0.4c-0.1-0.3-0.4-0.6-0.5-0.9
			c-0.1-0.1-0.2-0.3-0.3-0.4c-0.1-0.1-0.1-0.1-0.2-0.2c-0.1-0.1-0.1-0.1-0.2-0.2c-0.1-0.1-0.2-0.3-0.4-0.4c-0.1-0.1-0.3-0.3-0.4-0.4
			c-0.3-0.3-0.6-0.5-0.9-0.7l-0.2-0.2l-0.2-0.1c-0.2-0.1-0.3-0.2-0.5-0.3c-0.1-0.1-0.3-0.2-0.5-0.2c-0.2-0.1-0.3-0.1-0.5-0.2
			c-0.3-0.2-0.6-0.2-0.9-0.3c-0.1,0-0.3-0.1-0.4-0.1c-0.1,0-0.1,0-0.2-0.1c-0.1,0-0.1,0-0.2,0c-0.2-0.1-0.4-0.1-0.6-0.2
			c-0.3-0.1-0.5-0.1-0.5-0.1s0.2,0,0.5,0.1c0.2,0,0.4,0.1,0.6,0.1c0.2,0,0.5,0.1,0.8,0.2c0.3,0.1,0.6,0.2,0.9,0.3
			c0.2,0.1,0.3,0.1,0.5,0.2c0.2,0.1,0.3,0.1,0.5,0.2c0.2,0.1,0.3,0.2,0.5,0.3l0.2,0.1l0.2,0.2c0.3,0.2,0.6,0.5,0.9,0.7
			c0.1,0.1,0.3,0.3,0.4,0.4c0.1,0.1,0.3,0.3,0.4,0.4c0.1,0.1,0.1,0.1,0.2,0.2c0.1,0.1,0.1,0.2,0.2,0.2c0.1,0.2,0.2,0.3,0.3,0.4
			c0.2,0.3,0.4,0.6,0.5,0.9c0.1,0.2,0.1,0.3,0.2,0.4c0.1,0.1,0.1,0.3,0.2,0.4c0.1,0.3,0.2,0.5,0.3,0.7
			C112.4,232.9,112.4,233.1,112.5,233.3z M104.7,225.6c0.2,0,0.3,0,0.5,0c0.2,0,0.4,0,0.6,0c0.2,0,0.4,0,0.7,0.1
			c0.2,0,0.5,0,0.8,0.1c0.3,0.1,0.5,0.1,0.8,0.2c0.3,0.1,0.6,0.2,0.8,0.3c0.3,0.1,0.6,0.2,0.8,0.4c0.1,0.1,0.3,0.2,0.4,0.2
			c0.1,0,0.1,0.1,0.2,0.1l0.2,0.1c0.1,0.1,0.3,0.2,0.4,0.3c0.1,0.1,0.3,0.2,0.4,0.3c0.3,0.2,0.5,0.5,0.7,0.7
			c0.1,0.1,0.2,0.3,0.3,0.4c0.1,0.1,0.2,0.3,0.3,0.4c0.2,0.3,0.4,0.6,0.6,0.9c0.4,0.6,0.6,1.3,0.9,1.9c0.2,0.7,0.4,1.3,0.6,2
			c0.2,0.6,0.3,1.3,0.3,1.9c0.1,0.6,0.1,1.2,0.2,1.7c0.1,1.1,0,1.9,0,2.5c0,0.6-0.1,1-0.1,1s0-0.4,0-1c0-0.6,0-1.5-0.1-2.5
			c0-0.5-0.1-1.1-0.2-1.7c-0.1-0.6-0.2-1.2-0.4-1.9c-0.1-0.6-0.4-1.3-0.6-1.9c-0.3-0.6-0.5-1.3-0.9-1.9c-0.2-0.3-0.4-0.6-0.5-0.9
			c-0.1-0.1-0.2-0.3-0.3-0.4c-0.1-0.1-0.2-0.3-0.3-0.4c-0.2-0.3-0.4-0.5-0.7-0.7c-0.1-0.1-0.2-0.2-0.4-0.3c-0.1-0.1-0.3-0.2-0.4-0.3
			l-0.2-0.1c-0.1,0-0.1-0.1-0.2-0.1c-0.1-0.1-0.3-0.2-0.4-0.2c-0.3-0.2-0.6-0.3-0.8-0.4c-0.3-0.1-0.6-0.2-0.8-0.3
			c-0.3-0.1-0.5-0.1-0.8-0.2c-0.3-0.1-0.5-0.1-0.7-0.1c-0.2,0-0.5-0.1-0.7-0.1c-0.2,0-0.4,0-0.6,0
			C105.1,225.7,104.9,225.7,104.7,225.6c-0.6,0.1-1,0.1-1,0.1S104.1,225.7,104.7,225.6z"/>
		<g>
			<path class="st0" d="M120.2,109.3c0,0,0.1,0,0.1,0C120.2,109.3,120.2,109.3,120.2,109.3z"/>
			<path class="st0" d="M103.9,89c2.5-1.7,4.7,1.5,4.7,1.5c0.8,1.7,2.4,1.8,3.4,1.6c-2.8,0.9-2.9,3.8-2.9,3.8
				c0.9-0.7,2.1-0.2,2.1-0.2c-1.2,3.8,1.3,6.6,1.3,6.6c3.9,3.5,10.2-1,10.2-1c-0.3,7.3-2,7.9-2.4,8c13,0.4,11.7-14.4,11.7-14.4
				c0.8-9.4,3.2-9.8,3.2-9.8c3.4-2.2,3.5,1.4,3.5,1.4c5.1-6.1-1.8-6.3-1.8-6.3c1.3,0,3-0.5,3.4-2.4c0.4-1.9,2.6-3.6,2.6-3.6
				c-0.7-1.3-2.2-1.5-3.1-1.5c1.2-0.3,2.2-1.7,1.8-3c-0.6-1.6,0.4-3.8,0.4-3.8c1-2.7,2.8-0.9,2.8-0.9c-4-7.1-11.1,3.3-11.1,3.3
				c0.7-0.9-0.3-2.3-0.3-2.3c1.3-2.7,2.5-2.8,2.5-2.8c0.2-1-2.5-2.1-2.5-2.1c1.6-2,3.6-0.8,3.6-0.8c0.2-6.4-7.4-4-7.4-4
				c3.5-6.2,8.7-6.7,8.7-6.7c3.7-0.5,4.9,3.4,4.9,3.4c-1.1-1.2-2.9-0.5-3.1-0.5c-3,2.7-0.5,5.5-0.5,5.5c2.1,3.8,6.2-2,6.2-2
				c3.5-7.3-4.2-10.7-4.2-10.7c-11-4.9-18.2,6.1-18.2,6.1c1-2.2-0.8-4.1-0.9-4.5c-4.6,1.9-4.4,8-4.4,8c-0.8-1.6-2.8-2.1-2.8-2.1
				c-1.8,3.3-0.4,7.3-0.4,7.3s0.9,1.1,2,2.9c0.5,0.9,1.2,2,1.8,3.2c0.3,0.6,0.6,1.2,0.9,1.8c0.3,0.6,0.6,1.3,0.8,1.9
				c0.5,1.3,1,2.7,1.3,4c0.2,0.6,0.3,1.3,0.4,1.9c0.1,0.6,0.1,1.2,0.2,1.7c0.1,0.5,0,1,0,1.5c0,0.2,0,0.4,0,0.6
				c0,0.2-0.1,0.4-0.1,0.5c-0.1,0.6-0.2,0.9-0.2,0.9s0-0.4,0.1-1c0-0.2,0-0.3,0-0.5c0-0.2,0-0.4,0-0.6c0-0.4,0-0.9-0.1-1.4
				c-0.1-0.5-0.1-1.1-0.3-1.7c-0.1-0.6-0.3-1.2-0.5-1.8c-0.2-0.6-0.4-1.3-0.6-1.9c-0.2-0.7-0.5-1.3-0.7-1.9
				c-0.5-1.3-1.1-2.6-1.6-3.8c-0.6-1.2-1.1-2.3-1.5-3.2c-0.9-1.9-1.6-3.1-1.6-3.1c-0.5-0.7-1.3-1-1.3-1c-0.4,0.5-0.5,1.6-0.6,2.1
				c0.2-2.9-4.1-4.3-4.1-4.3c-0.5-1.3-0.2-2.1-0.2-2.1c-4.2,5-1.2,9.7-1.2,9.7c-2.1-1.1-2.5-0.5-2.5-0.5c-0.2,5.6,4.2,6.7,4.2,6.7
				c-0.6,1.4-0.2,3.6-0.2,3.6c-1.8-1-3.4,1-3.4,1c0.2,4.7,5,7,5,7s0.7-0.2,1.8-0.3c0.6,0,1.2,0,1.9,0.2c0.7,0.1,1.4,0.4,2.1,0.7
				c0.7,0.4,1.3,0.8,1.8,1.3c0.3,0.2,0.5,0.5,0.7,0.7c0.2,0.3,0.4,0.5,0.5,0.7c0.3,0.5,0.5,0.9,0.6,1.2c0.1,0.3,0.2,0.5,0.2,0.5
				s-0.1-0.1-0.3-0.4c-0.1-0.1-0.2-0.3-0.3-0.5c-0.1-0.2-0.3-0.3-0.5-0.6c-0.2-0.2-0.4-0.4-0.6-0.6c-0.2-0.2-0.5-0.4-0.7-0.6
				c-0.2-0.2-0.5-0.4-0.8-0.6c-0.3-0.2-0.6-0.3-0.9-0.5c-0.6-0.3-1.3-0.6-1.9-0.7c-0.6-0.2-1.2-0.3-1.8-0.4c-0.5-0.1-1-0.1-1.3-0.1
				c-0.3,0-0.5,0-0.5,0C106.1,82.5,103.9,89,103.9,89z M129.8,78.6c0-0.5,0-1,0.1-1.5c0-0.5,0.1-1,0.2-1.5c0.2-1,0.4-2,0.7-3
				c0.1-0.5,0.4-0.9,0.5-1.3c0.2-0.4,0.4-0.8,0.6-1.1c0.4-0.7,0.8-1.2,1.1-1.5c0.3-0.3,0.5-0.5,0.5-0.5s-0.2,0.2-0.4,0.6
				c-0.3,0.4-0.6,0.9-0.9,1.6c-0.3,0.7-0.6,1.5-0.9,2.4c-0.1,0.5-0.2,0.9-0.3,1.4c-0.1,0.5-0.2,1-0.3,1.5c-0.1,0.5-0.2,1-0.2,1.5
				c-0.1,0.5-0.1,1-0.1,1.5c0,0.5-0.1,0.9-0.1,1.4c0,0.4,0,0.8-0.1,1.2c0,0.8,0,1.4-0.1,1.9c0,0.4,0,0.7,0,0.7s0-0.3-0.1-0.7
				c0-0.4-0.2-1.1-0.2-1.9c0-0.4,0-0.8-0.1-1.2C129.8,79.6,129.8,79.1,129.8,78.6z M128.1,86c-0.1-1.4-0.2-2.8-0.3-4.2
				c-0.2-1.4-0.4-2.7-0.6-4c-0.3-1.3-0.6-2.5-0.9-3.7c-0.3-1.2-0.7-2.3-1-3.3c-0.3-1-0.6-1.9-0.9-2.7c-0.3-0.8-0.6-1.5-0.8-2.1
				c-0.4-1.2-0.7-1.8-0.7-1.8s0.3,0.6,0.9,1.7c0.3,0.6,0.6,1.2,1,2c0.4,0.8,0.8,1.7,1.1,2.7c0.4,1,0.8,2.1,1.2,3.3
				c0.3,1.2,0.7,2.4,1,3.7c0.3,1.3,0.5,2.7,0.7,4.1c0.2,1.4,0.3,2.8,0.4,4.3c0,1.4,0,2.9-0.1,4.3c-0.1,1.4-0.3,2.8-0.5,4.1
				c-0.2,1.3-0.6,2.6-0.9,3.8c-0.2,0.6-0.4,1.2-0.6,1.7c-0.2,0.5-0.4,1.1-0.6,1.6c-0.2,0.5-0.4,1-0.6,1.4c-0.2,0.4-0.4,0.8-0.6,1.2
				c-0.4,0.8-0.8,1.4-1.1,1.9c-0.3,0.5-0.6,0.9-0.9,1.2c-0.2,0.3-0.4,0.4-0.3,0.4c0,0,0.1-0.1,0.3-0.4c0.2-0.3,0.4-0.7,0.7-1.2
				c0.3-0.5,0.6-1.2,1-2c0.2-0.4,0.3-0.8,0.5-1.3c0.2-0.5,0.3-0.9,0.5-1.4c0.2-0.5,0.3-1,0.5-1.6c0.1-0.5,0.4-1.1,0.5-1.7
				c0.3-1.2,0.6-2.4,0.7-3.7c0.2-1.3,0.3-2.7,0.4-4C128.1,88.8,128.1,87.4,128.1,86z"/>
		</g>
	</g>
	<text transform="matrix(1 0 0 1 208.721 357.2383)" class="st1 st3 st4">1970</text>
	<circle class="st1" cx="201.5" cy="351.3" r="1.4"/>
	<circle class="st1" cx="240" cy="351.3" r="1.4"/>
	<g>
		<g>
			<g>
				<path class="st0" d="M251.6,351.7l-1.1,2c12,6.4,22.1,5.6,28.5,3.7c7-2,11-5.5,11.2-5.7c10.2-8.1,19.8-11.7,28.4-10.6
					c9.5,1.2,14.5,7.9,14.5,7.9c1.9,2.4,2.7,5.4,2.4,8.4c-0.4,3-1.9,5.7-4.3,7.6c-1.9,1.5-4.3,2.1-6.8,1.8c-2.4-0.4-4.5-1.7-6-3.7
					c-0.9-1.2-1.2-2.8-1.1-4.3c0.3-2.8,1.7-4.9,3.8-5.7c1.8-0.7,3.8-0.4,5.3,0.8c1.4,1.1,1.9,3.2,1.3,4.9c-0.5,1.2-1.4,2-2.5,2.1
					c-1,0.2-2.1-0.3-2.8-1.1l-1.8,1.4c1.2,1.5,3,2.2,4.9,2c1.9-0.3,3.5-1.6,4.3-3.5c1.1-2.7,0.3-5.8-2-7.6c-2.1-1.7-5-2.2-7.6-1.1
					c-2.8,1.2-4.7,3.9-5.2,7.6c-0.3,2.1,0.3,4.2,1.5,5.9c1.8,2.5,4.5,4.2,7.5,4.6c3.1,0.4,6.1-0.4,8.5-2.3c5.9-4.6,7-13.3,2.3-19.2
					c-0.2-0.3-5.6-7.4-16-8.8c-9.3-1.2-19.5,2.5-30.2,11.1C288.1,350.6,273.1,363.2,251.6,351.7z"/>
			</g>
			<g>
				<path class="st0" d="M329.4,342.7l-0.8,2.2c0.3,0.1,7.9,2.9,11.5-0.5c2-1.9,2.3-5,1-9.4l-2.2,0.7c0.7,2.4,1.2,5.6-0.4,7.1
					C336.4,344.6,331.2,343.3,329.4,342.7z"/>
			</g>
			<g>
				
					<ellipse transform="matrix(0.4542 -0.8909 0.8909 0.4542 -144.3379 483.7111)" class="st0" cx="322.6" cy="359.6" rx="2.6" ry="2.6"/>
			</g>
			<g>
				
					<ellipse transform="matrix(0.4542 -0.8909 0.8909 0.4542 -134.1232 439.0903)" class="st0" cx="291.3" cy="329" rx="2.6" ry="2.6"/>
			</g>
			<g>
				
					<ellipse transform="matrix(3.951240e-02 -0.9992 0.9992 3.951240e-02 -10.5183 661.6025)" class="st0" cx="338.9" cy="336.3" rx="2.6" ry="2.6"/>
			</g>
			<g>
				<path class="st0" d="M255.7,353.3l0,2.3c12.4,0.1,17.3-15.4,17.5-16c3.5-9.7,7.9-15.5,12.9-17c4.3-1.2,7.6,1.3,7.8,1.4
					c1.6,1.1,2.7,2.6,3,4.4c0.4,1.8,0,3.6-1,5.1c-1.6,2.4-4.8,3.1-7.3,1.5c-0.9-0.6-1.5-1.5-1.7-2.5c-0.2-1,0-2.1,0.6-3
					c0.9-1.4,2.7-1.7,4.1-0.8l1.3-1.9c-2.4-1.6-5.7-0.9-7.3,1.5c-0.9,1.4-1.2,3.1-0.9,4.7c0.3,1.6,1.3,3,2.7,4
					c3.5,2.3,8.2,1.3,10.4-2.2c1.3-2,1.8-4.5,1.3-6.9c-0.5-2.4-1.9-4.4-3.9-5.8c-0.1-0.1-4.2-3.3-9.7-1.8
					c-5.8,1.6-10.6,7.8-14.4,18.4C270.9,339.1,266.3,353.4,255.7,353.3z"/>
			</g>
			<g>
				<path class="st0" d="M311.2,345.7c0.7,1.2,1.2,2.5,1.5,3.7c0.3,1.3,0.5,2.6,0.3,3.8c-0.1,0.6-0.3,1.2-0.6,1.7
					c-0.2,0.2-0.3,0.5-0.5,0.7c-0.2,0.2-0.4,0.4-0.6,0.6c-0.5,0.4-1,0.7-1.6,0.9c-0.6,0.3-1.2,0.4-1.8,0.6l0.1,0
					c-1.4,0.2-2.7,0-3.7-0.6c-1-0.6-1.7-1.8-2.3-3c-0.6-1.3-1.2-2.7-1.8-4.1c-0.6-1.4-1.4-2.8-2.3-4.1c-0.9-1.3-2-2.6-3.2-3.6
					c-1.2-1.1-2.5-2-4-2.8c-2.8-1.5-5.9-2.4-8.9-3l-2.3-0.4c-0.8-0.1-1.6-0.2-2.3-0.2c-1.6-0.1-3.1-0.2-4.7-0.1
					c-1.6,0.1-3.1,0.2-4.7,0.6c-1.5,0.3-3.1,0.7-4.5,1.3c-2.9,1.2-5.6,3-7.6,5.4c-2,2.3-3.5,5.2-4,8.2c0.4-1.4,1.2-2.8,2-4
					c0.8-1.2,1.8-2.4,2.8-3.4c2.1-2,4.7-3.5,7.4-4.4c2.8-0.9,5.7-1.3,8.6-1.3c1.5,0,2.9,0.1,4.4,0.2c0.7,0.1,1.4,0.2,2.2,0.3
					l2.2,0.4c2.9,0.6,5.7,1.5,8.1,2.8c2.5,1.4,4.6,3.2,6.2,5.5c1.6,2.3,2.7,5,4.1,7.8c0.7,1.4,1.7,2.9,3.3,3.9
					c1.7,1,3.6,0.9,5.1,0.7l0.1,0l0,0c0.7-0.2,1.4-0.5,2-0.9c0.7-0.3,1.3-0.8,1.8-1.3c0.3-0.3,0.5-0.6,0.8-0.9
					c0.2-0.3,0.4-0.7,0.6-1c0.3-0.7,0.5-1.5,0.5-2.2c0.1-1.5-0.3-2.9-0.9-4.2C312.8,347.9,312.1,346.8,311.2,345.7z"/>
			</g>
		</g>
		<g>
			<g>
				<path class="st0" d="M188.4,351.7l1.1,2c-12,6.4-22.1,5.6-28.5,3.7c-7-2-11-5.5-11.2-5.7c-10.2-8.1-19.8-11.7-28.4-10.6
					c-9.5,1.2-14.5,7.9-14.5,7.9c-1.9,2.4-2.7,5.4-2.4,8.4c0.4,3,1.9,5.7,4.3,7.6c1.9,1.5,4.3,2.1,6.8,1.8c2.4-0.4,4.5-1.7,6-3.7
					c0.9-1.2,1.2-2.8,1.1-4.3c-0.3-2.8-1.7-4.9-3.8-5.7c-1.8-0.7-3.8-0.4-5.3,0.8c-1.4,1.1-1.9,3.2-1.3,4.9c0.5,1.2,1.4,2,2.5,2.1
					c1,0.2,2.1-0.3,2.8-1.1l1.8,1.4c-1.2,1.5-3,2.2-4.9,2c-2-0.3-3.5-1.6-4.3-3.5c-1.1-2.7-0.3-5.8,2-7.6c2.1-1.7,5-2.2,7.6-1.1
					c2.8,1.2,4.7,3.9,5.2,7.6c0.3,2.1-0.3,4.2-1.5,5.9c-1.8,2.5-4.5,4.2-7.5,4.6c-3.1,0.4-6.1-0.4-8.5-2.3c-5.9-4.6-7-13.3-2.3-19.2
					c0.2-0.3,5.6-7.4,16-8.8c9.3-1.2,19.5,2.5,30.2,11.1C151.9,350.6,166.9,363.2,188.4,351.7z"/>
			</g>
			<g>
				<path class="st0" d="M110.6,342.7l0.8,2.2c-0.3,0.1-7.9,2.9-11.5-0.5c-2-1.9-2.3-5-1-9.4l2.2,0.7c-0.7,2.4-1.2,5.6,0.4,7.1
					C103.6,344.6,108.8,343.3,110.6,342.7z"/>
			</g>
			<g>
				
					<ellipse transform="matrix(0.891 -0.454 0.454 0.891 -150.4898 92.5139)" class="st0" cx="117.4" cy="359.6" rx="2.6" ry="2.6"/>
			</g>
			<g>
				<ellipse transform="matrix(0.891 -0.454 0.454 0.891 -133.1643 103.385)" class="st0" cx="148.7" cy="329" rx="2.6" ry="2.6"/>
			</g>
			<g>
				
					<ellipse transform="matrix(0.9992 -3.977908e-02 3.977908e-02 0.9992 -13.2966 4.2886)" class="st0" cx="101.1" cy="336.3" rx="2.6" ry="2.6"/>
			</g>
			<g>
				<path class="st0" d="M184.3,353.3l0,2.3c-12.4,0.1-17.3-15.4-17.5-16c-3.5-9.7-7.9-15.5-12.9-17c-4.3-1.2-7.6,1.3-7.8,1.4
					c-1.6,1.1-2.7,2.6-3,4.4c-0.4,1.8,0,3.6,1,5.1c1.6,2.4,4.8,3.1,7.3,1.5c0.9-0.6,1.5-1.5,1.7-2.5c0.2-1,0-2.1-0.6-3
					c-0.9-1.4-2.7-1.7-4.1-0.8l-1.3-1.9c2.4-1.6,5.7-0.9,7.3,1.5c0.9,1.4,1.2,3.1,0.9,4.7c-0.3,1.6-1.3,3-2.7,4
					c-3.5,2.3-8.2,1.3-10.4-2.2c-1.3-2-1.8-4.5-1.3-6.9c0.5-2.4,1.9-4.4,3.9-5.8c0.1-0.1,4.2-3.3,9.7-1.8
					c5.8,1.6,10.6,7.8,14.4,18.4C169.1,339.1,173.7,353.4,184.3,353.3z"/>
			</g>
			<g>
				<path class="st0" d="M128.8,345.7c-0.7,1.2-1.2,2.5-1.5,3.7c-0.3,1.3-0.5,2.6-0.3,3.8c0.1,0.6,0.3,1.2,0.6,1.7
					c0.1,0.2,0.3,0.5,0.5,0.7c0.2,0.2,0.4,0.4,0.6,0.6c0.5,0.4,1,0.7,1.6,0.9c0.6,0.3,1.2,0.4,1.8,0.6l-0.1,0c1.4,0.2,2.7,0,3.7-0.6
					c1-0.6,1.7-1.8,2.3-3c0.6-1.3,1.2-2.7,1.8-4.1c0.6-1.4,1.4-2.8,2.3-4.1c0.9-1.3,2-2.6,3.2-3.6c1.2-1.1,2.5-2,4-2.8
					c2.8-1.5,5.9-2.4,8.9-3l2.3-0.4c0.8-0.1,1.6-0.2,2.3-0.2c1.5-0.1,3.1-0.2,4.7-0.1c1.6,0.1,3.1,0.2,4.7,0.6
					c1.5,0.3,3.1,0.7,4.5,1.3c2.9,1.2,5.6,3,7.6,5.4c2,2.3,3.5,5.2,4,8.2c-0.4-1.4-1.2-2.8-2-4c-0.8-1.2-1.8-2.4-2.8-3.4
					c-2.1-2-4.7-3.5-7.4-4.4c-2.7-0.9-5.7-1.3-8.6-1.3c-1.5,0-2.9,0.1-4.4,0.2c-0.7,0.1-1.4,0.2-2.2,0.3l-2.2,0.4
					c-2.9,0.6-5.7,1.5-8.1,2.8c-2.5,1.4-4.6,3.2-6.2,5.5c-1.6,2.3-2.7,5-4.1,7.8c-0.7,1.4-1.7,2.9-3.3,3.9c-1.7,1-3.6,0.9-5.1,0.7
					l-0.1,0l0,0c-0.7-0.2-1.4-0.5-2-0.9c-0.7-0.3-1.3-0.8-1.8-1.3c-0.3-0.3-0.5-0.6-0.8-0.9c-0.2-0.3-0.4-0.7-0.6-1
					c-0.3-0.7-0.5-1.5-0.5-2.2c-0.1-1.5,0.3-2.9,0.9-4.2C127.2,347.9,127.9,346.8,128.8,345.7z"/>
			</g>
		</g>
	</g>
	<line class="st5" x1="90" y1="374.7" x2="351.3" y2="374.7"/>
	<line class="st5" x1="90" y1="415.5" x2="351.3" y2="415.5"/>
</g>
<rect x="756.5" y="643.5" width="4" height="3"/>
</svg>
