<?xml version="1.0" encoding="utf-8"?>
<!-- Generator: Adobe Illustrator 21.0.0, SVG Export Plug-In . SVG Version: 6.00 Build 0)  -->
<svg version="1.1" id="Capa_1" xmlns="http://www.w3.org/2000/svg" xmlns:xlink="http://www.w3.org/1999/xlink" x="0px" y="0px"
	 viewBox="0 0 434.7 417.3" style="enable-background:new 0 0 434.7 417.3;" xml:space="preserve">
<style type="text/css">
	.st0{fill:#DBB878;}
	.st1{fill:#212D3D;}
	.st2{fill:none;stroke:#DBB878;stroke-width:3;stroke-miterlimit:10;}
	.st3{fill:none;}
	.st4{enable-background:new    ;}
	.st5{font-family:'BebasNeueRegular';}
	.st6{font-size:14.9225px;}
	.st7{fill:none;stroke:#DBB878;stroke-miterlimit:10;}
</style>
<g>
	<path class="st0" d="M308.7,196.6c0,0-30.2-47-6.1-83.9l-30.1-31.2c0,0-32.2,13.9-54.2,13.2c-22,0.7-54.2-13.2-54.2-13.2
		l-30.2,31.2c24.1,36.9-6.1,83.9-6.1,83.9c-31.8,51.6,34.8,75.5,34.8,75.5c48.3,16.3,55.6,31,55.6,31s7.4-14.7,55.6-31
		C273.9,272.1,340.4,248.2,308.7,196.6z"/>
	<g>
		<path class="st1" d="M299.2,196.2c0,0-27.4-48.2-5.5-81.6l-23.6-24.3c0,0-32.8,14.2-52.8,13.6c-19.9,0.6-51.6-14.5-51.6-14.5
			L141,114.6c21.9,33.4-5.5,81.6-5.5,81.6c-28.8,46.7,31.5,68.3,31.5,68.3c43.7,14.7,50.4,28.1,50.4,28.1s6.7-13.3,50.4-28.1
			C267.7,264.5,327.9,242.9,299.2,196.2z"/>
	</g>
	<g>
		<g>
			<path class="st0" d="M168.2,95.3c4.5,2.1,30.2,13.7,47.9,13.7c0.4,0,0.8,0,1.1,0c0.4,0,0.8,0,1.2,0c17.8,0,44.4-10.9,48.9-12.8
				l20.1,20c-8.3,13.2-9.7,31.2-4.2,52.1c4.3,15.9,11.2,28.1,11.3,28.3c7.2,11.7,9.1,22.8,5.5,32.9c-7.2,20.7-34.8,30.8-35.1,30.9
				c-34.3,11.6-44.9,22.2-47.8,25.9c-2.8-3.7-13.4-14.4-47.7-25.9c-0.3-0.1-27.8-10.2-35.1-30.9c-3.5-10.1-1.7-21.2,5.5-32.9
				c0.1-0.1,7-12.3,11.3-28.2c5.6-20.8,4.1-38.8-4.2-52L168.2,95.3 M168,94.1l-22.2,22.1c20.9,31.9-6.7,79.8-6.7,79.8
				c-27.4,44.6,30.1,65.2,30.1,65.2c41.7,14,48.1,26.8,48.1,26.8s6.4-12.7,48.1-26.8c0,0,57.5-20.6,30.1-65.2c0,0-27.5-48-6.7-79.9
				L267.7,95c0,0-30,13-49.1,13c-0.4,0-0.8,0-1.2,0s-0.8,0-1.1,0C197.1,108,168,94.1,168,94.1L168,94.1z"/>
		</g>
	</g>
	<g>
		<path class="st0" d="M273.3,25.9c-1,1.3,1.3,5.1,1.3,5.1l-3.7,5.3c2.4-5.3-1.2-8.9-1.2-8.9c-7.6-6.9-8.8,10.4-8.8,10.4
			c2.2-4.8,5.1-3.6,5.1-3.6c4.4,1.6,0,8.6,0,8.6c-5.9,10.2-10.4,9.8-10.4,9.8c-11.7,2.1-13.3-14.7-13.3-14.7
			c-20.7,18.4-22.9-3.7-22.9-3.7c-0.2-7.6,1.8-10,1.8-10c4-5.4,7.4,4.3,7.4,4.3c8.5-15-7.7-11.2-7.7-11.2c3.7-8.9-3.7-13.7-3.7-13.7
			s-7.4,4.8-3.7,13.7c0,0-16.2-3.9-7.7,11.2c0,0,3.1-8.5,7.4-4.3c0,0,1.9,1.6,1.8,10c0,0-1.3,21.7-22.9,3.7c0,0-1.5,16.7-13.3,14.7
			c0,0-4.5,0.4-10.4-9.8c0,0-4.4-7,0-8.6c0,0,2.9-1.3,5.1,3.6c0,0-0.7-17.7-8.9-10.2c0,0-3.4,3.4-1,8.7l-3.7-5.3
			c0,0,2.3-3.9,1.3-5.1c-1-1.3-7.5-3.4-10-3.1c-0.7,0.1,26.4,46.2,26.4,46.2s13.9-11.5,39.6-10.6C243,57.5,256.8,69,256.8,69
			s27.1-46.1,26.4-46.2C280.8,22.6,274.3,24.6,273.3,25.9z"/>
		<path class="st2" d="M178.3,72.5c0.3,0.1,34.5-23.3,77.8,0"/>
	</g>
	<path class="st0" d="M217.4,337c0,0-25.1,0.8-42-9c0,0,6.8,12.2,7.5,19.9c0.8,7.7,0,7.7,3.9,8.6s19.3,2.3,30.6,2.3
		s26.7-1.4,30.6-2.3s3.1-0.9,3.9-8.6s7.5-19.9,7.5-19.9C242.4,337.8,217.4,337,217.4,337z"/>
	<path class="st0" d="M4.7,282.2c1.7,0.3,107.9-68.7,115.9-22.9c0,0,1.3,14.9,4.3,17.4c0,0-12.4-11.8-38.1-2.1
		c-25.7,9.7-65.2,31.2-65.2,31.2l6.3-20.8L4.7,282.2z"/>
	<path class="st0" d="M59.2,303.7c-1.2,0,8.7,9.4,8.7,12.8c0,3.5-2.7,9.4,3.7,9c6.3-0.3,63.2-16,92.4-13.2
		c22.1,2.1,34.9,7,41.6,13.2c0,0-8-15.6-10.4-21.9c-2.3-6.2-0.3-10.8-4.7-11.1c-4.3-0.3-48.7-4.7-87.9,5.6
		C63.4,308.5,65.5,303.7,59.2,303.7z"/>
	<g>
		<g>
			<path class="st0" d="M60.4,298.7c0.5,0.6,0.8,1.3,1.1,2c0.2,0.7,0.4,1.4,0.4,2.2c-0.5-0.6-0.8-1.3-1.1-2S60.3,299.5,60.4,298.7z"
				/>
		</g>
		<g>
			<path class="st0" d="M61.9,296c0.7,1.1,1.2,2.3,1.6,3.6c0.4,1.2,0.8,2.5,0.9,3.8c-0.7-1.1-1.2-2.3-1.6-3.6
				C62.4,298.6,62,297.3,61.9,296z"/>
		</g>
		<g>
			<path class="st0" d="M63.2,294.4c0.9,1.3,1.6,2.8,2.2,4.2c0.6,1.5,1.2,3,1.5,4.5c-0.9-1.3-1.6-2.8-2.2-4.2
				C64.2,297.4,63.6,296,63.2,294.4z"/>
		</g>
		<g>
			<path class="st0" d="M64.7,291.7c1.1,1.9,2,3.9,2.8,5.9s1.6,4,2.1,6.1c-1.1-1.9-2-3.9-2.8-5.9S65.3,293.8,64.7,291.7z"/>
		</g>
		<g>
			<path class="st0" d="M66.1,290.2c1.3,2.1,2.4,4.3,3.4,6.5s2,4.5,2.7,6.8c-1.3-2.1-2.4-4.3-3.4-6.5
				C67.8,294.9,66.9,292.6,66.1,290.2z"/>
		</g>
		<g>
			<path class="st0" d="M68,288.7c0.7,1.1,1.3,2.3,1.9,3.5s1.1,2.4,1.7,3.6c0.5,1.2,1.1,2.4,1.5,3.7c0.5,1.2,1,2.5,1.3,3.7
				c-0.7-1.1-1.3-2.3-1.9-3.5s-1.1-2.4-1.7-3.6c-0.5-1.2-1.1-2.4-1.5-3.7C68.9,291.3,68.4,290,68,288.7z"/>
		</g>
		<g>
			<path class="st0" d="M69.2,287.1c0.8,1.2,1.5,2.5,2.2,3.8s1.4,2.6,2,3.9s1.3,2.6,1.9,4c0.6,1.3,1.2,2.7,1.7,4.1
				c-0.8-1.2-1.5-2.5-2.2-3.8s-1.4-2.6-2-3.9s-1.3-2.6-1.9-4S69.7,288.5,69.2,287.1z"/>
		</g>
		<g>
			<path class="st0" d="M71.1,285.4c0.8,1.4,1.6,2.8,2.3,4.2c0.7,1.4,1.4,2.8,2.1,4.2c0.7,1.4,1.3,2.9,1.9,4.3
				c0.6,1.5,1.2,2.9,1.8,4.4c-0.8-1.4-1.6-2.8-2.3-4.2c-0.7-1.4-1.4-2.8-2.1-4.2c-0.7-1.4-1.3-2.9-1.9-4.3
				C72.2,288.4,71.6,286.9,71.1,285.4z"/>
		</g>
		<g>
			<path class="st0" d="M73.1,284.2c0.8,1.4,1.6,2.8,2.3,4.3c0.8,1.4,1.4,2.9,2.1,4.4s1.4,3,2,4.5s1.3,3,1.8,4.5
				c-0.8-1.4-1.6-2.8-2.3-4.3c-0.8-1.4-1.4-2.9-2.1-4.4s-1.4-3-2-4.5C74.3,287.3,73.7,285.8,73.1,284.2z"/>
		</g>
		<g>
			<path class="st0" d="M75.2,282.8c0.9,1.5,1.7,3,2.5,4.6c0.8,1.5,1.6,3.1,2.3,4.7s1.5,3.2,2.2,4.8c0.7,1.6,1.4,3.2,2,4.8
				c-0.9-1.5-1.7-3-2.5-4.6c-0.8-1.5-1.6-3.1-2.3-4.7s-1.5-3.2-2.2-4.8C76.5,286.1,75.8,284.5,75.2,282.8z"/>
		</g>
		<g>
			<path class="st0" d="M77,281.8c0.9,1.5,1.7,3.1,2.5,4.6c0.8,1.6,1.6,3.1,2.3,4.7s1.5,3.2,2.2,4.8c0.7,1.6,1.4,3.2,2,4.9
				c-0.9-1.5-1.7-3.1-2.5-4.6c-0.8-1.6-1.6-3.1-2.3-4.7s-1.5-3.2-2.2-4.8S77.6,283.5,77,281.8z"/>
		</g>
		<g>
			<path class="st0" d="M78.9,280.5c0.9,1.6,1.8,3.2,2.6,4.9c0.9,1.6,1.7,3.3,2.5,4.9c0.8,1.7,1.6,3.3,2.3,5s1.5,3.4,2.1,5.1
				c-0.9-1.6-1.8-3.2-2.6-4.9c-0.9-1.6-1.7-3.3-2.5-4.9c-0.8-1.7-1.6-3.3-2.3-5C80.3,283.9,79.6,282.2,78.9,280.5z"/>
		</g>
		<g>
			<path class="st0" d="M80.5,279.1c1,1.6,1.9,3.3,2.8,5s1.7,3.4,2.6,5.1c0.8,1.7,1.7,3.4,2.4,5.2c0.8,1.7,1.6,3.5,2.2,5.3
				c-1-1.6-1.9-3.3-2.8-5s-1.7-3.4-2.6-5.1c-0.8-1.7-1.7-3.4-2.4-5.2C82,282.7,81.2,280.9,80.5,279.1z"/>
		</g>
		<g>
			<path class="st0" d="M82.3,278.2c1,1.7,1.9,3.4,2.8,5.2c0.9,1.7,1.8,3.5,2.6,5.2c0.8,1.8,1.7,3.5,2.5,5.3s1.6,3.6,2.3,5.4
				c-1-1.7-1.9-3.4-2.8-5.2c-0.9-1.7-1.8-3.5-2.6-5.2c-0.8-1.8-1.7-3.5-2.5-5.3S83,280.1,82.3,278.2z"/>
		</g>
		<g>
			<path class="st0" d="M180.1,317.8c-0.2,1.8-0.7,3.6-1.2,5.3c-0.5,1.7-1.1,3.4-1.9,5.1c0.2-1.8,0.7-3.6,1.2-5.3
				C178.8,321.1,179.3,319.4,180.1,317.8z"/>
		</g>
		<g>
			<path class="st0" d="M177.9,319.6c-0.1,1.4-0.4,2.7-0.8,4s-0.8,2.6-1.5,3.8c0.1-1.4,0.4-2.7,0.8-4S177.2,320.8,177.9,319.6z"/>
		</g>
		<g>
			<path class="st0" d="M181.8,316.9c-0.3,2.1-0.8,4.1-1.4,6.2c-0.6,2-1.2,4-2.1,5.9c0.3-2.1,0.8-4.1,1.4-6.2
				C180.3,320.8,180.9,318.8,181.8,316.9z"/>
		</g>
		<g>
			<path class="st0" d="M183.2,316.6c-0.3,2.2-0.8,4.4-1.4,6.6s-1.2,4.3-2.1,6.4c0.3-2.2,0.8-4.4,1.4-6.6
				C181.7,320.8,182.4,318.7,183.2,316.6z"/>
		</g>
		<g>
			<path class="st0" d="M184.3,316.7c-0.3,2.3-0.7,4.6-1.3,6.8c-0.6,2.2-1.2,4.5-2,6.6c0.3-2.3,0.7-4.6,1.3-6.8
				C182.9,321.1,183.5,318.9,184.3,316.7z"/>
		</g>
		<g>
			<path class="st0" d="M185.9,317c-0.3,2.3-0.8,4.6-1.4,6.9s-1.3,4.5-2.1,6.7c0.3-2.4,0.8-4.6,1.4-6.9
				C184.4,321.5,185,319.2,185.9,317z"/>
		</g>
		<g>
			<path class="st0" d="M187.3,317.4c-0.3,2.4-0.8,4.7-1.3,7c-0.6,2.3-1.2,4.6-2.1,6.8c0.3-2.4,0.8-4.7,1.3-7
				C185.8,321.9,186.5,319.6,187.3,317.4z"/>
		</g>
		<g>
			<path class="st0" d="M188.9,317.8c-0.3,2.4-0.8,4.7-1.3,7c-0.6,2.3-1.2,4.6-2,6.9c0.3-2.4,0.7-4.7,1.3-7
				C187.4,322.3,188,320,188.9,317.8z"/>
		</g>
		<g>
			<path class="st0" d="M190.1,318.2c-0.3,2.3-0.7,4.6-1.3,6.9s-1.2,4.5-2,6.7c0.3-2.3,0.7-4.6,1.3-6.9
				C188.7,322.7,189.3,320.4,190.1,318.2z"/>
		</g>
		<g>
			<path class="st0" d="M191.5,318.7c-0.3,2.4-0.7,4.7-1.3,7.1c-0.6,2.3-1.2,4.6-2,6.9c0.3-2.4,0.7-4.7,1.3-7.1
				C190.1,323.3,190.7,321,191.5,318.7z"/>
		</g>
		<g>
			<path class="st0" d="M192.5,319.2c-0.2,2.3-0.6,4.6-1.1,6.9s-1,4.5-1.8,6.7c0.2-2.3,0.6-4.6,1.1-6.9
				C191.2,323.6,191.8,321.4,192.5,319.2z"/>
		</g>
		<g>
			<path class="st0" d="M193.8,319.6c-0.2,2.3-0.6,4.5-1.1,6.8c-0.5,2.2-1.1,4.5-1.9,6.6c0.2-2.3,0.6-4.5,1.1-6.8
				C192.4,324,193,321.8,193.8,319.6z"/>
		</g>
		<g>
			<path class="st0" d="M195.2,320.5c-0.2,2.2-0.6,4.3-1,6.5c-0.5,2.1-1,4.3-1.8,6.3c0.2-2.2,0.6-4.3,1-6.5
				C193.9,324.7,194.5,322.5,195.2,320.5z"/>
		</g>
		<g>
			<path class="st0" d="M196.5,320.9c-0.2,2.2-0.6,4.3-1.1,6.4s-1,4.2-1.8,6.3c0.2-2.2,0.6-4.3,1.1-6.4
				C195.2,325.1,195.8,323,196.5,320.9z"/>
		</g>
		<g>
			<path class="st0" d="M197.6,321.8c-0.1,2.1-0.4,4.1-0.8,6.1s-0.9,4-1.6,6c0.1-2.1,0.4-4.1,0.8-6.1
				C196.4,325.8,196.9,323.8,197.6,321.8z"/>
		</g>
		<g>
			<path class="st0" d="M198.8,322.6c-0.1,2-0.4,3.9-0.7,5.8c-0.4,1.9-0.8,3.8-1.5,5.7c0.1-2,0.4-3.9,0.7-5.8
				C197.7,326.3,198.1,324.4,198.8,322.6z"/>
		</g>
		<g>
			<path class="st0" d="M200,323.2c-0.1,1.9-0.4,3.7-0.7,5.5c-0.4,1.8-0.8,3.6-1.5,5.4c0.1-1.9,0.4-3.7,0.7-5.5
				C198.9,326.8,199.3,325,200,323.2z"/>
		</g>
		<g>
			<path class="st0" d="M201.1,324.1c0,1.7-0.3,3.4-0.6,5.1s-0.7,3.3-1.4,4.9c0-1.7,0.3-3.4,0.6-5.1
				C200.1,327.4,200.5,325.7,201.1,324.1z"/>
		</g>
		<g>
			<path class="st0" d="M202.3,325c0,1.6-0.2,3.1-0.5,4.6s-0.7,3-1.2,4.5c0-1.6,0.2-3.1,0.5-4.6C201.3,328,201.7,326.5,202.3,325z"
				/>
		</g>
		<g>
			<path class="st0" d="M203.4,326c0,1.4-0.2,2.8-0.5,4.1c-0.3,1.3-0.6,2.7-1.2,3.9c0-1.4,0.2-2.8,0.5-4.1
				C202.5,328.6,202.8,327.3,203.4,326z"/>
		</g>
		<g>
			<path class="st0" d="M204.4,327c0.1,1.2-0.1,2.3-0.3,3.5c-0.2,1.1-0.5,2.2-1,3.3c-0.1-1.2,0.1-2.3,0.3-3.5
				C203.6,329.2,203.9,328,204.4,327z"/>
		</g>
		<g>
			<path class="st0" d="M205.4,328.5c0.2,0.8,0.1,1.6,0,2.4s-0.3,1.5-0.8,2.3c-0.2-0.8-0.1-1.6,0-2.4
				C204.8,330,205,329.2,205.4,328.5z"/>
		</g>
		<g>
			<path class="st0" d="M84.9,277c0.9,1.7,1.8,3.5,2.6,5.3c0.9,1.8,1.6,3.6,2.4,5.4s1.6,3.6,2.3,5.5c0.7,1.8,1.5,3.7,2.1,5.5
				c-0.9-1.7-1.8-3.5-2.6-5.3c-0.9-1.8-1.6-3.6-2.4-5.4s-1.6-3.6-2.3-5.5C86.3,280.7,85.5,278.9,84.9,277z"/>
		</g>
		<g>
			<path class="st0" d="M119.2,273.9c0.9,1.4,1.6,2.9,2.2,4.4s1.2,3,1.5,4.7c-0.9-1.4-1.6-2.9-2.2-4.4
				C120.1,277,119.5,275.5,119.2,273.9z"/>
		</g>
		<g>
			<path class="st0" d="M122.2,275.1c0.7,1,1.2,2,1.7,3.1c0.4,1.1,0.8,2.2,1,3.4c-0.7-1-1.2-2-1.7-3.1
				C122.7,277.3,122.4,276.2,122.2,275.1z"/>
		</g>
		<g>
			<path class="st0" d="M116.7,273c1.1,1.8,2,3.8,2.8,5.7c0.8,2,1.6,3.9,2.1,6c-1.1-1.8-2-3.8-2.8-5.7
				C118,277.1,117.3,275.1,116.7,273z"/>
		</g>
		<g>
			<path class="st0" d="M114.5,272.3c1.1,2.2,2.1,4.6,3,6.9s1.7,4.7,2.3,7.2c-1.1-2.2-2.1-4.6-3-6.9
				C115.9,277.1,115.1,274.7,114.5,272.3z"/>
		</g>
		<g>
			<path class="st0" d="M111.7,272c0.7,1.3,1.3,2.6,1.9,3.9s1.2,2.6,1.7,3.9s1.1,2.7,1.5,4c0.5,1.4,1,2.7,1.4,4.1
				c-0.7-1.3-1.3-2.6-1.9-3.9s-1.2-2.6-1.7-3.9s-1.1-2.7-1.5-4C112.6,274.7,112.1,273.3,111.7,272z"/>
		</g>
		<g>
			<path class="st0" d="M110,271.8c0.7,1.4,1.3,2.9,1.9,4.3s1.2,2.9,1.7,4.4s1.1,2.9,1.5,4.4c0.5,1.5,1,3,1.3,4.5
				c-0.7-1.4-1.3-2.9-1.9-4.3s-1.2-2.9-1.7-4.4s-1.1-2.9-1.5-4.4C110.8,274.8,110.3,273.3,110,271.8z"/>
		</g>
		<g>
			<path class="st0" d="M107.4,271.7c0.7,1.6,1.4,3.1,2.1,4.7s1.3,3.2,1.9,4.8c0.6,1.6,1.2,3.2,1.7,4.9c0.5,1.6,1.1,3.3,1.5,4.9
				c-0.7-1.6-1.4-3.1-2.1-4.7s-1.3-3.2-1.9-4.8c-0.6-1.6-1.2-3.2-1.7-4.9C108.4,275,107.8,273.4,107.4,271.7z"/>
		</g>
		<g>
			<path class="st0" d="M105.5,271.7c0.7,1.6,1.4,3.3,2.1,5s1.3,3.4,1.9,5.1s1.2,3.4,1.7,5.1s1.1,3.4,1.5,5.2
				c-0.7-1.6-1.4-3.3-2.1-5s-1.3-3.4-1.9-5.1s-1.2-3.4-1.7-5.1C106.4,275.2,105.9,273.5,105.5,271.7z"/>
		</g>
		<g>
			<path class="st0" d="M103,272c0.8,1.7,1.5,3.4,2.2,5.2c0.7,1.7,1.4,3.5,2,5.2c0.6,1.8,1.3,3.5,1.8,5.3c0.6,1.8,1.2,3.6,1.7,5.4
				c-0.8-1.7-1.5-3.4-2.2-5.2c-0.7-1.7-1.4-3.5-2-5.2c-0.6-1.8-1.3-3.5-1.8-5.3C104,275.6,103.5,273.8,103,272z"/>
		</g>
		<g>
			<path class="st0" d="M100.5,272c0.8,1.8,1.6,3.6,2.4,5.4s1.5,3.6,2.2,5.4s1.4,3.7,2,5.5s1.3,3.7,1.8,5.6
				c-0.8-1.8-1.6-3.6-2.4-5.4s-1.5-3.6-2.2-5.4s-1.4-3.7-2-5.5C101.7,275.7,101,273.8,100.5,272z"/>
		</g>
		<g>
			<path class="st0" d="M98.1,272.6c0.9,1.8,1.6,3.6,2.4,5.4s1.5,3.6,2.2,5.5c0.7,1.8,1.4,3.7,2.1,5.5c0.7,1.9,1.3,3.7,1.9,5.6
				c-0.9-1.8-1.6-3.6-2.4-5.4s-1.5-3.6-2.2-5.5c-0.7-1.8-1.4-3.7-2.1-5.5C99.3,276.4,98.7,274.5,98.1,272.6z"/>
		</g>
		<g>
			<path class="st0" d="M96.1,273.4c0.8,1.8,1.6,3.6,2.4,5.4s1.5,3.6,2.2,5.5c0.7,1.8,1.4,3.7,2,5.5s1.3,3.7,1.8,5.6
				c-0.8-1.8-1.6-3.6-2.4-5.4s-1.5-3.6-2.2-5.5c-0.7-1.8-1.4-3.7-2-5.5C97.3,277.1,96.7,275.3,96.1,273.4z"/>
		</g>
		<g>
			<path class="st0" d="M93.9,274c0.9,1.8,1.6,3.6,2.4,5.4s1.5,3.6,2.2,5.5c0.7,1.8,1.4,3.7,2.1,5.5c0.7,1.9,1.3,3.7,1.9,5.6
				c-0.9-1.8-1.6-3.6-2.4-5.4s-1.5-3.6-2.2-5.5c-0.7-1.8-1.4-3.7-2.1-5.5C95.1,277.8,94.5,275.9,93.9,274z"/>
		</g>
		<g>
			<path class="st0" d="M91.9,274.3c0.9,1.8,1.6,3.7,2.4,5.5s1.5,3.7,2.2,5.6s1.4,3.7,2.1,5.6s1.3,3.8,1.9,5.7
				c-0.9-1.8-1.6-3.7-2.4-5.5s-1.5-3.7-2.2-5.6s-1.4-3.7-2.1-5.6C93.1,278.1,92.5,276.2,91.9,274.3z"/>
		</g>
		<g>
			<path class="st0" d="M90.1,275.1c0.9,1.8,1.6,3.6,2.4,5.4s1.5,3.6,2.2,5.4s1.4,3.7,2,5.5c0.7,1.8,1.3,3.7,1.9,5.6
				c-0.9-1.8-1.6-3.6-2.4-5.4s-1.5-3.6-2.2-5.4s-1.4-3.7-2-5.5C91.3,278.8,90.6,277,90.1,275.1z"/>
		</g>
		<g>
			<path class="st0" d="M87.5,276.3c0.9,1.8,1.8,3.5,2.6,5.3s1.6,3.6,2.4,5.4s1.5,3.6,2.3,5.5c0.7,1.8,1.4,3.7,2.1,5.6
				c-0.9-1.8-1.8-3.5-2.6-5.3s-1.6-3.6-2.4-5.4s-1.5-3.6-2.3-5.5C88.8,280,88.1,278.2,87.5,276.3z"/>
		</g>
		<g>
			<path class="st0" d="M223.1,348.8c-0.1,0.3-0.2,0.4-0.3,0.4s-0.2-0.1-0.3-0.4c0.1-0.3,0.2-0.4,0.3-0.4
				C222.9,348.4,223,348.5,223.1,348.8z"/>
		</g>
	</g>
	<g>
		<path class="st1" d="M11.4,279.2c0.9-0.3,1.7-0.8,2.6-1.3l2.6-1.3l5.1-2.7l10.3-5.3c6.9-3.5,13.9-6.7,20.9-9.9
			c7.1-3.1,14.2-6.1,21.5-8.6c3.7-1.2,7.3-2.4,11.1-3.4c3.7-0.9,7.6-1.7,11.4-1.6c-3.9,0.1-7.6,1-11.3,2s-7.3,2.3-10.9,3.6
			c-7.2,2.7-14.3,5.6-21.3,8.8c-7,3.1-14,6.4-21,9.7l-10.4,5l-5.2,2.5C14.9,277.7,13.2,278.6,11.4,279.2z"/>
	</g>
	<g>
		<path class="st1" d="M63.3,305.5c0.2,0.3,0.5,0.4,0.8,0.5c0.3,0.1,0.6,0.2,1,0.2c0.7,0.1,1.3,0.1,2,0.1s1.3,0,2-0.1l2-0.2
			c2.6-0.3,5.2-0.8,7.8-1.3c5.2-1.1,10.3-2.5,15.4-3.8c5.1-1.4,10.3-2.5,15.5-3.6c5.2-1,10.4-1.9,15.7-2.6
			c10.5-1.3,21.1-2.3,31.7-2.4c2.6,0,5.3,0,8,0.2l7.9,0.4c2.6,0.2,5.3,0.4,7.9,0.6c1.3,0.1,2.6,0.3,3.9,0.5s2.6,0.5,3.9,0.9
			c-1.3-0.4-2.6-0.6-3.9-0.8c-1.3-0.2-2.6-0.3-3.9-0.4c-2.6-0.2-5.3-0.3-7.9-0.4l-7.9-0.3c-2.6-0.1-5.3-0.1-7.9,0
			c-10.6,0.3-21.1,1.3-31.6,2.7c-5.2,0.7-10.4,1.5-15.6,2.5s-10.3,2.1-15.5,3.4c-5.1,1.3-10.3,2.6-15.5,3.6
			c-2.6,0.5-5.2,0.9-7.9,1.1l-2,0.1c-0.7,0-1.3,0-2,0s-1.3-0.1-2-0.2c-0.3-0.1-0.7-0.1-1-0.3C63.8,306,63.4,305.8,63.3,305.5z"/>
	</g>
	<path class="st0" d="M429.9,282.2c-1.7,0.3-107.9-68.7-115.9-22.9c0,0-1.3,14.9-4.3,17.4c0,0,12.4-11.8,38.1-2.1
		c25.7,9.7,65.2,31.2,65.2,31.2l-6.3-20.8L429.9,282.2z"/>
	<path class="st0" d="M375.4,303.7c1.2,0-8.7,9.4-8.7,12.8c0,3.5,2.7,9.4-3.7,9c-6.3-0.3-63.2-16-92.4-13.2
		c-22.1,2.1-34.9,7-41.6,13.2c0,0,8-15.6,10.4-21.9c2.3-6.2,0.3-10.8,4.7-11.1c4.3-0.3,48.7-4.7,87.9,5.6
		C371.2,308.5,369.1,303.7,375.4,303.7z"/>
	<g>
		<g>
			<g>
				<path class="st0" d="M254.5,317.8c0.8,1.6,1.4,3.4,1.9,5.1s1,3.5,1.2,5.3c-0.8-1.6-1.4-3.4-1.9-5.1
					C255.1,321.3,254.7,319.6,254.5,317.8z"/>
			</g>
			<g>
				<path class="st0" d="M256.7,319.6c0.7,1.2,1.1,2.5,1.5,3.8s0.7,2.6,0.8,4c-0.7-1.2-1.1-2.5-1.5-3.8S256.8,321,256.7,319.6z"/>
			</g>
			<g>
				<path class="st0" d="M252.8,316.9c0.9,1.9,1.5,3.9,2.1,5.9s1.1,4.1,1.4,6.2c-0.9-1.9-1.5-3.9-2.1-5.9
					C253.6,321,253.1,319,252.8,316.9z"/>
			</g>
			<g>
				<path class="st0" d="M251.4,316.6c0.9,2.1,1.5,4.2,2.1,6.4c0.6,2.2,1.1,4.3,1.4,6.6c-0.9-2.1-1.5-4.2-2.1-6.4
					C252.2,321,251.7,318.8,251.4,316.6z"/>
			</g>
			<g>
				<path class="st0" d="M250.3,316.7c0.8,2.2,1.4,4.4,2,6.6c0.5,2.2,1,4.5,1.3,6.8c-0.8-2.2-1.4-4.4-2-6.6S250.5,319,250.3,316.7z"
					/>
			</g>
			<g>
				<path class="st0" d="M248.7,317c0.9,2.2,1.5,4.5,2.1,6.7c0.6,2.3,1.1,4.6,1.4,6.9c-0.9-2.2-1.5-4.5-2.1-6.7
					C249.5,321.6,249,319.4,248.7,317z"/>
			</g>
			<g>
				<path class="st0" d="M247.3,317.4c0.8,2.2,1.5,4.5,2.1,6.8s1.1,4.6,1.3,7c-0.9-2.2-1.5-4.5-2.1-6.8
					C248.1,322.1,247.6,319.7,247.3,317.4z"/>
			</g>
			<g>
				<path class="st0" d="M245.8,317.8c0.8,2.2,1.5,4.5,2,6.9c0.5,2.3,1,4.6,1.3,7c-0.8-2.2-1.5-4.5-2-6.9
					C246.5,322.5,246,320.2,245.8,317.8z"/>
			</g>
			<g>
				<path class="st0" d="M244.5,318.2c0.8,2.2,1.4,4.4,2,6.7c0.5,2.3,1,4.5,1.3,6.9c-0.8-2.2-1.4-4.4-2-6.7S244.7,320.6,244.5,318.2
					z"/>
			</g>
			<g>
				<path class="st0" d="M243.1,318.7c0.8,2.3,1.4,4.6,2,6.9c0.5,2.3,1,4.7,1.3,7.1c-0.8-2.3-1.4-4.6-2-6.9
					C243.8,323.5,243.3,321.1,243.1,318.7z"/>
			</g>
			<g>
				<path class="st0" d="M242.1,319.2c0.8,2.2,1.3,4.4,1.8,6.7c0.5,2.3,0.9,4.5,1.1,6.9c-0.8-2.2-1.3-4.4-1.8-6.7
					C242.7,323.8,242.3,321.5,242.1,319.2z"/>
			</g>
			<g>
				<path class="st0" d="M240.8,319.6c0.8,2.2,1.3,4.4,1.9,6.6c0.5,2.2,0.9,4.5,1.1,6.8c-0.8-2.2-1.3-4.4-1.9-6.6
					C241.5,324.2,241,321.9,240.8,319.6z"/>
			</g>
			<g>
				<path class="st0" d="M239.4,320.5c0.8,2.1,1.3,4.2,1.8,6.3c0.5,2.1,0.9,4.3,1,6.5c-0.8-2.1-1.3-4.2-1.8-6.3
					C239.9,324.8,239.5,322.7,239.4,320.5z"/>
			</g>
			<g>
				<path class="st0" d="M238.1,320.9c0.8,2.1,1.3,4.2,1.8,6.3c0.5,2.1,0.9,4.3,1.1,6.4c-0.8-2.1-1.3-4.2-1.8-6.3
					C238.7,325.2,238.3,323.1,238.1,320.9z"/>
			</g>
			<g>
				<path class="st0" d="M237,321.8c0.7,2,1.2,4,1.6,6s0.7,4,0.8,6.1c-0.7-2-1.2-4-1.6-6C237.5,325.9,237.1,323.9,237,321.8z"/>
			</g>
			<g>
				<path class="st0" d="M235.8,322.6c0.7,1.9,1.1,3.7,1.5,5.7c0.4,1.9,0.7,3.8,0.7,5.8c-0.7-1.9-1.1-3.7-1.5-5.7
					C236.2,326.5,235.9,324.5,235.8,322.6z"/>
			</g>
			<g>
				<path class="st0" d="M234.6,323.2c0.7,1.8,1.1,3.6,1.5,5.4s0.7,3.6,0.7,5.5c-0.7-1.8-1.1-3.6-1.5-5.4
					C235,326.9,234.7,325.1,234.6,323.2z"/>
			</g>
			<g>
				<path class="st0" d="M233.5,324.1c0.6,1.6,1,3.3,1.4,4.9c0.3,1.7,0.6,3.3,0.6,5.1c-0.6-1.6-1-3.3-1.4-4.9
					C233.8,327.5,233.5,325.8,233.5,324.1z"/>
			</g>
			<g>
				<path class="st0" d="M232.3,325c0.6,1.5,0.9,3,1.2,4.5s0.5,3,0.5,4.6c-0.6-1.5-0.9-3-1.2-4.5C232.6,328.1,232.3,326.6,232.3,325
					z"/>
			</g>
			<g>
				<path class="st0" d="M231.2,326c0.6,1.3,0.9,2.6,1.2,3.9s0.5,2.7,0.5,4.1c-0.6-1.3-0.9-2.6-1.2-3.9
					C231.4,328.7,231.2,327.4,231.2,326z"/>
			</g>
			<g>
				<path class="st0" d="M230.2,327c0.5,1.1,0.8,2.2,1,3.3c0.2,1.1,0.4,2.3,0.3,3.5c-0.5-1.1-0.8-2.2-1-3.3
					C230.3,329.3,230.2,328.2,230.2,327z"/>
			</g>
			<g>
				<path class="st0" d="M229.2,328.5c0.4,0.7,0.6,1.5,0.8,2.3c0.1,0.8,0.2,1.6,0,2.4c-0.4-0.7-0.6-1.5-0.8-2.3
					C229.1,330.1,229,329.3,229.2,328.5z"/>
			</g>
		</g>
		<g>
			<g>
				<path class="st0" d="M374.2,298.7c0,0.8-0.1,1.5-0.4,2.2c-0.2,0.7-0.5,1.4-1.1,2c0-0.8,0.1-1.5,0.4-2.2S373.7,299.3,374.2,298.7
					z"/>
			</g>
			<g>
				<path class="st0" d="M372.7,296c-0.1,1.3-0.5,2.6-0.9,3.8c-0.4,1.2-0.9,2.4-1.6,3.6c0.1-1.3,0.5-2.6,0.9-3.8
					C371.5,298.4,372,297.1,372.7,296z"/>
			</g>
			<g>
				<path class="st0" d="M371.4,294.4c-0.4,1.6-0.9,3.1-1.5,4.5c-0.6,1.5-1.3,2.9-2.2,4.2c0.4-1.6,0.9-3.1,1.5-4.5
					S370.5,295.7,371.4,294.4z"/>
			</g>
			<g>
				<path class="st0" d="M369.9,291.7c-0.5,2.1-1.3,4.1-2.1,6.1c-0.8,2-1.7,4-2.8,5.9c0.5-2.1,1.3-4.1,2.1-6.1
					C367.9,295.5,368.8,293.5,369.9,291.7z"/>
			</g>
			<g>
				<path class="st0" d="M368.5,290.2c-0.7,2.4-1.7,4.6-2.7,6.8c-1,2.2-2.1,4.4-3.4,6.5c0.7-2.4,1.7-4.6,2.7-6.8
					C366.1,294.6,367.2,292.4,368.5,290.2z"/>
			</g>
			<g>
				<path class="st0" d="M366.6,288.7c-0.4,1.3-0.9,2.5-1.3,3.7c-0.5,1.2-1,2.4-1.5,3.7c-0.5,1.2-1.1,2.4-1.7,3.6s-1.2,2.4-1.9,3.5
					c0.4-1.3,0.9-2.5,1.3-3.7c0.5-1.2,1-2.4,1.5-3.7c0.5-1.2,1.1-2.4,1.7-3.6C365.3,291.1,365.9,289.9,366.6,288.7z"/>
			</g>
			<g>
				<path class="st0" d="M365.4,287.1c-0.5,1.4-1.1,2.7-1.7,4.1c-0.6,1.3-1.2,2.7-1.9,4c-0.7,1.3-1.3,2.6-2,3.9s-1.4,2.6-2.2,3.8
					c0.5-1.4,1.1-2.7,1.7-4.1c0.6-1.3,1.2-2.7,1.9-4c0.7-1.3,1.3-2.6,2-3.9S364.6,288.4,365.4,287.1z"/>
			</g>
			<g>
				<path class="st0" d="M363.5,285.4c-0.5,1.5-1.1,3-1.8,4.4c-0.6,1.5-1.3,2.9-1.9,4.3c-0.7,1.4-1.4,2.8-2.1,4.2
					c-0.7,1.4-1.5,2.8-2.3,4.2c0.5-1.5,1.1-3,1.8-4.4c0.6-1.5,1.3-2.9,1.9-4.3c0.7-1.4,1.4-2.8,2.1-4.2
					C361.9,288.2,362.7,286.8,363.5,285.4z"/>
			</g>
			<g>
				<path class="st0" d="M361.5,284.2c-0.5,1.5-1.2,3-1.8,4.5c-0.6,1.5-1.3,3-2,4.5s-1.4,2.9-2.1,4.4c-0.7,1.4-1.5,2.9-2.3,4.3
					c0.5-1.5,1.2-3,1.8-4.5c0.6-1.5,1.3-3,2-4.5s1.4-2.9,2.1-4.4C359.9,287.1,360.7,285.6,361.5,284.2z"/>
			</g>
			<g>
				<path class="st0" d="M359.4,282.8c-0.6,1.6-1.3,3.2-2,4.8c-0.7,1.6-1.4,3.2-2.2,4.8c-0.8,1.6-1.5,3.1-2.3,4.7
					c-0.8,1.5-1.6,3.1-2.5,4.6c0.6-1.6,1.3-3.2,2-4.8c0.7-1.6,1.4-3.2,2.2-4.8c0.8-1.6,1.5-3.1,2.3-4.7
					C357.7,285.9,358.5,284.3,359.4,282.8z"/>
			</g>
			<g>
				<path class="st0" d="M357.6,281.8c-0.6,1.7-1.3,3.3-2,4.9s-1.4,3.2-2.2,4.8c-0.8,1.6-1.5,3.2-2.3,4.7c-0.8,1.6-1.6,3.1-2.5,4.6
					c0.6-1.7,1.3-3.3,2-4.9s1.4-3.2,2.2-4.8c0.8-1.6,1.5-3.2,2.3-4.7S356.7,283.3,357.6,281.8z"/>
			</g>
			<g>
				<path class="st0" d="M355.7,280.5c-0.7,1.7-1.4,3.4-2.1,5.1s-1.5,3.4-2.3,5c-0.8,1.7-1.6,3.3-2.5,4.9s-1.7,3.3-2.6,4.9
					c0.7-1.7,1.4-3.4,2.1-5.1s1.5-3.4,2.3-5c0.8-1.7,1.6-3.3,2.5-4.9C353.9,283.7,354.7,282.1,355.7,280.5z"/>
			</g>
			<g>
				<path class="st0" d="M354.1,279.1c-0.7,1.8-1.5,3.5-2.2,5.3c-0.8,1.7-1.6,3.5-2.4,5.2s-1.7,3.4-2.6,5.1s-1.8,3.4-2.8,5
					c0.7-1.8,1.5-3.5,2.2-5.3c0.8-1.7,1.6-3.5,2.4-5.2s1.7-3.4,2.6-5.1C352.2,282.5,353.1,280.8,354.1,279.1z"/>
			</g>
			<g>
				<path class="st0" d="M352.3,278.2c-0.7,1.8-1.5,3.6-2.3,5.4s-1.6,3.6-2.5,5.3c-0.9,1.8-1.7,3.5-2.6,5.2s-1.8,3.5-2.8,5.2
					c0.7-1.8,1.5-3.6,2.3-5.4s1.6-3.6,2.5-5.3c0.9-1.8,1.7-3.5,2.6-5.2C350.4,281.6,351.3,279.9,352.3,278.2z"/>
			</g>
			<g>
				<path class="st0" d="M349.7,277c-0.6,1.9-1.4,3.7-2.1,5.5s-1.5,3.7-2.3,5.5s-1.6,3.6-2.4,5.4s-1.7,3.6-2.6,5.3
					c0.6-1.9,1.4-3.7,2.1-5.5s1.5-3.7,2.3-5.5s1.6-3.6,2.4-5.4C347.9,280.6,348.8,278.8,349.7,277z"/>
			</g>
			<g>
				<path class="st0" d="M315.4,273.9c-0.3,1.6-0.9,3.1-1.5,4.7c-0.6,1.5-1.3,3-2.2,4.4c0.3-1.6,0.9-3.1,1.5-4.7
					S314.5,275.3,315.4,273.9z"/>
			</g>
			<g>
				<path class="st0" d="M312.4,275.1c-0.2,1.2-0.5,2.3-1,3.4c-0.4,1.1-1,2.1-1.7,3.1c0.2-1.2,0.5-2.3,1-3.4S311.7,276,312.4,275.1z
					"/>
			</g>
			<g>
				<path class="st0" d="M317.9,273c-0.5,2.1-1.3,4-2.1,6c-0.8,1.9-1.7,3.9-2.8,5.7c0.5-2.1,1.3-4,2.1-6
					C315.9,276.8,316.8,274.9,317.9,273z"/>
			</g>
			<g>
				<path class="st0" d="M320.1,272.3c-0.6,2.4-1.4,4.8-2.3,7.2c-0.9,2.3-1.8,4.7-3,6.9c0.6-2.4,1.4-4.8,2.3-7.2
					C318,276.9,318.9,274.5,320.1,272.3z"/>
			</g>
			<g>
				<path class="st0" d="M322.9,272c-0.4,1.4-0.9,2.7-1.4,4.1s-1,2.7-1.5,4c-0.6,1.3-1.1,2.6-1.7,3.9s-1.2,2.6-1.9,3.9
					c0.4-1.4,0.9-2.7,1.4-4.1s1-2.7,1.5-4c0.6-1.3,1.1-2.6,1.7-3.9C321.6,274.5,322.2,273.2,322.9,272z"/>
			</g>
			<g>
				<path class="st0" d="M324.6,271.8c-0.4,1.5-0.9,3-1.3,4.5c-0.5,1.5-1,3-1.5,4.4c-0.5,1.5-1.1,2.9-1.7,4.4
					c-0.6,1.4-1.2,2.9-1.9,4.3c0.4-1.5,0.9-3,1.3-4.5c0.5-1.5,1-3,1.5-4.4c0.5-1.5,1.1-2.9,1.7-4.4
					C323.4,274.6,324,273.2,324.6,271.8z"/>
			</g>
			<g>
				<path class="st0" d="M327.2,271.7c-0.5,1.7-1,3.3-1.5,4.9s-1.1,3.2-1.7,4.9c-0.6,1.6-1.2,3.2-1.9,4.8c-0.7,1.6-1.3,3.2-2.1,4.7
					c0.4-1.7,1-3.3,1.5-4.9s1.1-3.2,1.7-4.9c0.6-1.6,1.2-3.2,1.9-4.8C325.8,274.8,326.5,273.3,327.2,271.7z"/>
			</g>
			<g>
				<path class="st0" d="M329.1,271.7c-0.5,1.8-1,3.5-1.5,5.2s-1.1,3.4-1.7,5.1s-1.2,3.4-1.9,5.1c-0.7,1.7-1.3,3.4-2.1,5
					c0.4-1.8,1-3.5,1.5-5.2s1.1-3.4,1.7-5.1s1.2-3.4,1.9-5.1C327.7,275,328.4,273.4,329.1,271.7z"/>
			</g>
			<g>
				<path class="st0" d="M331.6,272c-0.5,1.8-1.1,3.6-1.7,5.4s-1.2,3.5-1.8,5.3c-0.7,1.8-1.3,3.5-2,5.2s-1.4,3.5-2.2,5.2
					c0.5-1.8,1.1-3.6,1.7-5.4s1.2-3.5,1.8-5.3c0.7-1.8,1.3-3.5,2-5.2C330.1,275.4,330.9,273.7,331.6,272z"/>
			</g>
			<g>
				<path class="st0" d="M334.1,272c-0.6,1.9-1.2,3.7-1.8,5.6c-0.6,1.8-1.3,3.7-2,5.5s-1.4,3.6-2.2,5.4c-0.8,1.8-1.5,3.6-2.4,5.4
					c0.6-1.9,1.2-3.7,1.8-5.6c0.6-1.8,1.3-3.7,2-5.5s1.4-3.6,2.2-5.4C332.5,275.5,333.3,273.7,334.1,272z"/>
			</g>
			<g>
				<path class="st0" d="M336.5,272.6c-0.6,1.9-1.2,3.7-1.9,5.6c-0.7,1.9-1.4,3.7-2.1,5.5s-1.5,3.7-2.2,5.5
					c-0.8,1.8-1.6,3.6-2.4,5.4c0.6-1.9,1.2-3.7,1.9-5.6c0.7-1.9,1.4-3.7,2.1-5.5s1.5-3.7,2.2-5.5
					C334.9,276.2,335.6,274.4,336.5,272.6z"/>
			</g>
			<g>
				<path class="st0" d="M338.5,273.4c-0.6,1.9-1.2,3.7-1.8,5.6c-0.6,1.9-1.3,3.7-2,5.5s-1.4,3.6-2.2,5.5c-0.8,1.8-1.5,3.6-2.4,5.4
					c0.6-1.9,1.2-3.7,1.8-5.6c0.6-1.9,1.3-3.7,2-5.5s1.4-3.6,2.2-5.5C336.9,277,337.6,275.2,338.5,273.4z"/>
			</g>
			<g>
				<path class="st0" d="M340.7,274c-0.6,1.9-1.2,3.7-1.9,5.6c-0.6,1.9-1.3,3.7-2.1,5.5c-0.7,1.8-1.4,3.7-2.2,5.5
					c-0.8,1.8-1.5,3.6-2.4,5.4c0.6-1.9,1.2-3.7,1.9-5.6c0.6-1.9,1.3-3.7,2.1-5.5c0.7-1.8,1.4-3.7,2.2-5.5
					C339,277.6,339.8,275.8,340.7,274z"/>
			</g>
			<g>
				<path class="st0" d="M342.7,274.3c-0.6,1.9-1.2,3.8-1.9,5.7c-0.6,1.9-1.3,3.8-2.1,5.6c-0.7,1.9-1.4,3.7-2.2,5.6
					c-0.8,1.8-1.5,3.7-2.4,5.5c0.6-1.9,1.2-3.8,1.9-5.7c0.6-1.9,1.3-3.8,2.1-5.6c0.7-1.9,1.4-3.7,2.2-5.6
					C341.1,278,341.8,276.1,342.7,274.3z"/>
			</g>
			<g>
				<path class="st0" d="M344.5,275.1c-0.6,1.9-1.2,3.7-1.9,5.6c-0.6,1.8-1.3,3.7-2,5.5s-1.4,3.6-2.2,5.4c-0.8,1.8-1.5,3.6-2.4,5.4
					c0.6-1.9,1.2-3.7,1.9-5.6c0.6-1.8,1.3-3.7,2-5.5s1.4-3.6,2.2-5.4C342.9,278.7,343.7,276.9,344.5,275.1z"/>
			</g>
			<g>
				<path class="st0" d="M347.1,276.3c-0.6,1.9-1.4,3.7-2.1,5.6c-0.7,1.8-1.5,3.7-2.3,5.5s-1.6,3.6-2.4,5.4s-1.7,3.6-2.6,5.3
					c0.6-1.9,1.4-3.7,2.1-5.6c0.7-1.8,1.5-3.7,2.3-5.5s1.6-3.6,2.4-5.4C345.4,279.9,346.2,278.1,347.1,276.3z"/>
			</g>
		</g>
	</g>
	<line class="st3" x1="211.5" y1="348.8" x2="212.1" y2="348.8"/>
	<g>
		<path class="st1" d="M423.2,279.2c-1.8-0.6-3.5-1.5-5.3-2.4l-5.2-2.5l-10.4-5c-7-3.3-13.9-6.6-21-9.7c-7-3.2-14.1-6.1-21.3-8.8
			c-3.6-1.3-7.2-2.6-10.9-3.6c-3.7-1-7.5-1.9-11.3-2c3.9-0.1,7.7,0.7,11.4,1.6c3.7,0.9,7.4,2.1,11.1,3.4c7.3,2.5,14.4,5.5,21.5,8.6
			c7,3.2,14,6.5,20.9,9.9L413,274l5.1,2.7l2.6,1.3C421.5,278.4,422.3,278.9,423.2,279.2z"/>
	</g>
	<g>
		<path class="st1" d="M371.3,305.5c-0.2,0.3-0.5,0.5-0.8,0.6s-0.6,0.2-1,0.3c-0.7,0.1-1.3,0.2-2,0.2s-1.3,0-2,0l-2-0.1
			c-2.6-0.3-5.3-0.6-7.9-1.1c-5.2-1-10.3-2.3-15.5-3.6c-5.1-1.3-10.3-2.4-15.5-3.4s-10.4-1.8-15.6-2.5c-10.5-1.4-21-2.3-31.6-2.7
			c-2.6-0.1-5.3-0.1-7.9,0l-7.9,0.3c-2.6,0.1-5.3,0.2-7.9,0.4c-1.3,0.1-2.6,0.2-3.9,0.4c-1.3,0.2-2.6,0.4-3.9,0.8
			c1.2-0.5,2.6-0.7,3.9-0.9c1.3-0.2,2.6-0.4,3.9-0.5c2.6-0.3,5.3-0.5,7.9-0.6l7.9-0.4c2.6-0.2,5.3-0.2,8-0.2
			c10.6,0.2,21.2,1.1,31.7,2.4c5.2,0.7,10.5,1.6,15.7,2.6c5.2,1.1,10.4,2.2,15.5,3.6s10.2,2.8,15.4,3.8c2.6,0.6,5.2,1,7.8,1.3l2,0.2
			c0.7,0,1.3,0.1,2,0.1s1.3,0,2-0.1c0.3-0.1,0.6-0.1,1-0.2C370.8,306,371.2,305.8,371.3,305.5z"/>
	</g>
	<g>
		<path class="st1" d="M180.1,331.2c2.9,1.5,6,2.6,9.1,3.5c1.6,0.5,3.1,0.9,4.7,1.3l2.4,0.6l2.4,0.4c6.4,1.2,12.9,1.7,19.4,1.6
			c1.6-0.1,3.2-0.2,4.9-0.2c0.8-0.1,1.6-0.1,2.4-0.1l2.4-0.3c1.6-0.2,3.2-0.4,4.8-0.6l4.8-0.9l2.4-0.4l2.4-0.6l4.7-1.2
			c3.1-0.9,6.2-2,9.3-2.9l-4.6,1.7l-2.3,0.9c-0.8,0.3-1.5,0.6-2.3,0.8l-4.7,1.4l-2.4,0.7l-2.4,0.5l-4.8,1c-1.6,0.3-3.2,0.4-4.9,0.7
			l-2.4,0.3c-0.8,0.1-1.6,0.1-2.5,0.2c-1.6,0.1-3.3,0.2-4.9,0.3c-6.6,0-13.1-0.5-19.6-1.8C192.2,336.4,185.8,334.4,180.1,331.2z"/>
	</g>
	<g>
		<path class="st0" d="M172,175.2c0-12.8,0-15.2-0.2-17.9c-0.2-2.9-0.8-4.2-3.6-4.8c-0.7-0.2-2.1-0.3-3.3-0.3
			c-0.9,0-1.4-0.2-1.4-0.8s0.6-0.8,1.9-0.8c4.5,0,9.8,0.3,12.2,0.3c3.5,0,8.4-0.3,12.2-0.3c10.5,0,14.3,3.5,15.7,4.8
			c1.9,1.8,4.2,5.6,4.2,10c0,12-8.8,20.4-20.8,20.4c-0.4,0-1.4,0-1.8-0.1s-1-0.2-1-0.8c0-0.7,0.6-0.9,2.4-0.9
			c4.7,0,11.3-5.3,11.3-13.9c0-2.8-0.3-8.4-5-12.7c-3-2.8-6.5-3.3-8.4-3.3c-1.3,0-2.5,0.1-3.3,0.3c-0.4,0.2-0.7,0.7-0.7,1.6v33.8
			c0,7.8,0,14.4,0.4,18.1c0.3,2.4,0.8,4.2,3.3,4.6c1.2,0.2,3,0.3,4.3,0.3c0.9,0,1.4,0.3,1.4,0.7c0,0.6-0.7,0.8-1.6,0.8
			c-5.6,0-10.9-0.3-13.1-0.3c-1.9,0-7.3,0.3-10.6,0.3c-1.1,0-1.7-0.3-1.7-0.8c0-0.4,0.3-0.7,1.4-0.7c1.3,0,2.3-0.2,3-0.3
			c1.7-0.3,2.1-2.2,2.4-4.6c0.4-3.5,0.4-10.2,0.4-18L172,175.2L172,175.2z"/>
		<path class="st0" d="M227.3,175.2c0-12.8,0-15.2-0.2-17.9c-0.2-2.9-0.8-4.2-3.6-4.8c-0.7-0.2-2.1-0.3-3.3-0.3
			c-0.9,0-1.4-0.2-1.4-0.8s0.6-0.8,1.9-0.8c4.5,0,9.8,0.3,11.6,0.3c2.9,0,9.3-0.3,11.9-0.3c5.3,0,11,0.5,15.5,3.6
			c2.4,1.6,5.7,5.9,5.7,11.6c0,6.2-2.6,12-11.1,18.9c7.5,9.5,13.3,17,18.3,22.2c4.7,4.9,8.2,5.5,9.5,5.7c0.9,0.2,1.7,0.3,2.4,0.3
			c0.7,0,1,0.3,1,0.7c0,0.7-0.6,0.8-1.6,0.8h-8c-4.7,0-6.8-0.4-9-1.6c-3.6-1.9-6.8-5.9-11.6-12.4c-3.4-4.6-7.3-10.4-8.4-11.6
			c-0.4-0.5-0.9-0.6-1.5-0.6l-7.3-0.2c-0.4,0-0.7,0.2-0.7,0.7v1.2c0,7.8,0,14.5,0.4,18.1c0.3,2.4,0.8,4.3,3.3,4.6
			c1.3,0.2,3.1,0.3,4.1,0.3c0.7,0,1,0.3,1,0.7c0,0.6-0.6,0.8-1.7,0.8c-4.9,0-11.1-0.3-12.4-0.3c-1.6,0-6.9,0.3-10.3,0.3
			c-1.1,0-1.7-0.3-1.7-0.8c0-0.4,0.3-0.7,1.3-0.7c1.3,0,2.3-0.2,3-0.3c1.7-0.3,2.1-2.2,2.4-4.6c0.4-3.5,0.4-10.2,0.4-18v-14.8
			L227.3,175.2L227.3,175.2z M237.2,181.8c0,0.9,0.2,1.3,0.8,1.5c1.8,0.6,4.3,0.8,6.4,0.8c3.4,0,4.5-0.3,6-1.4c2.5-1.9,5-5.7,5-12.7
			c0-12-7.9-15.4-12.9-15.4c-2.1,0-3.6,0.1-4.5,0.3c-0.6,0.2-0.8,0.5-0.8,1.2V181.8z"/>
	</g>
	<g class="st4">
		<path class="st0" d="M90,386.8c0-5.8,0-6.9-0.1-8.1c-0.1-1.3-0.4-1.9-1.6-2.1c-0.3-0.1-0.9-0.1-1.3-0.1c-0.1,0-0.3-0.1-0.3-0.2
			c0-0.2,0.2-0.3,0.6-0.3c1.7,0,3.9,0.1,4.2,0.1c0.8,0,3-0.1,4.7-0.1c4.7,0,6.4,1.6,7,2.1c0.8,0.8,1.9,2.5,1.9,4.5
			c0,5.3-3.9,8.9-9.2,8.9c-0.2,0-0.6,0-0.8,0c-0.2,0-0.4-0.1-0.4-0.3c0-0.3,0.2-0.3,1-0.3c3.6,0,6.5-2.7,6.5-6.1
			c0-1.2-0.1-3.7-2.1-5.8s-4.3-1.9-5.1-1.9c-0.6,0-1.3,0.1-1.6,0.2c-0.2,0.1-0.3,0.3-0.3,0.7v15.4c0,3.6,0,6.5,0.2,8.1
			c0.1,1.1,0.3,1.9,1.5,2.1c0.5,0.1,1.3,0.1,1.7,0.1c0.2,0,0.3,0.1,0.3,0.2c0,0.2-0.2,0.3-0.6,0.3c-2.1,0-4.4-0.1-4.6-0.1
			c-0.1,0-2.5,0.1-3.6,0.1c-0.4,0-0.6-0.1-0.6-0.3c0-0.1,0.1-0.2,0.3-0.2c0.3,0,0.8-0.1,1.1-0.1c0.7-0.1,0.9-1,1.1-2.1
			c0.2-1.6,0.2-4.5,0.2-8.1V386.8z"/>
		<path class="st0" d="M116.4,380.8c0.4-1,0.6-1.2,0.8-1.2c0.3,0,0.4,0.4,0.8,1.2c0.6,1.3,5.9,14.5,7.9,19.3
			c1.2,2.8,2.1,3.3,2.8,3.5c0.5,0.1,1,0.2,1.3,0.2c0.2,0,0.4,0.1,0.4,0.3c0,0.2-0.4,0.3-0.7,0.3c-0.5,0-2.9,0-5.2-0.1
			c-0.6,0-1.2,0-1.2-0.2c0-0.1,0.1-0.1,0.2-0.2c0.2-0.1,0.5-0.3,0.3-0.9l-3-7.3c-0.1-0.1-0.1-0.2-0.3-0.2h-7.6
			c-0.1,0-0.3,0.1-0.3,0.3l-1.9,5.1c-0.3,0.8-0.5,1.6-0.5,2.1c0,0.6,0.6,0.9,1.1,0.9h0.3c0.3,0,0.3,0.1,0.3,0.3
			c0,0.2-0.2,0.3-0.5,0.3c-0.8,0-2.6-0.1-3-0.1c-0.3,0-2,0.1-3.3,0.1c-0.4,0-0.6-0.1-0.6-0.3c0-0.2,0.1-0.3,0.3-0.3
			c0.2,0,0.7,0,1-0.1c1.5-0.2,2.1-1.3,2.8-2.9L116.4,380.8z M120,394.1c0.1,0,0.1-0.1,0.1-0.2l-3.3-8.7c-0.2-0.5-0.4-0.5-0.6,0
			l-3.1,8.7c0,0.1,0,0.2,0.1,0.2H120z"/>
		<path class="st0" d="M137.7,395.1c0,4.7,0.1,6.6,0.7,7.1c0.5,0.5,1.8,0.7,4.4,0.7c1.7,0,3.2,0,4-1c0.4-0.5,0.7-1.2,0.8-1.8
			c0-0.2,0.1-0.4,0.3-0.4c0.1,0,0.2,0.1,0.2,0.5s-0.2,2.2-0.5,3.2c-0.2,0.7-0.3,0.9-2.1,0.9c-2.4,0-4.2,0-5.7-0.1
			c-1.5,0-2.6-0.1-3.6-0.1c-0.1,0-0.7,0-1.3,0c-0.7,0-1.4,0.1-1.9,0.1c-0.3,0-0.5-0.1-0.5-0.3c0-0.1,0.1-0.3,0.3-0.3
			c0.3,0,0.7-0.1,1-0.1c0.6-0.1,0.7-0.7,0.9-1.7c0.2-1.3,0.2-3.8,0.2-6.9v-5.6c0-4.9,0-5.8-0.1-6.8c-0.1-1.1-0.3-1.6-1.3-1.8
			c-0.3,0-0.8-0.1-1.1-0.1c-0.1,0-0.3-0.2-0.3-0.3c0-0.2,0.1-0.3,0.5-0.3c1.5,0,3.6,0.1,3.7,0.1c0.1,0,2.6-0.1,3.6-0.1
			c0.3,0,0.5,0.1,0.5,0.3c0,0.1-0.1,0.2-0.3,0.2c-0.2,0-0.7,0-1.1,0.1c-1,0.2-1.2,0.7-1.2,1.8c0,1,0,1.9,0,6.8V395.1z"/>
		<path class="st0" d="M160.1,380.8c0.4-1,0.6-1.2,0.8-1.2c0.3,0,0.4,0.4,0.8,1.2c0.6,1.3,5.9,14.5,7.9,19.3
			c1.2,2.8,2.1,3.3,2.8,3.5c0.5,0.1,1,0.2,1.3,0.2c0.2,0,0.4,0.1,0.4,0.3c0,0.2-0.4,0.3-0.7,0.3c-0.5,0-2.9,0-5.2-0.1
			c-0.6,0-1.2,0-1.2-0.2c0-0.1,0.1-0.1,0.2-0.2c0.2-0.1,0.5-0.3,0.3-0.9l-3-7.3c-0.1-0.1-0.1-0.2-0.3-0.2h-7.6
			c-0.1,0-0.3,0.1-0.3,0.3l-1.9,5.1c-0.3,0.8-0.5,1.6-0.5,2.1c0,0.6,0.6,0.9,1.1,0.9h0.3c0.3,0,0.3,0.1,0.3,0.3
			c0,0.2-0.2,0.3-0.5,0.3c-0.8,0-2.6-0.1-3-0.1c-0.3,0-2,0.1-3.3,0.1c-0.4,0-0.6-0.1-0.6-0.3c0-0.2,0.1-0.3,0.3-0.3
			c0.2,0,0.7,0,1-0.1c1.5-0.2,2.1-1.3,2.8-2.9L160.1,380.8z M163.8,394.1c0.1,0,0.1-0.1,0.1-0.2l-3.3-8.7c-0.2-0.5-0.4-0.5-0.6,0
			l-3.1,8.7c0,0.1,0,0.2,0.1,0.2H163.8z"/>
		<path class="st0" d="M178.7,401.3c-3.2-2.8-4-6.4-4-9.4c0-2.1,0.8-5.8,3.7-8.7c2-1.9,5-3.4,10-3.4c1.3,0,3.2,0.1,4.8,0.4
			c1.2,0.2,2.3,0.4,3.4,0.5c0.3,0,0.4,0.1,0.4,0.3c0,0.3-0.1,0.6-0.1,1.8c0,1,0,2.8-0.1,3.3c0,0.5-0.2,0.7-0.4,0.7
			c-0.2,0-0.3-0.2-0.3-0.7c0-1.2-0.5-2.5-1.4-3.2c-1.2-1-3.6-1.8-6.5-1.8c-4.2,0-6.3,1.1-7.4,2.2c-2.4,2.2-3,5.1-3,8.3
			c0,6.1,4.8,11.5,11.9,11.5c2.5,0,4.1-0.2,5.4-1.5c0.7-0.7,1.2-2.1,1.3-2.7c0.1-0.3,0.1-0.4,0.3-0.4c0.1,0,0.3,0.2,0.3,0.4
			s-0.4,3-0.8,4.1c-0.2,0.6-0.3,0.7-0.8,0.9c-1.3,0.5-3.8,0.7-6,0.7C184.6,404.7,181.3,403.5,178.7,401.3z"/>
		<path class="st0" d="M207.9,395c0,3.1,0,5.6,0.1,6.9c0.1,0.9,0.2,1.5,1.2,1.7c0.5,0.1,1.2,0.1,1.5,0.1c0.2,0,0.3,0.2,0.3,0.3
			c0,0.1-0.1,0.3-0.5,0.3c-1.8,0-4-0.1-4.1-0.1c-0.2,0-2.2,0.1-3.3,0.1c-0.3,0-0.5-0.1-0.5-0.3c0-0.1,0.1-0.3,0.3-0.3
			c0.3,0,0.7-0.1,1-0.1c0.6-0.1,0.7-0.7,0.9-1.7c0.1-1.3,0.2-3.8,0.2-6.9v-5.6c0-4.9,0-5.8-0.1-6.8c-0.1-1.1-0.3-1.6-1-1.7
			c-0.4-0.1-0.8-0.1-1-0.1c-0.1,0-0.3-0.2-0.3-0.3c0-0.2,0.1-0.3,0.5-0.3c1.1,0,3.1,0.1,3.3,0.1c0.1,0,2.3-0.1,3.3-0.1
			c0.4,0,0.5,0.1,0.5,0.3c0,0.1-0.1,0.3-0.3,0.3c-0.2,0-0.4,0-0.8,0.1c-0.9,0.2-1.1,0.6-1.2,1.8c0,1,0,1.9,0,6.8V395z"/>
		<path class="st0" d="M228.3,379.7c7.4,0,13,4.5,13,11.9c0,7.1-5.3,13-13.2,13c-9,0-12.9-6.8-12.9-12.5
			C215.2,387,219.2,379.7,228.3,379.7z M229,403.4c3,0,8.9-1.6,8.9-10.8c0-7.6-4.6-11.6-9.8-11.6c-5.5,0-9.5,3.4-9.5,10.4
			C218.6,398.7,223.1,403.4,229,403.4z"/>
		<path class="st0" d="M262.3,386.8c0-5.8,0-6.9-0.1-8.1c-0.1-1.3-0.4-1.9-1.6-2.1c-0.3-0.1-0.9-0.1-1.3-0.1c-0.1,0-0.3-0.1-0.3-0.2
			c0-0.2,0.2-0.3,0.6-0.3c1.7,0,4,0.1,4.2,0.1c0.4,0,3.3-0.1,4.4-0.1c2.4,0,4.9,0.2,6.8,1.6c0.9,0.7,2.6,2.5,2.6,5.1
			c0,2.8-1.2,5.5-4.5,8.6c3.1,3.9,5.6,7.3,7.8,9.6c2,2.1,3.6,2.5,4.6,2.7c0.7,0.1,1.2,0.1,1.5,0.1c0.2,0,0.3,0.1,0.3,0.2
			c0,0.2-0.2,0.3-0.9,0.3h-2.7c-2.1,0-3-0.2-4-0.7c-1.6-0.9-2.9-2.7-5.1-5.5c-1.6-2.1-3.3-4.6-4.1-5.5c-0.1-0.1-0.3-0.2-0.5-0.2
			l-4.6-0.1c-0.2,0-0.3,0.1-0.3,0.3v0.9c0,3.6,0,6.5,0.2,8.1c0.1,1.1,0.3,1.9,1.5,2.1c0.5,0.1,1.3,0.1,1.7,0.1
			c0.2,0,0.3,0.1,0.3,0.2c0,0.2-0.2,0.3-0.6,0.3c-2.1,0-4.4-0.1-4.6-0.1c0,0-2.4,0.1-3.5,0.1c-0.4,0-0.6-0.1-0.6-0.3
			c0-0.1,0.1-0.2,0.3-0.2c0.3,0,0.8-0.1,1.1-0.1c0.7-0.1,0.9-1,1.1-2.1c0.2-1.6,0.2-4.5,0.2-8.1V386.8z M265.3,390.1
			c0,0.2,0.1,0.3,0.3,0.4c0.6,0.3,2.3,0.6,3.9,0.6c0.9,0,1.9-0.1,2.8-0.7c1.3-0.9,2.3-2.9,2.3-5.8c0-4.7-2.5-7.5-6.5-7.5
			c-1.1,0-2.1,0.1-2.5,0.2c-0.2,0.1-0.3,0.2-0.3,0.4V390.1z"/>
		<path class="st0" d="M289.6,389.4c0-4.9,0-5.8-0.1-6.8c-0.1-1.1-0.3-1.6-1.3-1.8c-0.3,0-0.8-0.1-1.1-0.1c-0.1,0-0.3-0.2-0.3-0.3
			c0-0.2,0.1-0.3,0.5-0.3c1.5,0,3.6,0.1,3.8,0.1c0.2,0,7.1,0,7.9,0c0.6,0,1.2-0.2,1.5-0.2c0.1,0,0.3-0.1,0.4-0.1
			c0.1,0,0.1,0.1,0.1,0.3c0,0.2-0.2,0.6-0.3,1.5c0,0.3-0.1,1.7-0.2,2.1c0,0.1-0.1,0.3-0.3,0.3c-0.2,0-0.3-0.2-0.3-0.4
			c0-0.2,0-0.7-0.2-1.1c-0.2-0.5-0.6-0.7-2.4-1c-0.6-0.1-4.4-0.1-4.8-0.1c-0.1,0-0.2,0.1-0.2,0.3v8.6c0,0.2,0,0.3,0.2,0.3
			c0.4,0,4.8,0,5.5-0.1c0.8-0.1,1.3-0.1,1.6-0.4c0.2-0.2,0.4-0.4,0.5-0.4s0.2,0.1,0.2,0.3c0,0.2-0.2,0.7-0.3,1.8
			c-0.1,0.6-0.1,1.8-0.1,2.1c0,0.3-0.1,0.6-0.3,0.6c-0.2,0-0.2-0.1-0.2-0.3c0-0.3,0-0.6-0.2-1c-0.1-0.4-0.4-0.8-1.7-1
			c-0.9-0.1-4.4-0.1-5-0.1c-0.2,0-0.2,0.1-0.2,0.2v2.7c0,1.1,0,4.8,0,5.4c0.1,2.1,0.7,2.5,3.9,2.5c0.9,0,2.4,0,3.3-0.3
			c0.9-0.4,1.3-0.9,1.5-2.2c0.1-0.4,0.2-0.5,0.3-0.5c0.2,0,0.2,0.3,0.2,0.5c0,0.2-0.3,2.4-0.4,3.1c-0.2,0.8-0.6,0.8-1.8,0.8
			c-2.5,0-4.4-0.1-5.7-0.1c-1.4-0.1-2.2-0.1-2.7-0.1c-0.1,0-0.7,0-1.4,0c-0.6,0-1.4,0.1-1.9,0.1c-0.3,0-0.5-0.1-0.5-0.3
			c0-0.1,0.1-0.3,0.3-0.3c0.3,0,0.7-0.1,1-0.1c0.6-0.1,0.7-0.7,0.9-1.7c0.2-1.3,0.2-3.8,0.2-6.9V389.4z"/>
		<path class="st0" d="M315.3,380.8c0.4-1,0.6-1.2,0.8-1.2c0.3,0,0.4,0.4,0.8,1.2c0.6,1.3,5.9,14.5,7.9,19.3
			c1.2,2.8,2.1,3.3,2.8,3.5c0.5,0.1,1,0.2,1.3,0.2c0.2,0,0.4,0.1,0.4,0.3c0,0.2-0.4,0.3-0.7,0.3c-0.5,0-2.9,0-5.2-0.1
			c-0.6,0-1.2,0-1.2-0.2c0-0.1,0.1-0.1,0.2-0.2c0.2-0.1,0.5-0.3,0.3-0.9l-3-7.3c-0.1-0.1-0.1-0.2-0.3-0.2h-7.6
			c-0.1,0-0.3,0.1-0.3,0.3l-1.9,5.1c-0.3,0.8-0.5,1.6-0.5,2.1c0,0.6,0.6,0.9,1.1,0.9h0.3c0.3,0,0.3,0.1,0.3,0.3
			c0,0.2-0.2,0.3-0.5,0.3c-0.8,0-2.6-0.1-3-0.1c-0.3,0-2,0.1-3.3,0.1c-0.4,0-0.6-0.1-0.6-0.3c0-0.2,0.2-0.3,0.3-0.3
			c0.2,0,0.7,0,1-0.1c1.5-0.2,2.1-1.3,2.8-2.9L315.3,380.8z M318.9,394.1c0.1,0,0.1-0.1,0.1-0.2l-3.3-8.7c-0.2-0.5-0.4-0.5-0.6,0
			l-3.1,8.7c0,0.1,0,0.2,0.1,0.2H318.9z"/>
		<path class="st0" d="M336.6,395.1c0,4.7,0.1,6.6,0.7,7.1c0.5,0.5,1.8,0.7,4.4,0.7c1.7,0,3.2,0,4-1c0.4-0.5,0.7-1.2,0.8-1.8
			c0-0.2,0.1-0.4,0.3-0.4c0.1,0,0.2,0.1,0.2,0.5s-0.2,2.2-0.5,3.2c-0.2,0.7-0.3,0.9-2.1,0.9c-2.4,0-4.2,0-5.7-0.1
			c-1.5,0-2.6-0.1-3.6-0.1c-0.1,0-0.7,0-1.3,0c-0.7,0-1.4,0.1-1.9,0.1c-0.3,0-0.5-0.1-0.5-0.3c0-0.1,0.1-0.3,0.3-0.3
			c0.3,0,0.7-0.1,1-0.1c0.6-0.1,0.7-0.7,0.9-1.7c0.2-1.3,0.2-3.8,0.2-6.9v-5.6c0-4.9,0-5.8-0.1-6.8c-0.1-1.1-0.3-1.6-1.3-1.8
			c-0.3,0-0.8-0.1-1.1-0.1c-0.1,0-0.3-0.2-0.3-0.3c0-0.2,0.1-0.3,0.5-0.3c1.5,0,3.6,0.1,3.7,0.1c0.2,0,2.6-0.1,3.6-0.1
			c0.3,0,0.5,0.1,0.5,0.3c0,0.1-0.1,0.2-0.3,0.2c-0.2,0-0.7,0-1.1,0.1c-1,0.2-1.2,0.7-1.2,1.8c0,1,0,1.9,0,6.8V395.1z"/>
	</g>
	<g>
		<path class="st0" d="M342.8,74.2c-7.1-3.3-8.8,4.8-8.8,4.8c2.3-2.5,4.8-0.6,4.8-0.6c4.4,4.8-2.3,12.4-2.3,12.4
			c-7.2,6.3-9.7,11.7-9.7,11.7c-3.8,8.6-2.2,13.2-2.2,13.2s0.2,0.1,0.6,0.3c0.2,0.1,0.4,0.3,0.6,0.5s0.5,0.4,0.7,0.7s0.4,0.6,0.6,1
			s0.3,0.8,0.4,1.2s0.2,0.9,0.2,1.4c0.1,0.5,0,0.9,0,1.4s-0.1,0.9-0.2,1.4s-0.2,0.9-0.3,1.3c-0.2,0.9-0.6,1.6-0.9,2.2
			s-0.6,1.1-0.8,1.5c-0.2,0.3-0.3,0.5-0.3,0.5s0.1-0.2,0.2-0.6c0.1-0.4,0.3-0.9,0.5-1.6c0.1-0.3,0.2-0.7,0.3-1.1
			c0.1-0.4,0.2-0.8,0.3-1.2c0.1-0.4,0.2-0.8,0.2-1.3c0.1-0.4,0.2-0.9,0.1-1.3c0.1-0.9,0.1-1.8-0.1-2.6c-0.1-0.4-0.2-0.8-0.3-1.1
			c-0.1-0.4-0.2-0.7-0.4-1c-0.3-0.6-0.6-1.1-0.9-1.3c-0.3-0.3-0.4-0.4-0.4-0.4c-2-2.9-3.9-1.8-3.9-1.8c0.1,2.1-0.7,2.4-0.7,2.4
			c-1.2-3.5-3.2-4.3-3.3-4.6c-3.8-2.8-8.8-0.2-8.8-0.2c4.3,1.8,2.8,6.9,2.8,6.9c-2.9,7.9,2,12.2,2,12.2c4,3.4,4,8,4,8
			c0,3.3-1,4.1-1,4.1c-0.4-1.9,1.1-5.1-3.1-7s-6.4-4.3-6.4-4.3c-8.6,11.5,1.1,24.7,1.1,24.7c-4.1-4.9-8.4-4.2-8.4-4.2
			c2.5,1.8,1.7,7.9,1.7,7.9c-1.6,13.1,5.3,20.4,5.9,21.2c14.9,17.7,21.6,18,21.6,18c-8.5-13.7-7.6-20.3-7.6-20.3
			c2.1-10.7,10.9-5.9,10.9-5.9c1.6,2.1,3,1.8,3.7,1.8c8.6-2.2,0-9.2-0.2-9.4c9.9,1.7,13.2-6.7,13.2-6.7c1-3.3,7.1-1.8,7.1-1.8
			c-2.7-8.1-8.7-9.6-10.5-9.9c-0.1,0-0.4,0-1-0.1c-0.7,0-1.6-0.2-2.7-0.2c-0.6,0-1.2,0-1.8,0c-0.6,0-1.3,0.1-2,0.1s-1.4,0.2-2.1,0.3
			s-1.4,0.3-2.1,0.5s-1.4,0.5-2.1,0.8c-0.6,0.4-1.3,0.6-1.8,1c-0.3,0.2-0.6,0.4-0.8,0.6c-0.3,0.2-0.5,0.4-0.8,0.6
			c-0.5,0.4-0.9,0.8-1.3,1.3c-0.4,0.4-0.7,0.8-1,1.2s-0.5,0.7-0.6,1c-0.3,0.6-0.5,0.9-0.5,0.9s0.1-0.4,0.3-1
			c0.1-0.3,0.3-0.7,0.5-1.1c0.2-0.4,0.5-0.9,0.8-1.3c0.4-0.5,0.7-1,1.2-1.4c0.2-0.2,0.5-0.5,0.7-0.7c0.3-0.2,0.6-0.4,0.9-0.7
			c0.6-0.5,1.3-0.8,1.9-1.2c0.7-0.3,1.4-0.7,2.2-0.8c0.8-0.2,1.5-0.4,2.3-0.5s1.5-0.2,2.2-0.2s1.4,0,2.1,0c0.7,0.1,1.3,0.1,1.8,0.2
			c0.6,0,1.1,0.2,1.5,0.3c0.5,0.1,0.8,0.2,1.2,0.3c0.5,0.1,0.8,0.2,0.9,0.2c6.5,0.6,10.5-5.2,10.5-5.2c-3.1,0.2-4-2.5-4-2.5
			c12.6,0.4,12-10.9,12-10.9c-4.5,3.6-11.3-1.2-11.3-1.2c9.9-5.6,7.8-12.1,7.8-12.1c-1.1,1.6-3.2,0.5-3.2,0.5
			c8-7.6,4.6-15.6,4.6-15.6c-1.3,4.6-6.2,4.6-6.2,4.6s-0.3,0.1-0.8,0.3c-0.3,0.1-0.6,0.2-0.9,0.4s-0.7,0.4-1.1,0.5
			c-0.4,0.2-0.8,0.5-1.3,0.7c-0.4,0.3-0.9,0.6-1.3,0.9c-0.4,0.4-0.9,0.7-1.3,1.1s-0.8,0.9-1.2,1.3c-0.3,0.5-0.7,1-0.9,1.5
			c-0.3,0.5-0.5,1-0.7,1.6c-0.2,0.5-0.4,1-0.5,1.5c-0.2,0.5-0.2,1-0.4,1.4c-0.2,0.9-0.3,1.7-0.4,2.2s-0.1,0.8-0.1,0.8s0-0.3-0.1-0.9
			c0-0.5-0.1-1.3,0-2.3c0.1-0.5,0.1-1,0.2-1.5s0.2-1.1,0.4-1.7c0.2-0.6,0.4-1.2,0.7-1.7c0.3-0.6,0.6-1.1,1-1.6s0.8-1,1.3-1.4
			c0.4-0.5,1-0.8,1.4-1.2c0.5-0.3,1-0.6,1.5-0.8s1-0.4,1.4-0.6c0.9-0.3,1.7-0.5,2.2-0.6s0.8-0.1,0.8-0.1c8.3-10-2-19.2-2-19.2
			c-1,3.6-2.8,3.4-2.8,3.4C352.5,78.2,342.8,74.2,342.8,74.2z M334,165c-0.3-0.1-0.6-0.2-1-0.3s-0.8-0.1-1.3-0.2
			c-0.2,0-0.5-0.1-0.7-0.1c-0.3,0-0.5,0-0.8,0.1c-0.3,0-0.5,0-0.8,0.1c-0.3,0-0.5,0.1-0.8,0.2c-0.3,0.1-0.6,0.1-0.8,0.3
			c-0.3,0.1-0.5,0.3-0.8,0.4c-0.3,0.1-0.5,0.3-0.8,0.5c-0.2,0.2-0.5,0.3-0.7,0.6c-0.4,0.4-0.9,0.8-1.3,1.3s-0.8,1-1.1,1.5
			c-0.7,1-1.2,2-1.6,2.8c-0.4,0.9-0.7,1.6-0.9,2.1c-0.2,0.5-0.4,0.8-0.4,0.8s0.1-0.3,0.2-0.9c0.1-0.6,0.3-1.4,0.6-2.3
			c0.1-0.5,0.4-1,0.6-1.5c0.3-0.5,0.5-1.1,0.8-1.6s0.7-1.1,1.1-1.6s0.9-1,1.4-1.5c0.3-0.2,0.6-0.4,0.8-0.6c0.3-0.2,0.6-0.4,0.9-0.5
			c0.6-0.3,1.2-0.6,1.9-0.7c0.3-0.1,0.6-0.2,0.9-0.2s0.6,0,0.9,0s0.6,0,0.8,0c0.3,0.1,0.5,0.1,0.8,0.2c0.5,0.1,0.9,0.2,1.3,0.4
			s0.7,0.3,1,0.4c0.5,0.3,0.8,0.4,0.8,0.4S334.6,165.1,334,165z M350.3,126.7c-0.3,0-0.7,0-1.2-0.1c-0.4,0-1,0.1-1.5,0.1
			c-0.3,0-0.6,0-0.9,0.1s-0.6,0.1-0.9,0.2s-0.6,0.1-0.9,0.2s-0.6,0.2-1,0.3c-0.3,0.1-0.7,0.2-1,0.3s-0.6,0.3-1,0.4
			c-0.7,0.2-1.3,0.6-1.9,1c-0.6,0.3-1.2,0.8-1.8,1.2c-0.6,0.5-1.2,0.8-1.7,1.3s-1,0.9-1.5,1.3c-0.5,0.4-0.9,0.9-1.2,1.3
			c-0.7,0.8-1.4,1.5-1.7,2c-0.4,0.5-0.6,0.8-0.6,0.8s0.6-1.4,1.9-3.2c0.7-0.9,1.5-1.9,2.6-2.9c0.5-0.5,1.1-0.9,1.7-1.4
			c0.6-0.4,1.2-0.9,1.9-1.2c0.7-0.4,1.3-0.7,2.1-1c0.3-0.1,0.7-0.3,1-0.4c0.4-0.1,0.7-0.2,1.1-0.3c0.3-0.1,0.7-0.2,1-0.2
			s0.7-0.1,1-0.1s0.6-0.1,0.9-0.1s0.6,0,0.9,0c0.6,0,1.1,0,1.5,0.1C349.6,126.5,349.9,126.6,350.3,126.7c0.6,0,1,0.1,1,0.1
			S351,126.7,350.3,126.7z M343.1,99.2c0,1.2-0.2,2.7-0.3,4.4c-0.3,1.7-0.5,3.6-1.1,5.6c-0.1,0.5-0.3,1-0.4,1.6
			c-0.2,0.5-0.3,1-0.5,1.6c-0.3,1.1-0.7,2.2-1.2,3.3c-0.2,0.6-0.5,1.1-0.7,1.7c-0.3,0.6-0.5,1.1-0.8,1.7c-0.5,1.2-1.2,2.3-1.8,3.4
			c-1.3,2.3-2.8,4.5-4.4,6.8c-1.6,2.2-3.2,4.5-4.9,6.7c-1.7,2.2-3.3,4.4-4.9,6.7c-1.6,2.2-3.1,4.4-4.4,6.6c-0.7,1.1-1.3,2.2-1.8,3.3
			c-0.6,1.1-1,2.2-1.5,3.3s-0.7,2.2-1.1,3.2c-0.2,1.1-0.5,2.1-0.7,3.1c-0.3,2-0.3,3.9-0.2,5.6c0.2,1.7,0.5,3.1,1,4.2
			c0.4,1.1,0.8,2,1.1,2.6c0.2,0.3,0.3,0.5,0.4,0.7s0.1,0.2,0.1,0.2s0-0.1-0.1-0.2c-0.1-0.1-0.2-0.4-0.4-0.6
			c-0.4-0.5-0.8-1.4-1.3-2.5s-0.9-2.6-1.2-4.3c-0.2-1.7-0.3-3.6-0.1-5.7c0.1-1.1,0.4-2.1,0.6-3.2c0.3-1.1,0.6-2.2,1-3.4
			c0.4-1.1,0.8-2.3,1.4-3.4c0.5-1.1,1.1-2.3,1.8-3.4c1.3-2.3,2.8-4.5,4.4-6.8s3.2-4.5,4.9-6.7c1.7-2.2,3.3-4.4,4.9-6.7
			c1.6-2.2,3.1-4.4,4.4-6.7c0.7-1.1,1.3-2.2,1.9-3.3c0.3-0.6,0.6-1.1,0.9-1.6c0.2-0.6,0.5-1.1,0.7-1.6c0.5-1.1,0.9-2.1,1.3-3.2
			c0.2-0.5,0.4-1,0.6-1.5c0.1-0.5,0.3-1,0.4-1.5c0.6-2,0.9-3.9,1.3-5.5c0.2-1.7,0.5-3.1,0.6-4.3c0.2-2.4,0.3-3.8,0.3-3.8
			S343.1,96.8,343.1,99.2z"/>
		<path class="st0" d="M401.3,153.6c-2.5-5.6-7.7-1.7-7.7-1.7c2.6-0.3,3.2,2.1,3.2,2.1c0.1,5.1-7.8,6.2-7.8,6.2
			c-7.6,0-11.8,2-11.8,2c-6.7,3.2-8.1,6.8-8.1,6.8s0.1,0.2,0.2,0.5c0,0.2,0.1,0.4,0.1,0.6c0,0.2,0,0.5,0,0.8s-0.1,0.6-0.2,0.9
			c-0.1,0.3-0.2,0.6-0.4,1c-0.2,0.3-0.3,0.6-0.6,0.9c-0.2,0.3-0.5,0.6-0.7,0.9c-0.3,0.3-0.6,0.5-0.8,0.7c-0.3,0.3-0.6,0.4-0.9,0.6
			c-0.6,0.4-1.2,0.6-1.7,0.9c-0.5,0.2-0.9,0.3-1.2,0.5c-0.3,0.1-0.5,0.2-0.5,0.2s0.1-0.1,0.4-0.3s0.6-0.4,1.1-0.7
			c0.2-0.2,0.5-0.3,0.7-0.5c0.3-0.2,0.5-0.4,0.8-0.6c0.3-0.2,0.5-0.4,0.8-0.6c0.3-0.2,0.5-0.4,0.8-0.7c0.5-0.5,0.9-1,1.3-1.6
			c0.2-0.3,0.3-0.5,0.4-0.8s0.2-0.5,0.3-0.8c0.1-0.5,0.2-0.9,0.2-1.3c0-0.3,0-0.5,0-0.5c0.3-2.8-1.4-3.1-1.4-3.1
			c-1,1.3-1.7,1.1-1.7,1.1c1.1-2.7,0.3-4.2,0.4-4.5c-0.8-3.7-5.1-4.6-5.1-4.6c1.7,3.3-1.9,5.6-1.9,5.6c-5.8,3.3-5.1,8.3-5.1,8.3
			c0.7,4.1-1.7,6.8-1.7,6.8c-1.7,1.9-2.7,1.9-2.7,1.9c0.7-1.3,3.3-2.5,1.7-5.8c-1.5-3.3-1.6-5.9-1.6-5.9
			c-11.1,2.4-12.1,15.3-12.1,15.3c0.1-5-2.8-6.8-2.8-6.8c0.6,2.4-3.1,5.6-3.1,5.6c-7.7,7-4.3,14.9-4.6,15.7
			c-5.6,13.5,0.8,21.9,0.8,21.9c1.3-8.3,6.3-14.6,6.3-14.6c6.8-5.3,9.1,0.7,9.1,0.7c-0.1,2.1,0.9,2.6,1.3,3c6.3,3.2,4.7-5.5,4.7-5.7
			c5,6.1,11.4,2.8,11.4,2.8c2.3-1.5,5.2,2.6,5.2,2.6c2.6-6.2-0.2-10.2-1.2-11.3c0,0-0.2-0.2-0.6-0.6c-0.4-0.4-0.9-0.9-1.5-1.5
			c-0.3-0.3-0.7-0.6-1.1-1c-0.4-0.3-0.8-0.6-1.3-1c-0.4-0.4-0.9-0.6-1.4-0.9c-0.5-0.3-1-0.5-1.5-0.8s-1.1-0.4-1.6-0.6
			c-0.6-0.1-1.1-0.3-1.6-0.3c-0.3,0-0.5-0.1-0.8-0.1s-0.5,0-0.8,0c-0.5,0-1,0-1.4,0.1s-0.8,0.1-1.2,0.2c-0.4,0.1-0.7,0.2-0.9,0.3
			c-0.5,0.2-0.8,0.3-0.8,0.3s0.2-0.2,0.7-0.4c0.2-0.1,0.5-0.3,0.9-0.4c0.3-0.1,0.7-0.3,1.2-0.4c0.4-0.1,0.9-0.2,1.5-0.2
			c0.3,0,0.5,0,0.8-0.1c0.3,0,0.6,0,0.8,0.1c0.6,0,1.2,0.2,1.8,0.3c0.6,0.2,1.2,0.3,1.7,0.6s1.1,0.5,1.6,0.9c0.5,0.3,1,0.6,1.4,1
			s0.9,0.7,1.2,1.1c0.4,0.4,0.7,0.7,1,1.1c0.3,0.3,0.6,0.7,0.8,1c0.2,0.3,0.4,0.6,0.6,0.8c0.2,0.3,0.4,0.5,0.4,0.6
			c3.6,3.7,9,2.3,9,2.3c-2-1.5-1.1-3.5-1.1-3.5c7.3,6.8,12.8-0.3,12.8-0.3c-4.6-0.2-6.1-6.6-6.1-6.6c8.8,1.7,10.9-3.2,10.9-3.2
			c-1.5,0.4-2.2-1.3-2.2-1.3c8.7-0.4,10.8-7,10.8-7c-3.1,2-6.1-0.5-6.1-0.5s-0.2-0.1-0.6-0.2c-0.2-0.1-0.4-0.2-0.7-0.3
			c-0.3-0.1-0.6-0.2-1-0.3c-0.3-0.1-0.7-0.2-1.1-0.2c-0.4-0.1-0.8-0.1-1.3-0.1c-0.4,0-0.9,0-1.4,0s-0.9,0.1-1.4,0.2
			c-0.5,0.1-0.9,0.2-1.3,0.4s-0.8,0.4-1.2,0.6c-0.4,0.2-0.8,0.4-1.1,0.6c-0.4,0.2-0.7,0.5-1,0.7c-0.6,0.5-1,0.8-1.4,1.1
			c-0.3,0.3-0.5,0.4-0.5,0.4s0.1-0.2,0.4-0.5s0.7-0.8,1.2-1.3c0.3-0.2,0.6-0.5,0.9-0.8s0.7-0.5,1.1-0.8c0.4-0.2,0.8-0.5,1.3-0.7
			s1-0.3,1.4-0.5c0.5-0.1,1-0.2,1.5-0.2c0.5-0.1,1,0,1.5,0c0.5,0.1,0.9,0.2,1.3,0.3s0.8,0.2,1.1,0.4c0.7,0.3,1.2,0.6,1.6,0.8
			s0.6,0.4,0.6,0.4c10.1-1.6,8.7-12.5,8.7-12.5c-2.4,1.6-3.4,0.6-3.4,0.6C405.1,161,401.3,153.6,401.3,153.6z M349.3,203.2
			c-0.1-0.2-0.3-0.4-0.5-0.7s-0.4-0.5-0.7-0.8c-0.1-0.1-0.3-0.3-0.4-0.4c-0.1-0.1-0.3-0.2-0.5-0.4c-0.2-0.1-0.3-0.3-0.5-0.4
			c-0.2-0.1-0.4-0.2-0.6-0.3s-0.4-0.2-0.6-0.3s-0.5-0.1-0.7-0.2c-0.2-0.1-0.5-0.1-0.7-0.1s-0.5-0.1-0.7-0.1c-0.5,0-1,0-1.5,0.1
			s-1,0.2-1.4,0.3c-0.9,0.3-1.7,0.6-2.4,0.9c-0.7,0.3-1.3,0.6-1.7,0.8c-0.4,0.2-0.6,0.3-0.6,0.3s0.2-0.2,0.6-0.4
			c0.4-0.3,0.9-0.7,1.6-1.1c0.3-0.2,0.7-0.4,1.1-0.6c0.4-0.2,0.8-0.4,1.3-0.5c0.5-0.2,1-0.3,1.5-0.4c0.5-0.1,1.1-0.1,1.6-0.2
			c0.3,0,0.5,0,0.8,0.1c0.3,0,0.5,0,0.8,0.1c0.5,0.1,1,0.3,1.5,0.6c0.2,0.1,0.5,0.2,0.6,0.4c0.2,0.2,0.4,0.3,0.5,0.5
			c0.2,0.2,0.3,0.3,0.5,0.5c0.1,0.2,0.3,0.3,0.4,0.5c0.2,0.3,0.5,0.6,0.6,0.9c0.1,0.3,0.2,0.5,0.3,0.7c0.2,0.4,0.3,0.7,0.3,0.7
			S349.5,203.6,349.3,203.2z M378.7,188.8c-0.2-0.2-0.4-0.4-0.7-0.6c-0.3-0.2-0.6-0.4-0.9-0.7c-0.2-0.1-0.3-0.3-0.5-0.4
			c-0.2-0.1-0.4-0.2-0.6-0.4c-0.2-0.1-0.4-0.2-0.7-0.4c-0.2-0.1-0.5-0.2-0.7-0.3s-0.5-0.2-0.7-0.3c-0.3-0.1-0.5-0.2-0.8-0.3
			c-0.5-0.2-1.1-0.3-1.7-0.4c-0.6-0.1-1.1-0.2-1.7-0.3c-0.6,0-1.1-0.1-1.7-0.1c-0.5,0-1.1,0-1.6,0s-1,0.1-1.4,0.1
			c-0.9,0.1-1.6,0.2-2.1,0.3s-0.8,0.2-0.8,0.2s1.1-0.5,2.8-0.9c0.9-0.2,1.9-0.4,3-0.4c0.6,0,1.1,0,1.7,0c0.6,0.1,1.2,0.1,1.8,0.2
			c0.6,0.1,1.2,0.2,1.7,0.5c0.3,0.1,0.6,0.2,0.8,0.3c0.3,0.1,0.5,0.3,0.8,0.4c0.3,0.1,0.5,0.2,0.7,0.4s0.4,0.3,0.7,0.5
			c0.2,0.1,0.4,0.3,0.6,0.4c0.2,0.2,0.4,0.3,0.5,0.5c0.3,0.3,0.6,0.6,0.9,0.8c0.2,0.3,0.4,0.5,0.6,0.7c0.3,0.4,0.5,0.6,0.5,0.6
			S379.1,189.2,378.7,188.8z M388.6,168.7c-0.7,0.7-1.5,1.5-2.5,2.4s-2.1,1.9-3.5,2.8c-0.3,0.2-0.7,0.5-1,0.7
			c-0.4,0.2-0.7,0.5-1.1,0.7c-0.8,0.5-1.6,0.9-2.4,1.3c-0.4,0.2-0.9,0.4-1.3,0.7c-0.4,0.2-0.9,0.4-1.4,0.6c-0.9,0.4-1.9,0.7-2.8,1.1
			c-2,0.7-4,1.3-6.1,1.8s-4.2,1-6.4,1.5c-2.1,0.5-4.3,0.9-6.4,1.4s-4.2,1-6.1,1.7c-1,0.3-1.9,0.7-2.8,1s-1.8,0.8-2.6,1.2
			c-0.8,0.4-1.6,0.9-2.3,1.4c-0.7,0.5-1.4,1-2,1.5c-1.2,1-2.2,2.2-3,3.2c-0.7,1.1-1.3,2.1-1.6,3c-0.3,0.9-0.5,1.6-0.6,2.1
			c-0.1,0.3-0.1,0.4-0.1,0.6c0,0.1-0.1,0.2-0.1,0.2s0-0.1,0.1-0.2c0-0.1,0-0.3,0.1-0.6c0.1-0.5,0.2-1.3,0.5-2.2s0.8-2,1.5-3.2
			c0.7-1.1,1.7-2.4,2.9-3.5c0.6-0.6,1.3-1.1,2-1.6c0.8-0.5,1.5-1,2.4-1.5c0.8-0.4,1.7-0.9,2.6-1.3c0.9-0.4,1.9-0.8,2.9-1.1
			c2-0.7,4-1.2,6.1-1.8c2.1-0.5,4.2-1,6.4-1.5c2.1-0.5,4.3-0.9,6.4-1.4s4.1-1.1,6.1-1.7c1-0.3,1.9-0.7,2.8-1
			c0.5-0.2,0.9-0.4,1.4-0.5c0.4-0.2,0.9-0.4,1.3-0.6c0.9-0.4,1.7-0.8,2.4-1.2c0.4-0.2,0.8-0.4,1.1-0.6c0.4-0.2,0.7-0.5,1-0.7
			c1.4-0.9,2.5-1.8,3.6-2.6c1-0.9,1.9-1.6,2.6-2.3c1.4-1.4,2.1-2.1,2.1-2.1S389.9,167.2,388.6,168.7z"/>
		<path class="st0" d="M349.8,232.7c0,0,5,2.3,6.6-2.4c0,1.8,0.9,4.5,6.3,6.2c0,0,5.7,3.5-1.7,5.1c0,0,5.2,6.8,10.3-3.2
			c0,0,3.2-8.3-4.4-10.9c0,0,2.8,1.1,5.9-0.7c0,0-4.5-8.9-10-7.7c0,0,3.9-1.1,5-3c0,0-2.6-4.3-9.9-2.3c0,0,1.5-0.9,2.7-3.6
			c-0.3-0.2-10.8-5-23.9,10.3c0,0,0.3-0.3,0.8-0.7c0.3-0.2,0.6-0.5,1-0.8c0.2-0.2,0.4-0.3,0.6-0.5s0.5-0.3,0.7-0.5s0.5-0.4,0.8-0.5
			c0.3-0.2,0.6-0.4,0.9-0.5c0.3-0.2,0.6-0.3,0.9-0.5s0.7-0.3,1-0.5c0.4-0.1,0.7-0.3,1.1-0.4c0.4-0.1,0.8-0.2,1.1-0.4
			c0.4-0.1,0.8-0.2,1.2-0.3c0.4-0.1,0.8-0.2,1.2-0.2c0.8-0.1,1.6-0.1,2.4-0.1s1.6,0.1,2.3,0.3c0.8,0.1,1.5,0.3,2.1,0.6
			c0.7,0.2,1.3,0.5,1.8,0.8c1.1,0.5,1.9,1.1,2.5,1.5s0.9,0.7,0.9,0.7s-0.3-0.3-0.9-0.6c-0.6-0.4-1.5-0.9-2.6-1.4
			c-0.6-0.2-1.2-0.5-1.8-0.7c-0.7-0.2-1.4-0.4-2.1-0.5s-1.5-0.2-2.3-0.2s-1.6,0-2.4,0.1c-0.4,0-0.8,0.1-1.2,0.2
			c-0.4,0.1-0.8,0.2-1.2,0.3c-0.4,0.1-0.8,0.2-1.1,0.3c-0.4,0.1-0.7,0.3-1.1,0.4c-0.3,0.1-0.7,0.3-1,0.4c-0.3,0.2-0.6,0.3-0.9,0.5
			c-0.3,0.1-0.6,0.3-0.9,0.5s-0.6,0.3-0.8,0.5c-0.5,0.3-1,0.6-1.4,0.9c-0.4,0.3-0.8,0.5-1,0.8c-0.5,0.4-0.8,0.7-0.9,0.7
			c-0.5,0.6-1.1,1.3-1.7,2C334.8,222.9,348.4,219.8,349.8,232.7z M355.1,223.6c0.4,0.4,0.6,0.6,0.6,0.6s-0.1-0.1-0.2-0.2
			C355.4,224,355.3,223.8,355.1,223.6c-0.3-0.1-0.5-0.3-0.9-0.5c-0.3-0.2-0.7-0.4-1.1-0.7c-0.2-0.1-0.4-0.2-0.6-0.4
			c-0.2-0.1-0.5-0.2-0.7-0.3c-0.5-0.2-1-0.4-1.6-0.6c-0.3-0.1-0.6-0.2-0.9-0.3c-0.1,0-0.3-0.1-0.4-0.1s-0.3-0.1-0.4-0.1
			c-0.3-0.1-0.6-0.1-0.9-0.2c-0.3-0.1-0.6-0.1-0.9-0.1c-0.6-0.1-1.2-0.1-1.9-0.1h-0.5h-0.5c-0.3,0-0.6,0-0.9,0.1
			c-0.3,0-0.6,0.1-0.9,0.1s-0.6,0.1-0.8,0.1c-0.5,0.1-1,0.2-1.5,0.4c-0.2,0.1-0.4,0.1-0.6,0.2c-0.1,0-0.2,0.1-0.3,0.1
			c-0.1,0-0.2,0.1-0.3,0.1c-0.4,0.1-0.7,0.3-0.9,0.4c-0.5,0.2-0.8,0.3-0.8,0.3s0.3-0.1,0.8-0.4c0.3-0.1,0.6-0.3,0.9-0.4
			c0.3-0.2,0.8-0.3,1.2-0.5c0.5-0.1,0.9-0.4,1.5-0.5c0.3-0.1,0.5-0.1,0.8-0.2c0.3-0.1,0.6-0.1,0.9-0.1s0.6-0.1,0.9-0.1h0.5h0.5
			c0.6,0,1.3,0,1.9,0.1c0.3,0,0.6,0.1,0.9,0.1c0.3,0.1,0.6,0.1,0.9,0.2c0.2,0,0.3,0.1,0.5,0.1c0.1,0,0.3,0.1,0.4,0.1
			c0.3,0.1,0.6,0.2,0.9,0.3c0.6,0.2,1.1,0.4,1.6,0.7c0.2,0.1,0.5,0.2,0.7,0.4c0.2,0.1,0.4,0.3,0.6,0.4c0.4,0.3,0.8,0.5,1.1,0.8
			C354.6,223.2,354.9,223.4,355.1,223.6z M337.4,220.9c0.2-0.2,0.4-0.3,0.7-0.5c0.3-0.2,0.5-0.4,0.8-0.6c0.3-0.2,0.6-0.4,1-0.6
			c0.3-0.2,0.7-0.4,1.1-0.6c0.4-0.2,0.8-0.4,1.3-0.5s0.9-0.3,1.4-0.4c0.5-0.1,1-0.2,1.5-0.3c0.3,0,0.5-0.1,0.8-0.1
			c0.1,0,0.3,0,0.4,0h0.4c0.3,0,0.6,0,0.8,0c0.3,0,0.6,0.1,0.8,0.1c0.6,0,1.1,0.2,1.7,0.3c0.3,0,0.6,0.1,0.8,0.2
			c0.3,0.1,0.6,0.2,0.8,0.3c0.5,0.2,1.1,0.4,1.6,0.7c1.1,0.5,2.1,1.1,3,1.7c0.9,0.7,1.9,1.3,2.7,2.1c0.8,0.7,1.6,1.5,2.3,2.2
			c0.7,0.7,1.3,1.4,1.9,2.1c1.1,1.3,2,2.5,2.5,3.4c0.6,0.8,0.9,1.4,0.9,1.4s-0.3-0.5-0.9-1.3s-1.5-2-2.6-3.3c-0.6-0.7-1.2-1.3-1.9-2
			c-0.7-0.7-1.5-1.4-2.3-2.1c-0.8-0.7-1.7-1.4-2.7-2s-1.9-1.2-3-1.7c-0.5-0.3-1.1-0.4-1.6-0.7c-0.3-0.1-0.5-0.2-0.8-0.3
			s-0.5-0.2-0.8-0.2c-0.6-0.1-1.1-0.2-1.6-0.3c-0.3,0-0.5-0.1-0.8-0.1s-0.5,0-0.8,0h-0.4c-0.1,0-0.3,0-0.4,0c-0.3,0-0.5,0-0.8,0.1
			c-0.5,0-1,0.2-1.5,0.2c-0.5,0.1-0.9,0.3-1.4,0.4c-0.4,0.1-0.8,0.3-1.3,0.5c-0.4,0.1-0.8,0.4-1.1,0.5c-0.3,0.2-0.7,0.3-1,0.5
			s-0.6,0.4-0.8,0.5C337.9,220.7,337.6,220.8,337.4,220.9c-0.8,0.7-1.2,1-1.2,1S336.6,221.6,337.4,220.9z"/>
		<path class="st0" d="M336.2,222.3c-0.5-0.1-1-0.3-1.5-0.4c0,0-0.3,0-0.7,0c-0.2,0-0.5,0-0.8,0s-0.6,0-1,0c-0.2,0-0.4,0-0.6,0
			s-0.4,0-0.6,0.1c-0.2,0-0.4,0.1-0.6,0.1s-0.4,0.1-0.7,0.1c-0.2,0.1-0.4,0.1-0.7,0.2c-0.2,0.1-0.4,0.2-0.7,0.2
			c-0.2,0.1-0.4,0.2-0.7,0.3c-0.2,0.1-0.4,0.2-0.6,0.3c-0.4,0.2-0.8,0.5-1.2,0.8c-0.4,0.3-0.7,0.6-1,0.9c-0.3,0.3-0.6,0.7-0.8,1
			c-0.3,0.3-0.5,0.7-0.6,1c-0.4,0.6-0.6,1.2-0.8,1.6c-0.2,0.4-0.2,0.6-0.2,0.6s0-0.2,0.2-0.7c0.1-0.4,0.3-1,0.7-1.6
			c0.2-0.3,0.4-0.7,0.6-1s0.5-0.7,0.8-1s0.7-0.7,1-1c0.4-0.3,0.8-0.6,1.2-0.8c0.2-0.1,0.4-0.2,0.7-0.3c0.2-0.1,0.5-0.2,0.7-0.3
			s0.5-0.2,0.7-0.2c0.2-0.1,0.5-0.1,0.7-0.2c0.2,0,0.4-0.1,0.7-0.1c0.2,0,0.4-0.1,0.6-0.1s0.4,0,0.6-0.1c0.2,0,0.4,0,0.6,0
			s0.4,0,0.5,0c0.2,0,0.3,0,0.5,0c0.3,0,0.6,0,0.8,0.1c0.4,0,0.6,0.1,0.7,0.1c-11.9-2.8-15.3,3.3-15.4,3.5c1.5,0.9,2.6,0.8,2.6,0.8
			c-4.3,1.6-4,4.6-4,4.6c1.2,0.5,3.5-0.3,3.5-0.3c-3.1,1.4-2.1,7.4-2.1,7.4c2.1-0.2,3.1-1.8,3.1-1.8c-2.8,4,1.8,6.9,1.8,6.9
			c6.1,3,6.2-2.1,6.2-2.1c-4.2,1.9-2.7-1.9-2.7-1.9c2-2.7,1.5-4.4,0.9-5.3c2.4,1.7,4.1-1.2,4.1-1.2
			C328.6,225.7,336.4,222.4,336.2,222.3z M326.8,229.4c0.1-0.2,0.1-0.5,0.3-0.7c0.1-0.1,0.1-0.3,0.2-0.4s0.1-0.3,0.2-0.4
			c0.1-0.3,0.3-0.6,0.5-0.9c0.1-0.1,0.2-0.3,0.3-0.4c0.1-0.1,0.1-0.2,0.2-0.2c0.1-0.1,0.1-0.1,0.2-0.2s0.3-0.3,0.4-0.4
			s0.3-0.3,0.4-0.4c0.3-0.3,0.6-0.5,0.9-0.7l0.2-0.2l0.2-0.1c0.2-0.1,0.3-0.2,0.5-0.3s0.3-0.2,0.5-0.2c0.2-0.1,0.3-0.1,0.5-0.2
			c0.3-0.1,0.6-0.2,0.9-0.3s0.5-0.2,0.8-0.2c0.2,0,0.4-0.1,0.6-0.1c0.3-0.1,0.5-0.1,0.5-0.1s-0.2,0-0.5,0.1c-0.2,0-0.4,0.1-0.6,0.2
			c-0.1,0-0.1,0-0.2,0s-0.1,0-0.2,0.1c-0.1,0-0.3,0.1-0.4,0.1c-0.3,0.1-0.6,0.2-0.9,0.3c-0.1,0.1-0.3,0.1-0.4,0.2
			c-0.2,0.1-0.3,0.1-0.5,0.2c-0.2,0.1-0.3,0.2-0.5,0.3l-0.2,0.1l-0.2,0.2c-0.3,0.2-0.6,0.4-0.9,0.7c-0.1,0.1-0.3,0.3-0.4,0.4
			s-0.3,0.3-0.4,0.4s-0.1,0.1-0.2,0.2s-0.1,0.1-0.2,0.2s-0.2,0.3-0.3,0.4c-0.2,0.3-0.4,0.6-0.5,0.9c-0.1,0.1-0.2,0.3-0.2,0.4
			c-0.1,0.1-0.1,0.3-0.2,0.4C327.1,229,327,229.2,326.8,229.4c0,0.3-0.1,0.4-0.1,0.6s-0.1,0.3-0.1,0.4s0,0.1,0,0.1s0-0.2,0.1-0.5
			C326.7,229.8,326.8,229.6,326.8,229.4z M335.4,222.4c0,0-0.4,0-1,0c-0.2,0-0.3,0-0.5,0s-0.4,0-0.6,0s-0.4,0.1-0.7,0.1
			c-0.2,0-0.5,0.1-0.7,0.1c-0.3,0.1-0.5,0.1-0.8,0.2c-0.3,0.1-0.5,0.2-0.8,0.3s-0.5,0.3-0.8,0.4c-0.1,0.1-0.3,0.2-0.4,0.2
			s-0.1,0.1-0.2,0.1l-0.2,0.1c-0.1,0.1-0.3,0.2-0.4,0.3s-0.2,0.2-0.4,0.3c-0.3,0.2-0.5,0.5-0.7,0.7c-0.1,0.1-0.2,0.3-0.3,0.4
			c-0.1,0.1-0.2,0.3-0.3,0.4c-0.2,0.3-0.4,0.6-0.5,0.9c-0.4,0.6-0.6,1.2-0.9,1.9c-0.2,0.6-0.4,1.3-0.6,1.9s-0.3,1.3-0.4,1.9
			s-0.2,1.2-0.2,1.7c-0.1,1-0.1,1.9-0.1,2.5s0,1,0,1s0-0.3-0.1-1c0-0.6,0-1.5,0-2.5c0-0.5,0.1-1.1,0.2-1.7s0.2-1.2,0.3-1.9
			c0.1-0.6,0.3-1.3,0.6-2c0.3-0.6,0.5-1.3,0.9-1.9c0.2-0.3,0.4-0.6,0.6-0.9c0.1-0.1,0.2-0.3,0.3-0.4c0.1-0.1,0.2-0.3,0.3-0.4
			c0.2-0.3,0.5-0.5,0.7-0.7c0.1-0.1,0.2-0.2,0.4-0.3c0.1-0.1,0.3-0.2,0.4-0.3l0.2-0.1c0.1,0,0.1-0.1,0.2-0.1
			c0.1-0.1,0.3-0.2,0.4-0.2c0.3-0.2,0.6-0.3,0.8-0.4c0.3-0.1,0.6-0.2,0.8-0.3c0.3-0.1,0.5-0.1,0.8-0.2c0.3-0.1,0.5-0.1,0.8-0.1
			c0.2,0,0.5-0.1,0.7-0.1s0.4,0,0.6,0s0.4,0,0.5,0C335,222.4,335.4,222.4,335.4,222.4z"/>
		<g>
			<path class="st0" d="M319,106h-0.1H319z"/>
			<path class="st0" d="M328.8,79.1c0,0-0.2,0-0.5,0s-0.8,0.1-1.3,0.1c-0.5,0.1-1.1,0.2-1.8,0.4c-0.6,0.2-1.3,0.4-1.9,0.7
				c-0.3,0.2-0.6,0.3-0.9,0.5s-0.6,0.4-0.8,0.6c-0.3,0.2-0.5,0.4-0.7,0.6s-0.4,0.4-0.6,0.6s-0.3,0.4-0.5,0.6
				c-0.1,0.2-0.2,0.3-0.3,0.5c-0.2,0.3-0.3,0.4-0.3,0.4s0.1-0.2,0.2-0.5s0.3-0.7,0.6-1.2c0.1-0.3,0.3-0.5,0.5-0.7
				c0.2-0.3,0.4-0.5,0.7-0.7c0.5-0.5,1.1-0.9,1.8-1.3c0.7-0.3,1.4-0.6,2.1-0.7s1.3-0.2,1.9-0.2C328.1,78.8,328.8,79.1,328.8,79.1
				s4.8-2.4,5-7c0,0-1.6-2-3.4-1c0,0,0.5-2.2-0.2-3.6c0,0,4.3-1,4.2-6.7c0,0-0.5-0.7-2.5,0.5c0,0,3.1-4.7-1.2-9.7
				c0,0,0.3,0.8-0.3,2.1c0,0-4.3,1.4-4.1,4.3c-0.1-0.6-0.2-1.6-0.6-2.1c0,0-0.8,0.3-1.3,1c0,0-0.7,1.3-1.6,3.1
				c-0.5,0.9-1,2.1-1.5,3.2c-0.5,1.2-1.1,2.5-1.6,3.8c-0.3,0.6-0.5,1.3-0.7,1.9s-0.4,1.3-0.6,1.9s-0.3,1.2-0.5,1.8
				c-0.2,0.6-0.2,1.1-0.3,1.7c-0.1,0.5-0.1,1-0.1,1.4c0,0.2,0,0.4,0,0.6s0,0.4,0,0.5c0,0.6,0.1,1,0.1,1s-0.1-0.3-0.2-0.9
				c0-0.2-0.1-0.3-0.1-0.5s0-0.4,0-0.6c0-0.4-0.1-0.9,0-1.5c0.1-0.5,0.1-1.1,0.2-1.7s0.2-1.2,0.4-1.9c0.3-1.3,0.8-2.6,1.3-4
				c0.3-0.7,0.6-1.3,0.8-1.9c0.3-0.6,0.6-1.2,0.9-1.8c0.6-1.2,1.2-2.2,1.8-3.2c1.1-1.8,2-2.9,2-2.9s1.4-3.9-0.4-7.3
				c0,0-1.9,0.5-2.8,2.1c0,0,0.2-6.1-4.4-8c-0.2,0.4-1.9,2.3-0.9,4.5c0,0-7.2-11-18.2-6.1c0,0-7.7,3.4-4.2,10.7c0,0,4.1,5.7,6.2,2
				c0,0,2.5-2.8-0.5-5.5c-0.3,0-2-0.7-3.1,0.5c0,0,1.2-4,4.9-3.4c0,0,5.1,0.5,8.7,6.7c0,0-7.5-2.4-7.4,4c0,0,1.9-1.2,3.6,0.8
				c0,0-2.7,1-2.5,2.1c0,0,1.1,0.1,2.4,2.8c0,0-0.9,1.5-0.3,2.3c0,0-7.1-10.4-11.1-3.3c0,0,1.8-1.8,2.8,0.9c0,0,1,2.2,0.4,3.8
				c-0.5,1.3,0.6,2.7,1.8,3c-0.9,0-2.4,0.2-3.1,1.5c0,0,2.1,1.7,2.6,3.6c0.4,1.9,2.1,2.4,3.4,2.4c0,0-6.9,0.1-1.8,6.3
				c0,0,0.2-3.6,3.5-1.4c0,0,2.4,0.4,3.2,9.8c0,0-1.3,14.8,11.7,14.4c-0.4,0-2.1-0.7-2.4-8c0,0,6.3,4.5,10.2,1c0,0,2.4-2.8,1.3-6.6
				c0,0,1.2-0.5,2.1,0.2c0,0-0.1-2.9-2.9-3.8c1,0.1,2.7,0,3.4-1.6c0,0,2.2-3.2,4.7-1.5C335.2,85.7,333.1,79.2,328.8,79.1z
				 M309.3,76.7c0,0.4-0.1,0.9-0.1,1.2c0,0.8-0.2,1.4-0.2,1.9c-0.1,0.4-0.1,0.7-0.1,0.7s0-0.3,0-0.7c0-0.4,0-1.1-0.1-1.9
				c0-0.4,0-0.8-0.1-1.2c0-0.4-0.1-0.9-0.1-1.4s-0.1-1-0.1-1.5c-0.1-0.5-0.1-1-0.2-1.5s-0.2-1-0.3-1.5c-0.1-0.5-0.2-1-0.3-1.4
				c-0.3-0.9-0.5-1.7-0.9-2.4c-0.3-0.7-0.6-1.2-0.9-1.6s-0.4-0.6-0.4-0.6s0.2,0.1,0.5,0.5c0.3,0.3,0.8,0.8,1.1,1.5
				c0.2,0.3,0.4,0.7,0.6,1.1s0.4,0.8,0.5,1.3c0.3,0.9,0.6,1.9,0.7,3c0.1,0.5,0.1,1,0.2,1.5s0.1,1,0.1,1.5
				C309.3,75.8,309.3,76.3,309.3,76.7z M311.1,86.9c0.1,1.4,0.2,2.7,0.4,4c0.2,1.3,0.5,2.5,0.7,3.7c0.1,0.6,0.3,1.1,0.5,1.7
				c0.2,0.5,0.3,1.1,0.5,1.6s0.4,1,0.5,1.4c0.2,0.4,0.4,0.9,0.5,1.3c0.3,0.8,0.7,1.5,1,2s0.5,1,0.7,1.2c0.2,0.3,0.3,0.4,0.3,0.4
				s-0.1-0.1-0.3-0.4c-0.2-0.3-0.5-0.7-0.9-1.2c-0.3-0.5-0.7-1.2-1.1-1.9c-0.2-0.4-0.4-0.8-0.6-1.2s-0.4-0.9-0.6-1.4s-0.4-1-0.6-1.6
				s-0.4-1.1-0.6-1.7c-0.3-1.2-0.7-2.4-0.9-3.8c-0.3-1.3-0.4-2.7-0.5-4.1S310,84,310,82.6c0.1-1.4,0.2-2.9,0.4-4.3
				c0.2-1.4,0.5-2.8,0.7-4.1c0.4-1.3,0.7-2.5,1-3.7c0.4-1.2,0.8-2.2,1.2-3.3c0.4-1,0.7-1.9,1.1-2.7c0.4-0.8,0.7-1.5,1-2
				c0.6-1.1,0.9-1.7,0.9-1.7s-0.3,0.7-0.7,1.8c-0.2,0.6-0.5,1.3-0.8,2.1c-0.3,0.8-0.6,1.7-0.9,2.7s-0.7,2.1-1,3.3
				c-0.3,1.2-0.6,2.4-0.9,3.7c-0.3,1.3-0.4,2.7-0.6,4c-0.2,1.4-0.2,2.8-0.3,4.2C311.1,84.1,311,85.5,311.1,86.9z"/>
		</g>
	</g>
	<g>
		<path class="st0" d="M86.4,88.5c0,0-1.8,0.2-2.8-3.4c0,0-10.3,9.2-2,19.2c0,0,0.3,0,0.8,0.1s1.3,0.2,2.2,0.6
			c0.5,0.1,0.9,0.4,1.4,0.6s1,0.5,1.5,0.8c0.5,0.4,1,0.7,1.4,1.2c0.5,0.4,0.9,0.9,1.3,1.4s0.7,1.1,1,1.6c0.3,0.6,0.5,1.1,0.7,1.7
			s0.3,1.1,0.4,1.7c0.1,0.5,0.1,1,0.2,1.5c0.1,0.9,0,1.7,0,2.3c0,0.5-0.1,0.9-0.1,0.9s0-0.3-0.1-0.8s-0.2-1.3-0.4-2.2
			c-0.1-0.4-0.2-0.9-0.4-1.4c-0.1-0.5-0.3-1-0.5-1.5s-0.4-1.1-0.7-1.6s-0.6-1-0.9-1.5c-0.4-0.5-0.7-0.9-1.2-1.3
			c-0.4-0.4-0.9-0.8-1.3-1.1c-0.5-0.3-0.9-0.7-1.3-0.9c-0.5-0.2-0.9-0.5-1.3-0.7s-0.8-0.4-1.1-0.5s-0.7-0.3-0.9-0.4
			c-0.5-0.2-0.8-0.3-0.8-0.3s-4.9,0-6.2-4.6c0,0-3.5,8.1,4.6,15.6c0,0-2,1-3.2-0.5c0,0-2.1,6.4,7.8,12.1c0,0-6.8,4.8-11.3,1.2
			c0,0-0.6,11.3,12,10.9c0,0-0.9,2.7-4,2.5c0,0,4,5.8,10.5,5.2c0.1,0,0.5-0.1,0.9-0.2c0.3-0.1,0.7-0.2,1.2-0.3s1-0.2,1.5-0.3
			c0.6-0.1,1.2-0.1,1.8-0.2c0.7-0.1,1.4,0,2.1,0s1.5,0.1,2.2,0.2c0.8,0.1,1.5,0.3,2.3,0.5s1.5,0.6,2.2,0.8c0.7,0.4,1.4,0.7,1.9,1.2
			c0.3,0.2,0.6,0.4,0.9,0.7c0.3,0.2,0.5,0.5,0.7,0.7c0.5,0.5,0.9,1,1.2,1.4c0.3,0.5,0.6,0.9,0.8,1.3c0.2,0.4,0.4,0.8,0.5,1.1
			c0.2,0.6,0.3,1,0.3,1s-0.2-0.4-0.5-0.9c-0.2-0.3-0.4-0.6-0.6-1c-0.3-0.4-0.6-0.8-1-1.2s-0.8-0.9-1.3-1.3c-0.2-0.2-0.5-0.4-0.8-0.6
			c-0.3-0.2-0.6-0.4-0.8-0.6c-0.6-0.4-1.2-0.7-1.8-1c-0.7-0.2-1.3-0.6-2.1-0.8c-0.7-0.2-1.4-0.4-2.1-0.5s-1.4-0.3-2.1-0.3
			s-1.4-0.1-2-0.1s-1.3,0-1.8,0c-1.1,0-2.1,0.1-2.7,0.2c-0.6,0-1,0.1-1,0.1c-1.8,0.3-7.9,1.7-10.5,9.9c0,0,6.1-1.5,7.1,1.8
			c0,0,3.3,8.5,13.2,6.7c-0.1,0.2-8.8,7.2-0.2,9.4c0.6,0,2,0.4,3.7-1.8c0,0,8.8-4.8,10.9,5.9c0,0,0.9,6.6-7.6,20.3
			c0,0,6.7-0.2,21.6-18c0.6-0.8,7.5-8.1,5.9-21.2c0,0-0.9-6.1,1.7-7.9c0,0-4.3-0.7-8.4,4.2c0,0,9.7-13.1,1.1-24.7
			c0,0-2.2,2.4-6.4,4.3c-4.2,1.9-2.7,5.1-3.1,7c0,0-1-0.8-1-4.1c0,0,0-4.6,4-8c0,0,4.9-4.3,2-12.2c0,0-1.5-5.1,2.8-6.9
			c0,0-4.9-2.7-8.8,0.2c-0.1,0.3-2.2,1.2-3.3,4.6c0,0-0.8-0.4-0.7-2.4c0,0-1.9-1.1-3.9,1.8c0,0-0.2,0.1-0.4,0.4
			c-0.3,0.3-0.6,0.8-0.9,1.3c-0.2,0.3-0.3,0.6-0.4,1s-0.2,0.7-0.3,1.1c-0.1,0.8-0.2,1.7-0.1,2.6c0,0.4,0.1,0.9,0.1,1.3
			s0.1,0.9,0.2,1.3s0.2,0.8,0.3,1.2s0.2,0.7,0.3,1.1c0.2,0.7,0.3,1.2,0.5,1.6c0.1,0.4,0.2,0.6,0.2,0.6s-0.1-0.2-0.3-0.5
			c-0.2-0.4-0.5-0.8-0.8-1.5c-0.3-0.6-0.6-1.4-0.9-2.2c-0.1-0.4-0.3-0.9-0.3-1.3c-0.1-0.5-0.2-0.9-0.2-1.4s-0.1-1,0-1.4
			c0-0.5,0.1-0.9,0.2-1.4c0.1-0.4,0.3-0.9,0.4-1.2c0.2-0.4,0.4-0.7,0.6-1s0.4-0.5,0.7-0.7c0.2-0.2,0.4-0.3,0.6-0.5
			c0.3-0.2,0.6-0.3,0.6-0.3s1.6-4.6-2.2-13.2c0,0-2.4-5.4-9.7-11.7c0,0-6.7-7.5-2.3-12.4c0,0,2.5-1.9,4.8,0.6c0,0-1.7-8.1-8.8-4.8
			C93.7,74.2,84,78.2,86.4,88.5z M101.6,165.2c0,0,0.3-0.1,0.8-0.4c0.3-0.1,0.6-0.3,0.9-0.4c0.4-0.2,0.8-0.2,1.3-0.4
			c0.2-0.1,0.5-0.1,0.8-0.2c0.3,0,0.6,0,0.8,0c0.3,0,0.6,0,0.9,0s0.6,0.1,0.9,0.2c0.6,0.1,1.3,0.4,1.9,0.7c0.3,0.1,0.6,0.3,0.9,0.5
			s0.6,0.4,0.8,0.6c0.5,0.5,1,0.9,1.4,1.5c0.4,0.5,0.8,1.1,1.1,1.6s0.6,1.1,0.8,1.6s0.4,1,0.6,1.5c0.3,0.9,0.5,1.7,0.6,2.3
			c0.1,0.5,0.2,0.9,0.2,0.9s-0.1-0.3-0.4-0.8c-0.2-0.5-0.5-1.3-0.9-2.1c-0.4-0.9-1-1.9-1.6-2.8c-0.3-0.5-0.7-1-1.1-1.5
			s-0.9-0.9-1.3-1.3c-0.2-0.2-0.5-0.4-0.7-0.6c-0.2-0.2-0.5-0.4-0.8-0.5s-0.5-0.3-0.8-0.4c-0.3-0.1-0.6-0.2-0.8-0.3
			c-0.3-0.1-0.5-0.2-0.8-0.2s-0.6,0-0.8-0.1c-0.3,0-0.5-0.1-0.8-0.1s-0.5,0.1-0.7,0.1c-0.5,0.1-0.9,0.1-1.3,0.2
			c-0.4,0.1-0.7,0.2-1,0.3C101.9,165.1,101.6,165.2,101.6,165.2z M85.1,126.8c0,0,0.4-0.1,1-0.2c0.3-0.1,0.7-0.1,1.2-0.2
			s1-0.1,1.5-0.1c0.3,0,0.6,0,0.9,0s0.6,0.1,0.9,0.1s0.7,0.1,1,0.1c0.3,0.1,0.7,0.2,1,0.2c0.3,0.1,0.7,0.2,1.1,0.3
			c0.3,0.1,0.7,0.3,1,0.4c0.7,0.3,1.4,0.6,2.1,1s1.3,0.8,1.9,1.2c0.6,0.5,1.2,0.9,1.7,1.4c1,1,1.9,2,2.6,2.9
			c1.4,1.8,1.9,3.2,1.9,3.2s-0.2-0.3-0.6-0.8s-1-1.2-1.7-2c-0.4-0.4-0.8-0.8-1.2-1.3c-0.4-0.4-1-0.9-1.5-1.3
			c-0.5-0.5-1.1-0.8-1.7-1.3c-0.6-0.4-1.2-0.8-1.8-1.2c-0.6-0.3-1.3-0.7-1.9-1c-0.3-0.1-0.7-0.3-1-0.4s-0.7-0.2-1-0.3
			s-0.6-0.2-1-0.3c-0.3-0.1-0.6-0.1-0.9-0.2s-0.6-0.1-0.9-0.2c-0.3,0-0.6,0-0.9-0.1c-0.5,0-1.1-0.1-1.5-0.1c-0.5,0-0.8,0-1.2,0.1
			C85.5,126.7,85.1,126.8,85.1,126.8z M93.3,95.4c0,0,0.1,1.4,0.3,3.8c0.1,1.2,0.4,2.7,0.6,4.3c0.4,1.6,0.7,3.5,1.3,5.5
			c0.1,0.5,0.3,1,0.4,1.5c0.2,0.5,0.4,1,0.6,1.5c0.4,1.1,0.8,2.1,1.3,3.2c0.2,0.5,0.5,1.1,0.7,1.6c0.3,0.5,0.6,1.1,0.9,1.6
			c0.6,1.1,1.2,2.2,1.8,3.3c1.3,2.2,2.8,4.4,4.4,6.7c1.6,2.2,3.3,4.4,4.9,6.7c1.6,2.2,3.3,4.5,4.9,6.7c1.6,2.3,3.1,4.5,4.4,6.8
			c0.7,1.1,1.3,2.3,1.8,3.4c0.6,1.1,1,2.3,1.4,3.4c0.5,1.1,0.7,2.3,1,3.4c0.2,1.1,0.5,2.2,0.6,3.2c0.3,2.1,0.2,4.1-0.1,5.7
			c-0.3,1.7-0.7,3.1-1.2,4.3c-0.5,1.1-1,2-1.3,2.5c-0.2,0.3-0.3,0.5-0.4,0.6c-0.1,0.2-0.1,0.2-0.1,0.2s0-0.1,0.1-0.2
			c0.1-0.1,0.2-0.4,0.4-0.7c0.3-0.6,0.7-1.4,1.1-2.6c0.4-1.1,0.7-2.6,1-4.2c0.1-1.7,0.1-3.6-0.2-5.6c-0.1-1-0.4-2.1-0.7-3.1
			c-0.4-1-0.6-2.2-1.1-3.2c-0.5-1.1-0.9-2.2-1.5-3.3s-1.1-2.2-1.8-3.3c-1.3-2.2-2.9-4.4-4.4-6.6c-1.6-2.2-3.2-4.4-4.9-6.7
			c-1.6-2.2-3.3-4.5-4.9-6.7c-1.6-2.3-3.1-4.5-4.4-6.8c-0.6-1.1-1.3-2.3-1.8-3.4c-0.3-0.6-0.5-1.1-0.8-1.7c-0.2-0.6-0.5-1.1-0.7-1.7
			c-0.5-1.1-0.9-2.2-1.2-3.3c-0.2-0.5-0.3-1.1-0.5-1.6c-0.1-0.5-0.3-1-0.4-1.6c-0.6-2-0.8-3.9-1.1-5.6c-0.1-1.7-0.3-3.2-0.4-4.4
			C93.3,96.8,93.3,95.4,93.3,95.4z"/>
		<path class="st0" d="M38.2,165.9c0,0-1,1-3.4-0.6c0,0-1.4,10.8,8.7,12.5c0,0,0.2-0.1,0.6-0.4c0.4-0.2,0.9-0.5,1.6-0.8
			c0.3-0.1,0.7-0.2,1.1-0.4c0.4-0.1,0.9-0.2,1.3-0.3c0.5,0,1-0.1,1.5,0c0.5,0,1,0.1,1.5,0.2c0.5,0.1,1,0.3,1.4,0.5
			c0.5,0.2,0.9,0.4,1.3,0.7c0.4,0.2,0.8,0.5,1.1,0.8s0.6,0.5,0.9,0.8c0.5,0.5,0.9,1,1.2,1.3s0.4,0.5,0.4,0.5s-0.2-0.2-0.5-0.4
			c-0.3-0.3-0.8-0.7-1.4-1.1c-0.3-0.2-0.6-0.5-1-0.7c-0.3-0.2-0.7-0.4-1.1-0.6c-0.4-0.2-0.8-0.4-1.2-0.6c-0.4-0.2-0.9-0.3-1.3-0.4
			c-0.5-0.1-0.9-0.2-1.4-0.2c-0.5-0.1-0.9,0-1.4,0c-0.4,0.1-0.9,0.1-1.3,0.1c-0.4,0.1-0.8,0.1-1.1,0.2c-0.3,0.1-0.7,0.2-1,0.3
			s-0.5,0.2-0.7,0.3c-0.4,0.1-0.6,0.2-0.6,0.2s-2.9,2.5-6.1,0.5c0,0,2.1,6.6,10.8,7c0,0-0.7,1.7-2.2,1.3c0,0,2.1,4.9,10.9,3.2
			c0,0-1.5,6.4-6.1,6.6c0,0,5.5,7.1,12.8,0.3c0,0,0.9,2-1.1,3.5c0,0,5.4,1.4,9-2.3c0.1-0.1,0.2-0.3,0.4-0.6c0.2-0.2,0.3-0.5,0.6-0.8
			c0.2-0.3,0.5-0.6,0.8-1c0.3-0.3,0.6-0.7,1-1.1c0.4-0.4,0.8-0.7,1.2-1.1c0.4-0.4,0.9-0.7,1.4-1s1.1-0.6,1.6-0.9
			c0.5-0.3,1.2-0.4,1.7-0.6c0.6-0.1,1.2-0.3,1.8-0.3c0.3,0,0.6,0,0.8-0.1c0.3,0,0.5,0,0.8,0.1c0.5,0,1,0.1,1.5,0.2
			c0.4,0.1,0.8,0.2,1.2,0.4c0.3,0.1,0.6,0.3,0.9,0.4c0.5,0.2,0.7,0.4,0.7,0.4s-0.3-0.1-0.8-0.3c-0.2-0.1-0.5-0.2-0.9-0.3
			c-0.3-0.1-0.7-0.1-1.2-0.2c-0.4,0-0.9-0.1-1.4-0.1c-0.2,0-0.5,0-0.8,0s-0.5,0.1-0.8,0.1c-0.5,0-1.1,0.2-1.6,0.3
			c-0.5,0.2-1.1,0.3-1.6,0.6s-1.1,0.5-1.5,0.8c-0.5,0.3-1,0.6-1.4,0.9c-0.4,0.3-0.9,0.6-1.3,1c-0.4,0.3-0.7,0.7-1.1,1
			c-0.7,0.6-1.2,1.1-1.5,1.5c-0.3,0.3-0.5,0.5-0.6,0.6c-1,1.1-3.8,5.1-1.2,11.3c0,0,2.9-4.1,5.2-2.6c0,0,6.4,3.3,11.4-2.8
			c0,0.2-1.5,8.9,4.7,5.7c0.4-0.3,1.4-0.8,1.3-3c0,0,2.3-6,9.1-0.7c0,0,5,6.4,6.3,14.6c0,0,6.4-8.4,0.8-21.9
			c-0.3-0.7,3.1-8.7-4.6-15.7c0,0-3.7-3.2-3.1-5.6c0,0-2.9,1.8-2.8,6.8c0,0-1-12.8-12.1-15.3c0,0-0.1,2.6-1.6,5.9
			c-1.5,3.3,1,4.5,1.7,5.8c0,0-1,0-2.7-1.9c0,0-2.4-2.7-1.7-6.8c0,0,0.7-5.1-5.1-8.3c0,0-3.5-2.3-1.9-5.6c0,0-4.3,0.9-5.1,4.6
			c0.1,0.2-0.7,1.8,0.4,4.5c0,0-0.7,0.2-1.7-1.1c0,0-1.7,0.3-1.4,3.1c0,0,0,0.2,0,0.5s0,0.8,0.2,1.3c0.1,0.3,0.2,0.5,0.3,0.8
			s0.3,0.5,0.4,0.8c0.3,0.5,0.8,1.1,1.3,1.6c0.2,0.3,0.5,0.5,0.8,0.7s0.5,0.4,0.8,0.6c0.3,0.2,0.5,0.4,0.8,0.6
			c0.3,0.2,0.5,0.3,0.7,0.5c0.4,0.3,0.8,0.5,1.1,0.7s0.4,0.3,0.4,0.3s-0.2,0-0.5-0.2c-0.3-0.1-0.7-0.2-1.2-0.5
			c-0.5-0.2-1.1-0.5-1.7-0.9c-0.3-0.2-0.6-0.4-0.9-0.6c-0.3-0.2-0.6-0.5-0.8-0.7c-0.3-0.3-0.5-0.5-0.7-0.9c-0.2-0.3-0.4-0.6-0.6-0.9
			c-0.2-0.3-0.3-0.6-0.4-1c-0.1-0.3-0.1-0.6-0.2-0.9c0-0.3,0-0.5,0-0.8c0-0.2,0.1-0.4,0.1-0.6c0.1-0.3,0.2-0.5,0.2-0.5
			s-1.4-3.6-8.1-6.8c0,0-4.2-2-11.8-2c0,0-7.9-1-7.8-6.2c0,0,0.5-2.4,3.2-2.1c0,0-5.2-3.9-7.7,1.7C35.1,153.6,31.4,161,38.2,165.9z
			 M86.8,203.8c0,0,0.1-0.2,0.3-0.7c0.1-0.2,0.2-0.5,0.3-0.7c0.1-0.3,0.4-0.6,0.6-0.9c0.1-0.2,0.2-0.3,0.4-0.5
			c0.1-0.2,0.3-0.3,0.5-0.5s0.3-0.3,0.5-0.5s0.4-0.2,0.6-0.4c0.4-0.3,0.9-0.4,1.5-0.6c0.3-0.1,0.5-0.1,0.8-0.1s0.5-0.1,0.8-0.1
			c0.5,0,1.1,0,1.6,0.2c0.5,0.1,1,0.2,1.5,0.4c0.5,0.1,0.9,0.4,1.3,0.5c0.4,0.2,0.8,0.4,1.1,0.6c0.7,0.4,1.2,0.8,1.6,1.1
			c0.3,0.3,0.6,0.4,0.6,0.4s-0.2-0.1-0.6-0.3s-1-0.5-1.7-0.8s-1.5-0.6-2.4-0.9c-0.5-0.1-0.9-0.2-1.4-0.3s-1-0.1-1.5-0.1
			c-0.2,0-0.5,0-0.7,0.1c-0.2,0-0.5,0-0.7,0.1s-0.5,0.1-0.7,0.2c-0.2,0.1-0.4,0.2-0.6,0.3s-0.4,0.2-0.6,0.3s-0.4,0.3-0.5,0.4
			c-0.2,0.1-0.3,0.2-0.5,0.4c-0.1,0.1-0.3,0.3-0.4,0.4c-0.2,0.3-0.5,0.5-0.7,0.8s-0.3,0.5-0.5,0.7C86.9,203.6,86.8,203.8,86.8,203.8
			z M57.1,189.4c0,0,0.2-0.2,0.5-0.6c0.2-0.2,0.4-0.5,0.6-0.7c0.2-0.3,0.5-0.5,0.9-0.8c0.2-0.1,0.3-0.3,0.5-0.5
			c0.2-0.1,0.4-0.3,0.6-0.4c0.2-0.1,0.4-0.3,0.7-0.5c0.2-0.1,0.5-0.3,0.7-0.4c0.3-0.1,0.5-0.3,0.8-0.4c0.3-0.1,0.6-0.2,0.8-0.3
			c0.6-0.2,1.1-0.3,1.7-0.5c0.6-0.1,1.2-0.2,1.8-0.2s1.2,0,1.7,0c1.1,0,2.2,0.2,3,0.4c1.7,0.4,2.8,0.9,2.8,0.9s-0.3-0.1-0.8-0.2
			c-0.5-0.1-1.2-0.2-2.1-0.3c-0.4,0-0.9-0.1-1.4-0.1s-1,0-1.6,0c-0.5,0-1.1,0.1-1.7,0.1c-0.6,0.1-1.1,0.1-1.7,0.3
			c-0.6,0.1-1.1,0.2-1.7,0.4c-0.3,0.1-0.5,0.2-0.8,0.3s-0.5,0.2-0.7,0.3s-0.5,0.2-0.7,0.3s-0.4,0.3-0.7,0.4
			c-0.2,0.1-0.4,0.2-0.6,0.4c-0.2,0.1-0.4,0.3-0.5,0.4c-0.3,0.3-0.7,0.5-0.9,0.7c-0.3,0.2-0.5,0.5-0.7,0.6
			C57.3,189.2,57.1,189.4,57.1,189.4z M45.8,166.4c0,0,0.8,0.8,2.1,2.1c0.7,0.7,1.6,1.4,2.6,2.3c1.1,0.8,2.2,1.8,3.6,2.6
			c0.3,0.2,0.7,0.5,1,0.7c0.4,0.2,0.7,0.4,1.1,0.6c0.8,0.4,1.6,0.9,2.4,1.2c0.4,0.2,0.9,0.4,1.3,0.6c0.4,0.2,0.9,0.4,1.4,0.5
			c0.9,0.4,1.9,0.7,2.8,1c1.9,0.7,4,1.2,6.1,1.7s4.2,1,6.4,1.4c2.1,0.5,4.3,1,6.4,1.5s4.1,1.1,6.1,1.8c1,0.3,1.9,0.7,2.9,1.1
			c0.9,0.4,1.8,0.9,2.6,1.3c0.9,0.4,1.6,1,2.4,1.5c0.7,0.6,1.4,1.1,2,1.6c1.2,1.1,2.2,2.3,2.9,3.5s1.2,2.2,1.5,3.2
			c0.3,0.9,0.4,1.7,0.5,2.2c0,0.3,0.1,0.4,0.1,0.6c0,0.1,0.1,0.2,0.1,0.2s0-0.1-0.1-0.2c0-0.1-0.1-0.3-0.1-0.6
			c-0.1-0.5-0.3-1.2-0.6-2.1c-0.3-0.9-0.9-1.9-1.6-3c-0.8-1.1-1.7-2.2-3-3.2c-0.6-0.5-1.3-1-2-1.5c-0.8-0.4-1.5-1-2.3-1.4
			s-1.7-0.9-2.6-1.2c-0.9-0.4-1.8-0.8-2.8-1c-1.9-0.6-4-1.2-6.1-1.7s-4.2-1-6.4-1.4c-2.1-0.5-4.3-1-6.4-1.5s-4.2-1.1-6.1-1.8
			c-1-0.3-1.9-0.7-2.8-1.1c-0.5-0.2-0.9-0.4-1.4-0.6c-0.4-0.2-0.9-0.4-1.3-0.7c-0.9-0.4-1.7-0.9-2.4-1.3c-0.4-0.2-0.8-0.5-1.1-0.7
			c-0.4-0.2-0.7-0.5-1-0.7c-1.4-0.9-2.5-1.9-3.5-2.8c-1-0.9-1.8-1.7-2.5-2.4C46.6,167.2,45.8,166.4,45.8,166.4z"/>
		<path class="st0" d="M101.4,222.6c-0.6-0.7-1.1-1.4-1.6-2c0,0-0.3-0.3-0.9-0.7c-0.3-0.2-0.6-0.5-1-0.8s-0.9-0.6-1.4-0.9
			c-0.2-0.2-0.5-0.3-0.8-0.5s-0.6-0.3-0.9-0.5s-0.6-0.3-0.9-0.5c-0.3-0.1-0.7-0.3-1-0.4c-0.3-0.1-0.7-0.3-1.1-0.4
			c-0.4-0.1-0.7-0.2-1.1-0.3s-0.8-0.2-1.2-0.3s-0.8-0.1-1.2-0.2c-0.8-0.1-1.6-0.1-2.4-0.1s-1.6,0.1-2.3,0.2
			c-0.7,0.1-1.4,0.3-2.1,0.5s-1.3,0.4-1.8,0.7c-1.1,0.5-2,1-2.6,1.4s-0.9,0.6-0.9,0.6s0.3-0.3,0.9-0.7s1.4-1,2.5-1.5
			c0.6-0.3,1.2-0.5,1.8-0.8c0.7-0.2,1.4-0.4,2.1-0.6c0.7-0.2,1.5-0.2,2.3-0.3c0.8,0,1.6,0,2.4,0.1c0.4,0,0.8,0.1,1.2,0.2
			c0.4,0.1,0.8,0.2,1.2,0.3s0.8,0.2,1.1,0.4c0.4,0.1,0.7,0.3,1.1,0.4c0.3,0.2,0.7,0.3,1,0.5s0.6,0.3,0.9,0.5s0.6,0.4,0.9,0.5
			c0.3,0.2,0.5,0.3,0.8,0.5c0.2,0.2,0.5,0.3,0.7,0.5s0.4,0.3,0.6,0.5c0.4,0.3,0.7,0.6,1,0.8c0.5,0.4,0.8,0.7,0.8,0.7
			c-13.1-15.3-23.5-10.5-23.9-10.3c1.1,2.7,2.7,3.6,2.7,3.6c-7.3-2.1-9.9,2.3-9.9,2.3c1.1,1.9,5,3,5,3c-5.5-1.2-10,7.7-10,7.7
			c3.1,1.8,5.9,0.7,5.9,0.7c-7.6,2.6-4.4,10.9-4.4,10.9c5.1,10,10.3,3.2,10.3,3.2c-7.4-1.5-1.7-5.1-1.7-5.1c5.4-1.7,6.3-4.4,6.3-6.2
			c1.5,4.7,6.6,2.4,6.6,2.4C88.1,219.8,101.7,222.9,101.4,222.6z M82.1,222.9c0.3-0.2,0.7-0.5,1.1-0.8c0.2-0.1,0.4-0.3,0.6-0.4
			c0.2-0.1,0.5-0.2,0.7-0.4c0.5-0.3,1-0.5,1.6-0.7c0.3-0.1,0.6-0.2,0.9-0.3c0.1,0,0.3-0.1,0.4-0.1c0.2,0,0.3-0.1,0.5-0.1
			c0.3-0.1,0.6-0.1,0.9-0.2c0.3-0.1,0.6-0.1,1-0.1c0.6-0.1,1.3-0.1,1.9-0.1h0.5h0.5c0.3,0,0.6,0.1,0.9,0.1s0.6,0.1,0.9,0.1
			c0.3,0.1,0.6,0.1,0.8,0.2c0.5,0.1,1,0.3,1.5,0.5c0.4,0.2,0.9,0.3,1.2,0.5s0.6,0.3,0.9,0.4c0.5,0.3,0.8,0.4,0.8,0.4
			s-0.3-0.1-0.8-0.3c-0.3-0.1-0.6-0.2-0.9-0.4c-0.1,0-0.2-0.1-0.3-0.1s-0.2-0.1-0.3-0.1c-0.2-0.1-0.4-0.1-0.6-0.2
			c-0.5-0.1-0.9-0.3-1.5-0.4c-0.3,0-0.5-0.1-0.8-0.1c-0.3-0.1-0.6-0.1-0.9-0.1s-0.6,0-0.9-0.1h-0.5h-0.5c-0.6,0-1.2,0-1.9,0.1
			c-0.3,0-0.6,0.1-0.9,0.1c-0.3,0.1-0.6,0.1-0.9,0.2c-0.1,0-0.3,0.1-0.4,0.1s-0.3,0.1-0.4,0.1c-0.3,0.1-0.6,0.2-0.9,0.3
			c-0.5,0.2-1.1,0.4-1.6,0.6c-0.2,0.1-0.5,0.2-0.7,0.3s-0.4,0.2-0.6,0.4c-0.4,0.2-0.8,0.5-1.1,0.7s-0.6,0.4-0.8,0.6
			c-0.2,0.2-0.4,0.3-0.5,0.4c-0.1,0.1-0.2,0.2-0.2,0.2s0.2-0.3,0.6-0.6C81.6,223.4,81.8,223.2,82.1,222.9z M100.3,222
			c0,0-0.5-0.4-1.3-1c-0.2-0.2-0.4-0.3-0.7-0.5s-0.5-0.3-0.8-0.5s-0.6-0.3-1-0.5s-0.7-0.4-1.1-0.5c-0.4-0.2-0.8-0.4-1.3-0.5
			c-0.4-0.1-0.9-0.3-1.4-0.4c-0.5-0.1-1-0.2-1.5-0.2c-0.3,0-0.5,0-0.8-0.1c-0.1,0-0.3,0-0.4,0h-0.4c-0.3,0-0.5,0-0.8,0
			s-0.5,0.1-0.8,0.1c-0.6,0-1.1,0.2-1.6,0.3c-0.3,0-0.5,0.1-0.8,0.2c-0.3,0.1-0.5,0.2-0.8,0.3c-0.5,0.2-1.1,0.4-1.6,0.7
			c-1.1,0.5-2,1.1-3,1.7c-0.9,0.6-1.8,1.3-2.7,2c-0.8,0.7-1.6,1.4-2.3,2.1c-0.7,0.7-1.3,1.4-1.9,2c-1.1,1.3-2,2.4-2.6,3.3
			c-0.6,0.8-0.9,1.3-0.9,1.3s0.3-0.5,0.9-1.4c0.6-0.8,1.4-2,2.5-3.4c0.6-0.7,1.2-1.4,1.9-2.1c0.7-0.7,1.4-1.5,2.3-2.2
			c0.8-0.7,1.7-1.4,2.7-2.1c1-0.6,2-1.2,3-1.7c0.5-0.3,1.1-0.4,1.6-0.7c0.3-0.1,0.6-0.2,0.8-0.3c0.3-0.1,0.6-0.2,0.8-0.2
			c0.6-0.1,1.1-0.2,1.7-0.3c0.3,0,0.6-0.1,0.8-0.1c0.3,0,0.6,0,0.8,0H90c0.1,0,0.3,0,0.4,0c0.3,0,0.5,0.1,0.8,0.1
			c0.5,0.1,1,0.2,1.5,0.3s0.9,0.3,1.4,0.4c0.4,0.2,0.9,0.4,1.3,0.5c0.4,0.2,0.8,0.4,1.1,0.6c0.3,0.2,0.7,0.4,1,0.6
			c0.3,0.2,0.6,0.4,0.8,0.6c0.3,0.2,0.5,0.3,0.7,0.5C99.9,221.6,100.3,222,100.3,222z"/>
		<path class="st0" d="M103.9,232.6c0,0,1.6,2.9,4.1,1.2c-0.6,0.9-1.1,2.5,0.9,5.3c0,0,1.5,3.8-2.6,1.9c0,0,0.1,5.2,6.2,2.1
			c0,0,4.5-2.9,1.8-6.9c0,0,1,1.5,3.1,1.8c0,0,1-6-2.1-7.4c0,0,2.3,0.9,3.5,0.3c0,0,0.3-3-4-4.6c0,0,1.1,0.1,2.6-0.8
			c-0.1-0.2-3.5-6.3-15.4-3.5c0,0,0.3,0,0.7-0.1c0.2,0,0.5,0,0.8-0.1c0.1,0,0.3,0,0.5,0s0.3,0,0.5,0s0.4,0,0.6,0s0.4,0,0.6,0.1
			c0.2,0,0.4,0.1,0.6,0.1s0.4,0.1,0.7,0.1c0.2,0.1,0.4,0.1,0.7,0.2c0.2,0.1,0.5,0.2,0.7,0.2c0.2,0.1,0.5,0.2,0.7,0.3
			s0.4,0.2,0.7,0.3c0.4,0.2,0.8,0.5,1.2,0.8s0.7,0.6,1,1c0.3,0.3,0.6,0.7,0.8,1s0.4,0.7,0.6,1c0.3,0.7,0.6,1.2,0.7,1.6
			c0.1,0.4,0.2,0.7,0.2,0.7s-0.1-0.2-0.2-0.6c-0.1-0.4-0.4-1-0.8-1.6c-0.2-0.3-0.4-0.6-0.6-1c-0.2-0.3-0.5-0.7-0.8-1s-0.7-0.6-1-0.9
			c-0.4-0.3-0.8-0.6-1.2-0.8c-0.2-0.1-0.4-0.2-0.6-0.3s-0.4-0.2-0.7-0.3c-0.2-0.1-0.4-0.2-0.7-0.2c-0.2-0.1-0.4-0.1-0.7-0.2
			c-0.2-0.1-0.4-0.1-0.7-0.1c-0.2,0-0.4-0.1-0.6-0.1s-0.4-0.1-0.6-0.1s-0.4,0-0.6,0c-0.4,0-0.7,0-1,0s-0.6,0-0.8,0
			c-0.4,0-0.6,0-0.7,0c-0.5,0.1-1,0.2-1.5,0.4C100.1,222.4,107.8,225.7,103.9,232.6z M109.8,230c0.1,0.3,0.1,0.5,0.1,0.5s0,0,0-0.1
			C109.8,230.3,109.8,230.2,109.8,230c-0.1-0.1-0.2-0.3-0.2-0.6c-0.1-0.2-0.2-0.5-0.3-0.7c-0.1-0.1-0.1-0.3-0.2-0.4
			c-0.1-0.1-0.1-0.3-0.2-0.4c-0.1-0.3-0.4-0.6-0.5-0.9c-0.1-0.1-0.2-0.3-0.3-0.4s-0.1-0.1-0.2-0.2c-0.1-0.1-0.1-0.1-0.2-0.2
			c-0.1-0.1-0.2-0.3-0.4-0.4c-0.1-0.1-0.3-0.3-0.4-0.4c-0.3-0.3-0.6-0.5-0.9-0.7l-0.2-0.2l-0.2-0.1c-0.2-0.1-0.3-0.2-0.5-0.3
			c-0.1-0.1-0.3-0.2-0.5-0.2c-0.2-0.1-0.3-0.1-0.5-0.2c-0.3-0.2-0.6-0.2-0.9-0.3c-0.1,0-0.3-0.1-0.4-0.1s-0.1,0-0.2-0.1
			c-0.1,0-0.1,0-0.2,0c-0.2-0.1-0.4-0.1-0.6-0.2c-0.3-0.1-0.5-0.1-0.5-0.1s0.2,0,0.5,0.1c0.2,0,0.4,0.1,0.6,0.1s0.5,0.1,0.8,0.2
			c0.3,0.1,0.6,0.2,0.9,0.3c0.2,0.1,0.3,0.1,0.5,0.2c0.2,0.1,0.3,0.1,0.5,0.2c0.2,0.1,0.3,0.2,0.5,0.3l0.2,0.1l0.2,0.2
			c0.3,0.2,0.6,0.5,0.9,0.7c0.1,0.1,0.3,0.3,0.4,0.4c0.1,0.1,0.3,0.3,0.4,0.4c0.1,0.1,0.1,0.1,0.2,0.2c0.1,0.1,0.1,0.2,0.2,0.2
			c0.1,0.2,0.2,0.3,0.3,0.4c0.2,0.3,0.4,0.6,0.5,0.9c0.1,0.2,0.1,0.3,0.2,0.4c0.1,0.1,0.1,0.3,0.2,0.4c0.1,0.3,0.2,0.5,0.3,0.7
			C109.7,229.6,109.7,229.8,109.8,230z M102,222.3c0.2,0,0.3,0,0.5,0s0.4,0,0.6,0s0.4,0,0.7,0.1c0.2,0,0.5,0,0.8,0.1
			s0.5,0.1,0.8,0.2c0.3,0.1,0.6,0.2,0.8,0.3c0.3,0.1,0.6,0.2,0.8,0.4c0.1,0.1,0.3,0.2,0.4,0.2s0.1,0.1,0.2,0.1l0.2,0.1
			c0.1,0.1,0.3,0.2,0.4,0.3s0.3,0.2,0.4,0.3c0.3,0.2,0.5,0.5,0.7,0.7c0.1,0.1,0.2,0.3,0.3,0.4s0.2,0.3,0.3,0.4
			c0.2,0.3,0.4,0.6,0.6,0.9c0.4,0.6,0.6,1.3,0.9,1.9c0.2,0.7,0.4,1.3,0.6,2c0.2,0.6,0.3,1.3,0.3,1.9c0.1,0.6,0.1,1.2,0.2,1.7
			c0.1,1.1,0,1.9,0,2.5s-0.1,1-0.1,1s0-0.4,0-1s0-1.5-0.1-2.5c0-0.5-0.1-1.1-0.2-1.7c-0.1-0.6-0.2-1.2-0.4-1.9
			c-0.1-0.6-0.4-1.3-0.6-1.9c-0.3-0.6-0.5-1.3-0.9-1.9c-0.2-0.3-0.4-0.6-0.5-0.9c-0.1-0.1-0.2-0.3-0.3-0.4s-0.2-0.3-0.3-0.4
			c-0.2-0.3-0.4-0.5-0.7-0.7c-0.1-0.1-0.2-0.2-0.4-0.3c-0.1-0.1-0.3-0.2-0.4-0.3l-0.2-0.1c-0.1,0-0.1-0.1-0.2-0.1
			c-0.1-0.1-0.3-0.2-0.4-0.2c-0.3-0.2-0.6-0.3-0.8-0.4c-0.3-0.1-0.6-0.2-0.8-0.3c-0.3-0.1-0.5-0.1-0.8-0.2c-0.3-0.1-0.5-0.1-0.7-0.1
			s-0.5-0.1-0.7-0.1s-0.4,0-0.6,0C102.4,222.4,102.2,222.4,102,222.3c-0.6,0.1-1,0.1-1,0.1S101.4,222.4,102,222.3z"/>
		<g>
			<path class="st0" d="M117.5,106L117.5,106C117.5,106,117.5,106,117.5,106z"/>
			<path class="st0" d="M101.2,85.7c2.5-1.7,4.7,1.5,4.7,1.5c0.8,1.7,2.4,1.8,3.4,1.6c-2.8,0.9-2.9,3.8-2.9,3.8
				c0.9-0.7,2.1-0.2,2.1-0.2c-1.2,3.8,1.3,6.6,1.3,6.6c3.9,3.5,10.2-1,10.2-1c-0.3,7.3-2,7.9-2.4,8c13,0.4,11.7-14.4,11.7-14.4
				c0.8-9.4,3.2-9.8,3.2-9.8c3.4-2.2,3.5,1.4,3.5,1.4c5.1-6.1-1.8-6.3-1.8-6.3c1.3,0,3-0.5,3.4-2.4s2.6-3.6,2.6-3.6
				c-0.7-1.3-2.2-1.5-3.1-1.5c1.2-0.3,2.2-1.7,1.8-3c-0.6-1.6,0.4-3.8,0.4-3.8c1-2.7,2.8-0.9,2.8-0.9c-4-7.1-11.1,3.3-11.1,3.3
				c0.7-0.9-0.3-2.3-0.3-2.3c1.3-2.7,2.5-2.8,2.5-2.8c0.2-1-2.5-2.1-2.5-2.1c1.6-2,3.6-0.8,3.6-0.8c0.2-6.4-7.4-4-7.4-4
				c3.5-6.2,8.7-6.7,8.7-6.7c3.7-0.5,4.9,3.4,4.9,3.4c-1.1-1.2-2.9-0.5-3.1-0.5c-3,2.7-0.5,5.5-0.5,5.5c2.1,3.8,6.2-2,6.2-2
				c3.5-7.3-4.2-10.7-4.2-10.7c-11-4.9-18.2,6.1-18.2,6.1c1-2.2-0.8-4.1-0.9-4.5c-4.6,1.9-4.4,8-4.4,8c-0.8-1.6-2.8-2.1-2.8-2.1
				c-1.8,3.3-0.4,7.3-0.4,7.3s0.9,1.1,2,2.9c0.5,0.9,1.2,2,1.8,3.2c0.3,0.6,0.6,1.2,0.9,1.8s0.6,1.3,0.8,1.9c0.5,1.3,1,2.7,1.3,4
				c0.2,0.6,0.3,1.3,0.4,1.9s0.1,1.2,0.2,1.7s0,1,0,1.5c0,0.2,0,0.4,0,0.6s-0.1,0.4-0.1,0.5c-0.1,0.6-0.2,0.9-0.2,0.9s0-0.4,0.1-1
				c0-0.2,0-0.3,0-0.5s0-0.4,0-0.6c0-0.4,0-0.9-0.1-1.4s-0.1-1.1-0.3-1.7c-0.1-0.6-0.3-1.2-0.5-1.8c-0.2-0.6-0.4-1.3-0.6-1.9
				c-0.2-0.7-0.5-1.3-0.7-1.9c-0.5-1.3-1.1-2.6-1.6-3.8c-0.6-1.2-1.1-2.3-1.5-3.2c-0.9-1.9-1.6-3.1-1.6-3.1c-0.5-0.7-1.3-1-1.3-1
				c-0.4,0.5-0.5,1.6-0.6,2.1c0.2-2.9-4.1-4.3-4.1-4.3c-0.5-1.3-0.2-2.1-0.2-2.1c-4.2,5-1.2,9.7-1.2,9.7c-2.1-1.1-2.5-0.5-2.5-0.5
				c-0.2,5.6,4.2,6.7,4.2,6.7c-0.6,1.4-0.2,3.6-0.2,3.6c-1.8-1-3.4,1-3.4,1c0.2,4.7,5,7,5,7s0.7-0.2,1.8-0.3c0.6,0,1.2,0,1.9,0.2
				c0.7,0.1,1.4,0.4,2.1,0.7c0.7,0.4,1.3,0.8,1.8,1.3c0.3,0.2,0.5,0.5,0.7,0.7c0.2,0.3,0.4,0.5,0.5,0.7c0.3,0.5,0.5,0.9,0.6,1.2
				c0.1,0.3,0.2,0.5,0.2,0.5s-0.1-0.1-0.3-0.4c-0.1-0.1-0.2-0.3-0.3-0.5s-0.3-0.3-0.5-0.6c-0.2-0.2-0.4-0.4-0.6-0.6
				s-0.5-0.4-0.7-0.6s-0.5-0.4-0.8-0.6s-0.6-0.3-0.9-0.5c-0.6-0.3-1.3-0.6-1.9-0.7c-0.6-0.2-1.2-0.3-1.8-0.4c-0.5-0.1-1-0.1-1.3-0.1
				s-0.5,0-0.5,0C103.4,79.2,101.2,85.7,101.2,85.7z M127.1,75.3c0-0.5,0-1,0.1-1.5c0-0.5,0.1-1,0.2-1.5c0.2-1,0.4-2,0.7-3
				c0.1-0.5,0.4-0.9,0.5-1.3c0.2-0.4,0.4-0.8,0.6-1.1c0.4-0.7,0.8-1.2,1.1-1.5s0.5-0.5,0.5-0.5s-0.2,0.2-0.4,0.6
				c-0.3,0.4-0.6,0.9-0.9,1.6c-0.3,0.7-0.6,1.5-0.9,2.4c-0.1,0.5-0.2,0.9-0.3,1.4s-0.2,1-0.3,1.5c-0.1,0.5-0.2,1-0.2,1.5
				c-0.1,0.5-0.1,1-0.1,1.5s-0.1,0.9-0.1,1.4c0,0.4,0,0.8-0.1,1.2c0,0.8,0,1.4-0.1,1.9c0,0.4,0,0.7,0,0.7s0-0.3-0.1-0.7
				c0-0.4-0.2-1.1-0.2-1.9c0-0.4,0-0.8-0.1-1.2C127.1,76.3,127.1,75.8,127.1,75.3z M125.4,82.7c-0.1-1.4-0.2-2.8-0.3-4.2
				c-0.2-1.4-0.4-2.7-0.6-4c-0.3-1.3-0.6-2.5-0.9-3.7s-0.7-2.3-1-3.3s-0.6-1.9-0.9-2.7c-0.3-0.8-0.6-1.5-0.8-2.1
				c-0.4-1.2-0.7-1.8-0.7-1.8s0.3,0.6,0.9,1.7c0.3,0.6,0.6,1.2,1,2c0.4,0.8,0.8,1.7,1.1,2.7c0.4,1,0.8,2.1,1.2,3.3
				c0.3,1.2,0.7,2.4,1,3.7c0.3,1.3,0.5,2.7,0.7,4.1s0.3,2.8,0.4,4.3c0,1.4,0,2.9-0.1,4.3s-0.3,2.8-0.5,4.1c-0.2,1.3-0.6,2.6-0.9,3.8
				c-0.2,0.6-0.4,1.2-0.6,1.7s-0.4,1.1-0.6,1.6s-0.4,1-0.6,1.4s-0.4,0.8-0.6,1.2c-0.4,0.8-0.8,1.4-1.1,1.9s-0.6,0.9-0.9,1.2
				c-0.2,0.3-0.4,0.4-0.3,0.4c0,0,0.1-0.1,0.3-0.4c0.2-0.3,0.4-0.7,0.7-1.2s0.6-1.2,1-2c0.2-0.4,0.3-0.8,0.5-1.3s0.3-0.9,0.5-1.4
				s0.3-1,0.5-1.6c0.1-0.5,0.4-1.1,0.5-1.7c0.3-1.2,0.6-2.4,0.7-3.7c0.2-1.3,0.3-2.7,0.4-4C125.4,85.5,125.4,84.1,125.4,82.7z"/>
		</g>
	</g>
	<text transform="matrix(1 0 0 1 206.0543 353.905)" class="st1 st5 st6">1970</text>
	<circle class="st1" cx="198.8" cy="348" r="1.4"/>
	<circle class="st1" cx="237.3" cy="348" r="1.4"/>
	<g>
		<g>
			<g>
				<path class="st0" d="M248.9,348.4l-1.1,2c12,6.4,22.1,5.6,28.5,3.7c7-2,11-5.5,11.2-5.7c10.2-8.1,19.8-11.7,28.4-10.6
					c9.5,1.2,14.5,7.9,14.5,7.9c1.9,2.4,2.7,5.4,2.4,8.4c-0.4,3-1.9,5.7-4.3,7.6c-1.9,1.5-4.3,2.1-6.8,1.8c-2.4-0.4-4.5-1.7-6-3.7
					c-0.9-1.2-1.2-2.8-1.1-4.3c0.3-2.8,1.7-4.9,3.8-5.7c1.8-0.7,3.8-0.4,5.3,0.8c1.4,1.1,1.9,3.2,1.3,4.9c-0.5,1.2-1.4,2-2.5,2.1
					c-1,0.2-2.1-0.3-2.8-1.1l-1.8,1.4c1.2,1.5,3,2.2,4.9,2c1.9-0.3,3.5-1.6,4.3-3.5c1.1-2.7,0.3-5.8-2-7.6c-2.1-1.7-5-2.2-7.6-1.1
					c-2.8,1.2-4.7,3.9-5.2,7.6c-0.3,2.1,0.3,4.2,1.5,5.9c1.8,2.5,4.5,4.2,7.5,4.6c3.1,0.4,6.1-0.4,8.5-2.3c5.9-4.6,7-13.3,2.3-19.2
					c-0.2-0.3-5.6-7.4-16-8.8c-9.3-1.2-19.5,2.5-30.2,11.1C285.4,347.3,270.4,359.9,248.9,348.4z"/>
			</g>
			<g>
				<path class="st0" d="M326.7,339.4l-0.8,2.2c0.3,0.1,7.9,2.9,11.5-0.5c2-1.9,2.3-5,1-9.4l-2.2,0.7c0.7,2.4,1.2,5.6-0.4,7.1
					C333.7,341.3,328.5,340,326.7,339.4z"/>
			</g>
			<g>
				
					<ellipse transform="matrix(0.4542 -0.8909 0.8909 0.4542 -142.8286 479.4559)" class="st0" cx="319.9" cy="356.3" rx="2.6" ry="2.6"/>
			</g>
			<g>
				
					<ellipse transform="matrix(0.4542 -0.8909 0.8909 0.4542 -132.6338 434.9212)" class="st0" cx="288.6" cy="325.7" rx="2.6" ry="2.6"/>
			</g>
			<g>
				
					<ellipse transform="matrix(3.951390e-02 -0.9992 0.9992 3.951390e-02 -9.7979 655.7502)" class="st0" cx="336.2" cy="333" rx="2.6" ry="2.6"/>
			</g>
			<g>
				<path class="st0" d="M253,350v2.3c12.4,0.1,17.3-15.4,17.5-16c3.5-9.7,7.9-15.5,12.9-17c4.3-1.2,7.6,1.3,7.8,1.4
					c1.6,1.1,2.7,2.6,3,4.4c0.4,1.8,0,3.6-1,5.1c-1.6,2.4-4.8,3.1-7.3,1.5c-0.9-0.6-1.5-1.5-1.7-2.5s0-2.1,0.6-3
					c0.9-1.4,2.7-1.7,4.1-0.8l1.3-1.9c-2.4-1.6-5.7-0.9-7.3,1.5c-0.9,1.4-1.2,3.1-0.9,4.7c0.3,1.6,1.3,3,2.7,4
					c3.5,2.3,8.2,1.3,10.4-2.2c1.3-2,1.8-4.5,1.3-6.9s-1.9-4.4-3.9-5.8c-0.1-0.1-4.2-3.3-9.7-1.8c-5.8,1.6-10.6,7.8-14.4,18.4
					C268.2,335.8,263.6,350.1,253,350z"/>
			</g>
			<g>
				<path class="st0" d="M308.5,342.4c0.7,1.2,1.2,2.5,1.5,3.7c0.3,1.3,0.5,2.6,0.3,3.8c-0.1,0.6-0.3,1.2-0.6,1.7
					c-0.2,0.2-0.3,0.5-0.5,0.7s-0.4,0.4-0.6,0.6c-0.5,0.4-1,0.7-1.6,0.9c-0.6,0.3-1.2,0.4-1.8,0.6h0.1c-1.4,0.2-2.7,0-3.7-0.6
					s-1.7-1.8-2.3-3c-0.6-1.3-1.2-2.7-1.8-4.1c-0.6-1.4-1.4-2.8-2.3-4.1c-0.9-1.3-2-2.6-3.2-3.6c-1.2-1.1-2.5-2-4-2.8
					c-2.8-1.5-5.9-2.4-8.9-3l-2.3-0.4c-0.8-0.1-1.6-0.2-2.3-0.2c-1.6-0.1-3.1-0.2-4.7-0.1s-3.1,0.2-4.7,0.6
					c-1.5,0.3-3.1,0.7-4.5,1.3c-2.9,1.2-5.6,3-7.6,5.4c-2,2.3-3.5,5.2-4,8.2c0.4-1.4,1.2-2.8,2-4s1.8-2.4,2.8-3.4
					c2.1-2,4.7-3.5,7.4-4.4c2.8-0.9,5.7-1.3,8.6-1.3c1.5,0,2.9,0.1,4.4,0.2c0.7,0.1,1.4,0.2,2.2,0.3l2.2,0.4
					c2.9,0.6,5.7,1.5,8.1,2.8c2.5,1.4,4.6,3.2,6.2,5.5s2.7,5,4.1,7.8c0.7,1.4,1.7,2.9,3.3,3.9c1.7,1,3.6,0.9,5.1,0.7h0.1l0,0
					c0.7-0.2,1.4-0.5,2-0.9c0.7-0.3,1.3-0.8,1.8-1.3c0.3-0.3,0.5-0.6,0.8-0.9c0.2-0.3,0.4-0.7,0.6-1c0.3-0.7,0.5-1.5,0.5-2.2
					c0.1-1.5-0.3-2.9-0.9-4.2C310.1,344.6,309.4,343.5,308.5,342.4z"/>
			</g>
		</g>
		<g>
			<g>
				<path class="st0" d="M185.7,348.4l1.1,2c-12,6.4-22.1,5.6-28.5,3.7c-7-2-11-5.5-11.2-5.7c-10.2-8.1-19.8-11.7-28.4-10.6
					c-9.5,1.2-14.5,7.9-14.5,7.9c-1.9,2.4-2.7,5.4-2.4,8.4c0.4,3,1.9,5.7,4.3,7.6c1.9,1.5,4.3,2.1,6.8,1.8c2.4-0.4,4.5-1.7,6-3.7
					c0.9-1.2,1.2-2.8,1.1-4.3c-0.3-2.8-1.7-4.9-3.8-5.7c-1.8-0.7-3.8-0.4-5.3,0.8c-1.4,1.1-1.9,3.2-1.3,4.9c0.5,1.2,1.4,2,2.5,2.1
					c1,0.2,2.1-0.3,2.8-1.1l1.8,1.4c-1.2,1.5-3,2.2-4.9,2c-2-0.3-3.5-1.6-4.3-3.5c-1.1-2.7-0.3-5.8,2-7.6c2.1-1.7,5-2.2,7.6-1.1
					c2.8,1.2,4.7,3.9,5.2,7.6c0.3,2.1-0.3,4.2-1.5,5.9c-1.8,2.5-4.5,4.2-7.5,4.6c-3.1,0.4-6.1-0.4-8.5-2.3c-5.9-4.6-7-13.3-2.3-19.2
					c0.2-0.3,5.6-7.4,16-8.8c9.3-1.2,19.5,2.5,30.2,11.1C149.2,347.3,164.2,359.9,185.7,348.4z"/>
			</g>
			<g>
				<path class="st0" d="M107.9,339.4l0.8,2.2c-0.3,0.1-7.9,2.9-11.5-0.5c-2-1.9-2.3-5-1-9.4l2.2,0.7c-0.7,2.4-1.2,5.6,0.4,7.1
					C100.9,341.3,106.1,340,107.9,339.4z"/>
			</g>
			<g>
				<ellipse transform="matrix(0.891 -0.454 0.454 0.891 -149.258 90.913)" class="st0" cx="114.7" cy="356.3" rx="2.6" ry="2.6"/>
			</g>
			<g>
				<ellipse transform="matrix(0.891 -0.454 0.454 0.891 -131.9578 101.7906)" class="st0" cx="146" cy="325.7" rx="2.6" ry="2.6"/>
			</g>
			<g>
				
					<ellipse transform="matrix(0.9992 -3.977976e-02 3.977976e-02 0.9992 -13.1687 4.1779)" class="st0" cx="98.4" cy="333" rx="2.6" ry="2.6"/>
			</g>
			<g>
				<path class="st0" d="M181.6,350v2.3c-12.4,0.1-17.3-15.4-17.5-16c-3.5-9.7-7.9-15.5-12.9-17c-4.3-1.2-7.6,1.3-7.8,1.4
					c-1.6,1.1-2.7,2.6-3,4.4c-0.4,1.8,0,3.6,1,5.1c1.6,2.4,4.8,3.1,7.3,1.5c0.9-0.6,1.5-1.5,1.7-2.5s0-2.1-0.6-3
					c-0.9-1.4-2.7-1.7-4.1-0.8l-1.3-1.9c2.4-1.6,5.7-0.9,7.3,1.5c0.9,1.4,1.2,3.1,0.9,4.7s-1.3,3-2.7,4c-3.5,2.3-8.2,1.3-10.4-2.2
					c-1.3-2-1.8-4.5-1.3-6.9s1.9-4.4,3.9-5.8c0.1-0.1,4.2-3.3,9.7-1.8c5.8,1.6,10.6,7.8,14.4,18.4C166.4,335.8,171,350.1,181.6,350z
					"/>
			</g>
			<g>
				<path class="st0" d="M126.1,342.4c-0.7,1.2-1.2,2.5-1.5,3.7c-0.3,1.3-0.5,2.6-0.3,3.8c0.1,0.6,0.3,1.2,0.6,1.7
					c0.1,0.2,0.3,0.5,0.5,0.7s0.4,0.4,0.6,0.6c0.5,0.4,1,0.7,1.6,0.9c0.6,0.3,1.2,0.4,1.8,0.6h-0.1c1.4,0.2,2.7,0,3.7-0.6
					s1.7-1.8,2.3-3c0.6-1.3,1.2-2.7,1.8-4.1s1.4-2.8,2.3-4.1c0.9-1.3,2-2.6,3.2-3.6c1.2-1.1,2.5-2,4-2.8c2.8-1.5,5.9-2.4,8.9-3
					l2.3-0.4c0.8-0.1,1.6-0.2,2.3-0.2c1.5-0.1,3.1-0.2,4.7-0.1s3.1,0.2,4.7,0.6c1.5,0.3,3.1,0.7,4.5,1.3c2.9,1.2,5.6,3,7.6,5.4
					c2,2.3,3.5,5.2,4,8.2c-0.4-1.4-1.2-2.8-2-4s-1.8-2.4-2.8-3.4c-2.1-2-4.7-3.5-7.4-4.4s-5.7-1.3-8.6-1.3c-1.5,0-2.9,0.1-4.4,0.2
					c-0.7,0.1-1.4,0.2-2.2,0.3l-2.2,0.4c-2.9,0.6-5.7,1.5-8.1,2.8c-2.5,1.4-4.6,3.2-6.2,5.5c-1.6,2.3-2.7,5-4.1,7.8
					c-0.7,1.4-1.7,2.9-3.3,3.9c-1.7,1-3.6,0.9-5.1,0.7h-0.1l0,0c-0.7-0.2-1.4-0.5-2-0.9c-0.7-0.3-1.3-0.8-1.8-1.3
					c-0.3-0.3-0.5-0.6-0.8-0.9c-0.2-0.3-0.4-0.7-0.6-1c-0.3-0.7-0.5-1.5-0.5-2.2c-0.1-1.5,0.3-2.9,0.9-4.2
					C124.5,344.6,125.2,343.5,126.1,342.4z"/>
			</g>
		</g>
	</g>
	<line class="st7" x1="87.3" y1="371.4" x2="348.6" y2="371.4"/>
	<line class="st7" x1="87.3" y1="412.2" x2="348.6" y2="412.2"/>
</g>
</svg>
